<?xml version="1.0" encoding="utf-8"?>
<svg version="1.1" id="Слой_1" xmlns="http://www.w3.org/2000/svg" xmlns:xlink="http://www.w3.org/1999/xlink" x="0px" y="0px"
	 width="73px" height="64px" viewBox="0 0 73 64" enable-background="new 0 0 73 64" xml:space="preserve">
<path fill-rule="evenodd" clip-rule="evenodd" d="M22.3,11.7c0-0.1-0.1-0.2-0.2-0.2l-14.8,0c-0.1,0-0.2,0.1-0.2,0.2l0,14.8
	c0,0.1,0.1,0.2,0.2,0.2l14.8,0c0.1,0,0.2-0.1,0.2-0.2L22.3,11.7z M21.8,11.9l0,14.3l-14.3,0l0-14.4L21.8,11.9z"/>
<path fill-rule="evenodd" clip-rule="evenodd" d="M52.9,11.7c0-0.1-0.1-0.2-0.2-0.2l-14.8,0c-0.1,0-0.2,0.1-0.2,0.2l0,14.8
	c0,0.1,0.1,0.2,0.2,0.2l14.8,0c0.1,0,0.2-0.1,0.2-0.2L52.9,11.7z M52.4,11.9l0,14.3c0,0-12.5,0-14.3,0l0-14.4L52.4,11.9z"/>
<path fill-rule="evenodd" clip-rule="evenodd" d="M19,15c0-0.1-0.1-0.2-0.2-0.2l-8.2,0c-0.1,0-0.2,0.1-0.2,0.2l0,8.2
	c0,0.1,0.1,0.2,0.2,0.2l8.2,0c0.1,0,0.2-0.1,0.2-0.2L19,15z M18.6,15.2l0,7.7l-7.7,0c0,0,0-6.4,0-7.7L18.6,15.2z"/>
<path fill-rule="evenodd" clip-rule="evenodd" d="M49.6,15c0-0.1-0.1-0.2-0.2-0.2l-8.2,0c-0.1,0-0.2,0.1-0.2,0.2l0,8.2
	c0,0.1,0.1,0.2,0.2,0.2l8.2,0c0.1,0,0.2-0.1,0.2-0.2L49.6,15z M49.1,15.2l0,7.7l-7.7,0c0,0,0-6.4,0-7.7
	C42.7,15.2,49.1,15.2,49.1,15.2z"/>
<path fill-rule="evenodd" clip-rule="evenodd" d="M30.3,11.8c0-0.1-0.1-0.2-0.2-0.2l-3.7,0c-0.1,0-0.2,0.1-0.2,0.2l0,3.7
	c0,0.1,0.1,0.2,0.2,0.2l3.7,0c0.1,0,0.2-0.1,0.2-0.2L30.3,11.8z M29.8,12l0,3.2l-3.3,0l0-3.3L29.8,12z"/>
<path fill-rule="evenodd" clip-rule="evenodd" d="M34.1,15.6c0-0.1-0.1-0.2-0.2-0.2l-3.7,0c-0.1,0-0.2,0.1-0.2,0.2l0,7.3
	c0,0.1,0.1,0.2,0.2,0.2l3.7,0c0.1,0,0.2-0.1,0.2-0.2L34.1,15.6z M33.6,15.8l0,6.8l-3.3,0l0-6.8L33.6,15.8z"/>
<path fill-rule="evenodd" clip-rule="evenodd" d="M30.4,22.9c0-0.1-0.1-0.2-0.2-0.2l-3.7,0c-0.1,0-0.2,0.1-0.2,0.2l0,3.7
	c0,0.1,0.1,0.2,0.2,0.2l3.7,0c0.1,0,0.2-0.1,0.2-0.2L30.4,22.9z M29.9,23.1l0,3.2l-3.3,0l0-3.3L29.9,23.1z"/>
<path fill="#FFFFFF" d="M45.2,41.5h-3.7v7.4h3.7V41.5z"/>
<path fill-rule="evenodd" clip-rule="evenodd" d="M45.5,41.5c0-0.1-0.1-0.2-0.2-0.2l-3.7,0c-0.1,0-0.2,0.1-0.2,0.2l0,7.4
	c0,0.1,0.1,0.2,0.2,0.2l3.7,0c0.1,0,0.2-0.1,0.2-0.2L45.5,41.5z M45,41.7l0,6.9l-3.3,0l0-6.9L45,41.7z"/>
<path fill="#FFFFFF" d="M37.8,52.6v3.7h7.4v-3.7H37.8z"/>
<path fill-rule="evenodd" clip-rule="evenodd" d="M37.8,52.3c-0.1,0-0.2,0.1-0.2,0.2l0,3.7c0,0.1,0.1,0.2,0.2,0.2l7.4,0
	c0.1,0,0.2-0.1,0.2-0.2l0-3.7c0-0.1-0.1-0.2-0.2-0.2L37.8,52.3z M38.1,52.8l6.9,0l0,3.3l-6.9,0L38.1,52.8z"/>
<path fill="#FFFFFF" d="M29.4,41.5v3.7h3.7v-3.7H29.4z"/>
<path fill-rule="evenodd" clip-rule="evenodd" d="M29.4,41.2c-0.1,0-0.2,0.1-0.2,0.2l0,3.7c0,0.1,0.1,0.2,0.2,0.2l3.7,0
	c0.1,0,0.2-0.1,0.2-0.2l0-3.7c0-0.1-0.1-0.2-0.2-0.2L29.4,41.2z M29.6,41.7l3.2,0l0,3.3l-3.3,0L29.6,41.7z"/>
<path fill-rule="evenodd" clip-rule="evenodd" fill="#FFFFFF" d="M52.7,30.2h-7.4v3.7l3.7,0v3.6h3.7V30.2z"/>
<path fill-rule="evenodd" clip-rule="evenodd" d="M48.8,34.1l0,3.4c0,0.1,0.1,0.2,0.2,0.2l3.7,0c0.1,0,0.2-0.1,0.2-0.2l0-7.3
	c0-0.1-0.1-0.2-0.2-0.2L49,30l-3.7,0c-0.1,0-0.2,0.1-0.2,0.2l0,3.7c0,0.1,0,0.1,0.1,0.2c0,0,0.1,0.1,0.2,0.1L48.8,34.1z M49.2,33.9
	L49.2,33.9l0,3.3l3.3,0l0-6.8l-3.5,0l-3.5,0l0,3.3l3.5,0C49,33.7,49.2,33.7,49.2,33.9C49.2,33.9,49.2,33.9,49.2,33.9z"/>
<linearGradient id="SVGID_1_" gradientUnits="userSpaceOnUse" x1="26.0179" y1="21.9923" x2="58.0668" y2="62.7249" gradientTransform="matrix(1 0 0 -1 0 65.2756)">
	<stop  offset="0" style="stop-color:#93E79A"/>
	<stop  offset="1" style="stop-color:#93E79A;stop-opacity:0"/>
</linearGradient>
<path fill-rule="evenodd" clip-rule="evenodd" fill="url(#SVGID_1_)" d="M14.8,37.4v-3.4H11v3.1l4.4,4.3h6.6v6.5l9.9,9.6l37.6-41.2
	l-7.4-6.7L31.5,43.1l-13-12.6v6.9H14.8z"/>
<path fill-rule="evenodd" clip-rule="evenodd" d="M7.3,41.2c-0.1,0-0.2,0.1-0.2,0.2l0,14.8c0,0.1,0.1,0.2,0.2,0.2l14.8,0
	c0.1,0,0.2-0.1,0.2-0.2l0-14.8c0-0.1-0.1-0.2-0.2-0.2L7.3,41.2z M7.6,41.7l14.3,0l0,14.4c-1.7,0-12.6,0-14.3,0L7.6,41.7z"/>
<path fill-rule="evenodd" clip-rule="evenodd" d="M10.6,44.5c-0.1,0-0.2,0.1-0.2,0.2l0,8.2c0,0.1,0.1,0.2,0.2,0.2l8.2,0
	c0.1,0,0.2-0.1,0.2-0.2l0-8.2c0-0.1-0.1-0.2-0.2-0.2L10.6,44.5z M10.9,45l7.7,0c0,0,0,6.5,0,7.7l-7.7,0L10.9,45z"/>
<path fill="#FFFFFF" d="M7.3,34v3.7H11V34H7.3z"/>
<path fill-rule="evenodd" clip-rule="evenodd" d="M7.3,33.8C7.1,33.8,7,33.9,7,34l0,3.7C7,37.9,7.1,38,7.3,38l3.7,0
	c0.1,0,0.2-0.1,0.2-0.2l0-3.7c0-0.1-0.1-0.2-0.2-0.2L7.3,33.8z M7.5,34.3l3.2,0l0,3.3l-3.3,0L7.5,34.3z"/>
<path fill-rule="evenodd" clip-rule="evenodd" fill="#FFFFFF" d="M18.4,30.2H11v3.7l3.7,0v3.6h3.7V30.2z"/>
<path fill-rule="evenodd" clip-rule="evenodd" d="M14.5,34.1l0,3.4c0,0.1,0.1,0.2,0.2,0.2l3.7,0c0.1,0,0.2-0.1,0.2-0.2l0-7.3
	c0-0.1-0.1-0.2-0.2-0.2l-3.7,0L11,30c-0.1,0-0.2,0.1-0.2,0.2l0,3.7c0,0.1,0,0.1,0.1,0.2c0,0,0.1,0.1,0.2,0.1L14.5,34.1z M14.9,33.9
	L14.9,33.9l0,3.3l3.3,0l0-6.8l-3.5,0l-3.5,0l0,3.3l3.5,0C14.7,33.7,14.9,33.7,14.9,33.9C14.9,33.9,14.9,33.9,14.9,33.9z"/>
<path fill="#FFFFFF" d="M33.1,37.6v-3.7h-7.3v3.7H33.1z"/>
<path fill-rule="evenodd" clip-rule="evenodd" d="M33.1,37.8c0.1,0,0.2-0.1,0.2-0.2l0-3.7c0-0.1-0.1-0.2-0.2-0.2l-7.3,0
	c-0.1,0-0.2,0.1-0.2,0.2l0,3.7c0,0.1,0.1,0.2,0.2,0.2L33.1,37.8z M32.8,37.3l-6.8,0l0-3.3l6.8,0L32.8,37.3z"/>
<path fill="#FFFFFF" d="M25.8,52.6v3.7h3.7v-3.7H25.8z"/>
<path fill-rule="evenodd" clip-rule="evenodd" d="M25.8,52.3c-0.1,0-0.2,0.1-0.2,0.2l0,3.7c0,0.1,0.1,0.2,0.2,0.2l3.7,0
	c0.1,0,0.2-0.1,0.2-0.2l0-3.7c0-0.1-0.1-0.2-0.2-0.2L25.8,52.3z M26,52.8l3.2,0l0,3.3L26,56L26,52.8z"/>
<path fill="#FFFFFF" d="M49,41.5v3.7h3.7v-3.7H49z"/>
<path fill-rule="evenodd" clip-rule="evenodd" d="M49,41.2c-0.1,0-0.2,0.1-0.2,0.2l0,3.7c0,0.1,0.1,0.2,0.2,0.2l3.7,0
	c0.1,0,0.2-0.1,0.2-0.2l0-3.7c0-0.1-0.1-0.2-0.2-0.2L49,41.2z M49.2,41.7l3.2,0l0,3.3l-3.3,0L49.2,41.7z"/>
<path fill="#FFFFFF" d="M33.1,30.1v3.7h3.7v-3.7H33.1z"/>
<path fill-rule="evenodd" clip-rule="evenodd" d="M33.1,29.9c-0.1,0-0.2,0.1-0.2,0.2l0,3.7c0,0.1,0.1,0.2,0.2,0.2l3.7,0
	c0.1,0,0.2-0.1,0.2-0.2l0-3.7c0-0.1-0.1-0.2-0.2-0.2L33.1,29.9z M33.3,30.4l3.2,0l0,3.3l-3.3,0L33.3,30.4z"/>
<path fill="#FFFFFF" d="M49,52.6v3.7h3.7v-3.7H49z"/>
<path fill-rule="evenodd" clip-rule="evenodd" d="M49,52.3c-0.1,0-0.2,0.1-0.2,0.2l0,3.7c0,0.1,0.1,0.2,0.2,0.2l3.7,0
	c0.1,0,0.2-0.1,0.2-0.2l0-3.7c0-0.1-0.1-0.2-0.2-0.2L49,52.3z M49.2,52.8l3.2,0l0,3.3l-3.3,0L49.2,52.8z"/>
<path fill="#FFFFFF" d="M45.3,48.8v3.7H49v-3.7H45.3z"/>
<path fill-rule="evenodd" clip-rule="evenodd" d="M45.3,48.6c-0.1,0-0.2,0.1-0.2,0.2l0,3.7c0,0.1,0.1,0.2,0.2,0.2l3.7,0
	c0.1,0,0.2-0.1,0.2-0.2l0-3.7c0-0.1-0.1-0.2-0.2-0.2L45.3,48.6z M45.5,49.1l3.2,0l0,3.3l-3.3,0L45.5,49.1z"/>
<path fill="#FFFFFF" d="M22.1,30.1v3.7h3.7v-3.7H22.1z"/>
<path fill-rule="evenodd" clip-rule="evenodd" d="M22.1,29.9c-0.1,0-0.2,0.1-0.2,0.2l0,3.7c0,0.1,0.1,0.2,0.2,0.2l3.7,0
	c0.1,0,0.2-0.1,0.2-0.2l0-3.7c0-0.1-0.1-0.2-0.2-0.2L22.1,29.9z M22.3,30.4l3.2,0l0,3.3l-3.3,0L22.3,30.4z"/>
</svg>
