<svg width="384" height="190" viewBox="0 0 384 190" fill="none" xmlns="http://www.w3.org/2000/svg">
<g clip-path="url(#clip0_5031_16906)">
<path d="M368 2.40448e-08L15.9999 1.04542e-09C7.16338 4.68053e-10 -6.10356e-05 7.16344 -6.10362e-05 16L-6.10465e-05 174C-6.10471e-05 182.837 7.16338 190 15.9999 190L368 190C376.836 190 384 182.837 384 174L384 16C384 7.16344 376.836 2.46221e-08 368 2.40448e-08Z" fill="url(#paint0_radial_5031_16906)"/>
<path d="M213.224 192.399C213.224 192.399 121.547 113.19 102.636 95.9533C96.8807 101.699 82.492 106.624 82.492 106.624L117.025 268.734L107.158 270.376L75.6429 107.576C75.6429 107.576 60.4009 108.993 47.1368 101.863C42.2035 109.661 -24.3928 190.899 -24.3928 190.899L-51.7501 160.723L32.3114 89.1795C32.3114 89.1795 22.1004 81.221 22.1004 59.936C6.30569 55.914 -41.6623 44.6525 -41.6623 44.6525L-36.3179 27.4154L24.2957 41.3282C25.5865 33.7275 30.1088 28.1952 30.1088 28.1952C24.9041 23.533 -13.2959 -15.2668 -13.2959 -15.2668L-5.48489 -16.4981L35.5436 22.548C35.5436 22.548 42.8202 13.7981 54.3559 9.66945C51.8892 -0.59071 47.1368 -16.9085 47.1368 -16.9085L66.8699 -20.1917C66.8699 -20.1917 69.5668 -0.730247 71.6223 9.1195C81.9 8.7091 93.5919 15.5136 93.5919 15.5136L121.547 -18.1397L132.236 -17.3189C132.236 -17.3189 108.976 14.3809 103.631 20.9474C113.358 28.7451 116.186 43.8317 116.186 43.8317L389.589 41.7796L390 68.8664L116.614 72.9705C116.614 72.9705 113.736 81.589 111.269 85.2827C131.825 102.93 224.324 183.78 224.324 183.78L213.224 192.399Z" fill="url(#paint1_radial_5031_16906)"/>
<path d="M363.823 65.635C358.956 65.563 347.208 65.1747 339.152 64.1965C323.724 35.1386 295.098 41.5759 277.692 51.5735C274.239 50.135 271.075 52.0051 270.787 57.0399C261.868 64.664 229.609 93.7579 247.807 134.899C233.781 138.064 211.556 143.674 206.377 144.537C201.199 145.4 203.429 153.312 206.377 153.312H209.758C208.367 155.062 205.155 159.153 203.429 161.512C201.271 164.461 193.791 169.424 197.89 170.071C201.99 170.718 268.269 179.349 272.729 180.069C277.188 180.788 277.979 180.14 280.065 177.623C281.734 175.609 289.224 165.827 292.76 161.188C296.356 160.277 307.16 157.376 321.602 153.06C318.61 157.894 309.663 167.062 305.563 171.042L306.929 173.559C308.104 173.511 310.972 173.444 313.043 173.559C315.345 171.315 324.264 161.476 328.435 156.837C332.535 158.731 341.698 162.778 345.553 163.813C350.372 165.108 352.314 162.734 350.301 160.073C348.287 157.412 344.511 152.773 339.692 147.594C342.281 144.933 341.346 142.415 339.152 140.977C350.229 129.469 365.105 87.824 371.159 68.4401C371.495 67.0255 371.519 63.8368 368.929 62.3983C366.34 60.9598 364.446 63.9567 363.823 65.635Z" fill="white"/>
<path d="M262.072 144.807C241.375 140.081 232.387 104.218 255.261 73.6483C274.016 48.5763 301.099 34.9978 324.429 48.0444C344.094 59.0369 350.302 84.8233 329.606 118.003C320.598 132.443 305.479 143.626 298.618 144.923" stroke="black" stroke-width="1.3" stroke-linecap="round" stroke-linejoin="round"/>
<path d="M212.2 146.507C217.879 147.105 281.08 156.316 281.08 156.316C281.08 156.316 332.434 141.747 336.51 140.997C340.788 140.213 342.741 146.814 337.225 148.379C331.632 149.967 284.464 163.736 284.464 163.736" stroke="black" stroke-width="1.3" stroke-linecap="round" stroke-linejoin="round"/>
<path d="M279.384 164.291C279.384 164.291 209.563 152.968 206.284 152.487C203.009 152.005 202.048 146.08 207.019 144.713C211.994 143.347 243.822 136.008 243.822 136.008" stroke="black" stroke-width="1.3" stroke-linecap="round" stroke-linejoin="round"/>
<path d="M339.796 141.137C356.556 115.211 368.011 82.1868 371.181 68.6393C372.017 65.0709 370.072 62.4616 368.836 62.1549C366.475 61.5647 365.218 63.0829 364.079 66.7755C360.302 79.03 352.414 109.231 331.99 139.285" stroke="black" stroke-width="1.3" stroke-linecap="round" stroke-linejoin="round"/>
<path d="M364.223 65.4166C357.832 65.4243 349.8 65.269 343.927 64.4109" stroke="black" stroke-width="1.3" stroke-linecap="round" stroke-linejoin="round"/>
<path d="M277.696 51.4653C275.428 50.4285 272.569 50.9683 271.13 54.0357" stroke="black" stroke-width="1.3" stroke-linecap="round" stroke-linejoin="round"/>
<path d="M339.617 147.47C339.617 147.47 349.497 159.018 350.726 160.971C351.951 162.924 351.021 163.487 349.298 163.654C347.575 163.817 346.183 163.786 344.261 163.223C342.336 162.66 328.046 156.634 328.046 156.634" stroke="black" stroke-width="1.3" stroke-linecap="round" stroke-linejoin="round"/>
<path d="M331.418 152.65C331.418 152.65 320.329 166.885 313.367 173.268" stroke="black" stroke-width="1.3" stroke-linecap="round" stroke-linejoin="round"/>
<path d="M210.212 152.984L202.145 163.153" stroke="black" stroke-width="1.3" stroke-linecap="round" stroke-linejoin="round"/>
<path d="M291.943 61.4736C295.449 61.4099 298.048 61.8466 300.654 62.0332C308.143 62.5695 314.733 69.2701 311.272 80.5752C306.828 95.0872 300.277 103.267 288.642 102.84C283.987 102.669 278.332 102.118 278.332 102.118L276.223 107.172L291.057 109.116L288.865 115.625L273.329 113.67L269.085 124.542L261.445 123.266L266.354 112.799L261.65 112.278L264.2 105.921L268.867 106.267L288.307 61.5396" stroke="black" stroke-width="1.3" stroke-linecap="round" stroke-linejoin="round"/>
<path d="M288.916 97.3465C293.924 97.2555 299.165 91.762 302.9 81.6804C307.05 70.4801 303.724 68.496 300.851 67.228C298.475 66.1796 294.499 66.3437 294.499 66.3437L280.638 97.0343C280.638 97.0343 283.325 97.4481 285.318 97.4119" stroke="black" stroke-width="1.3" stroke-linecap="round" stroke-linejoin="round"/>
<path d="M338.364 143.55C338.16 143.262 337.424 142.512 335.222 143.389C333.021 144.267 285.875 157.57 285.875 157.57" stroke="black" stroke-width="0.8" stroke-linecap="round" stroke-linejoin="round"/>
<path d="M265.261 157.018L207.042 147.901" stroke="black" stroke-width="0.8" stroke-linecap="round" stroke-linejoin="round"/>
<path d="M244.763 140.396L215.879 146.818" stroke="black" stroke-width="0.8" stroke-linecap="round" stroke-linejoin="round"/>
<path d="M336.016 137.612C346.432 122.771 360.636 93.0746 366.272 67.0824C366.91 64.1391 368.952 64.5507 368.952 64.5507" stroke="black" stroke-width="0.8" stroke-linecap="round" stroke-linejoin="round"/>
<path d="M319.656 161.464C319.656 161.464 313.145 168.353 309.858 171.517C308.283 171.377 306.735 171.439 305.463 171.144C308.847 167.786 314.674 161.934 319.851 155.725" stroke="black" stroke-width="0.8" stroke-linecap="round" stroke-linejoin="round"/>
<path d="M342.328 158.657C342.328 158.657 338.019 153.054 335.094 149.482" stroke="black" stroke-width="0.8" stroke-linecap="round" stroke-linejoin="round"/>
<path d="M339.388 154.821C339.388 154.821 336.802 153.761 335.631 153.163" stroke="black" stroke-width="0.8" stroke-linecap="round" stroke-linejoin="round"/>
<path d="M292.678 161.942C292.678 161.942 282.239 174.853 279.329 178.813C278.54 179.893 276.848 180.312 275.039 180.129C264.522 179.066 216.509 172.659 216.509 172.659" stroke="black" stroke-width="0.8" stroke-linecap="round" stroke-linejoin="round"/>
<path d="M279.26 167.797L273.659 174.072L251.741 171.424" stroke="black" stroke-width="0.8" stroke-linecap="round" stroke-linejoin="round"/>
<path d="M274.04 176.503C274.04 176.503 276.187 176.639 277.353 175.319C279.574 172.806 284.728 166.116 284.728 166.116" stroke="black" stroke-width="0.8" stroke-linecap="round" stroke-linejoin="round"/>
<path d="M209.104 161.759L215.07 153.873L220.387 154.72L216.933 159.22" stroke="black" stroke-width="0.8" stroke-linecap="round" stroke-linejoin="round"/>
<path d="M314.786 142.531C294.137 149.785 274.012 151.543 252.993 149.113" stroke="black" stroke-width="0.8" stroke-linecap="round" stroke-linejoin="round"/>
<path d="M272.472 149.835C272.472 149.835 259.979 148.724 246.976 142.019" stroke="black" stroke-width="0.8" stroke-linecap="round" stroke-linejoin="round"/>
<path d="M324.079 50.2848C333.659 56.1907 341.465 76.0363 326.058 104.902C311.873 131.477 289.326 145.14 270.325 145.509" stroke="black" stroke-width="0.8" stroke-linecap="round" stroke-linejoin="round"/>
<path d="M312.107 107.395C327.956 88.1588 331.045 51.9157 306.37 52.5719" stroke="black" stroke-width="0.8" stroke-linecap="round" stroke-linejoin="round"/>
<path d="M264.199 134.789C258.481 132.486 253.903 128.638 251.574 116.892" stroke="black" stroke-width="0.8" stroke-linecap="round" stroke-linejoin="round"/>
<path d="M250.998 108.967C251.294 100.398 254.129 93.0357 254.129 93.0357" stroke="black" stroke-width="0.8" stroke-linecap="round" stroke-linejoin="round"/>
<path d="M337.494 101.046C337.494 101.046 334.526 97.8272 331.041 94.5423" stroke="black" stroke-width="0.8" stroke-linecap="round" stroke-linejoin="round"/>
<path d="M332.527 89.5178C332.527 89.5178 334.783 91.9679 336.525 93.7074" stroke="black" stroke-width="0.8" stroke-linecap="round" stroke-linejoin="round"/>
<path d="M334.009 84.6254L336.397 87.2657" stroke="black" stroke-width="0.8" stroke-linecap="round" stroke-linejoin="round"/>
<path d="M334.592 79.5387L336.268 81.0841" stroke="black" stroke-width="0.8" stroke-linecap="round" stroke-linejoin="round"/>
<path d="M335.564 105.888L331.041 101.702" stroke="black" stroke-width="0.8" stroke-linecap="round" stroke-linejoin="round"/>
<path d="M333.581 110.365L330.057 107.189" stroke="black" stroke-width="0.8" stroke-linecap="round" stroke-linejoin="round"/>
<path d="M331.142 114.679L329.38 113.091" stroke="black" stroke-width="0.8" stroke-linecap="round" stroke-linejoin="round"/>
</g>
<defs>
<radialGradient id="paint0_radial_5031_16906" cx="0" cy="0" r="1" gradientUnits="userSpaceOnUse" gradientTransform="translate(60.0107 53.5955) rotate(24.8125) scale(240.21 280.951)">
<stop stop-color="#58DA8C"/>
<stop offset="1" stop-color="#3CC472"/>
</radialGradient>
<radialGradient id="paint1_radial_5031_16906" cx="0" cy="0" r="1" gradientUnits="userSpaceOnUse" gradientTransform="translate(52.9889 39.6021) rotate(0.658818) scale(252.028 365.858)">
<stop stop-color="#6AE97E"/>
<stop offset="1" stop-color="#3CC372"/>
</radialGradient>
<clipPath id="clip0_5031_16906">
<rect x="-6.10352e-05" width="384" height="190" rx="16" fill="white"/>
</clipPath>
</defs>
</svg>
