<svg width="281" height="376" viewBox="0 0 281 376" fill="none" xmlns="http://www.w3.org/2000/svg">
<g clip-path="url(#clip0_5050_16739)">
<path d="M280.038 0H0.0380859V376H280.038V0Z" fill="url(#paint0_linear_5050_16739)"/>
<path opacity="0.5" d="M139.258 216.08L138.758 164.13L57.7783 164.35V142.74L158.968 142.95L158.748 127.96H57.7783V106.06H158.338L157.088 48.1001H199.308C199.928 48.0901 200.588 48.0801 201.248 48.0801C237.328 48.0801 253.968 68.3801 254.168 87.2501C254.368 106.32 237.788 127.19 200.918 127.97H188.288L188.208 143.25L224.598 143.64V163.47L188.058 163.86L187.888 216.09H139.258V216.08ZM200.688 106.05C212.298 105.76 224.808 99.8601 224.658 87.6001C224.508 75.4901 212.188 69.9701 200.808 69.9701C200.448 69.9701 200.088 69.9701 199.718 69.9801H188.708L188.448 106.04H200.688V106.05Z" fill="url(#paint1_linear_5050_16739)"/>
<path d="M257.918 251.4C257.678 249.68 255.808 248.54 255.038 248.54C255.218 243.03 253.208 238.23 249.348 235.72C248.928 234.32 245.928 230.62 225.658 219.08C225.588 219.04 225.518 219 225.438 218.96C207.988 204.67 176.438 193.24 175.768 192.95L143.758 160.81C132.028 149.03 105.728 141.66 55.8682 140.64C25.1182 140.01 -0.401757 141.18 -25.8418 143.84C-32.9418 144.58 -44.4218 151.25 -54.8018 162.2V261.84L9.66824 287.72C10.6482 306.11 17.3182 325.67 26.2782 326.78C30.0982 327.25 33.9382 327.49 37.7782 327.49C57.4282 327.49 59.9082 324.07 61.7282 322.25C64.7282 319.25 67.1782 314.66 69.0682 309.01C84.5082 311.9 101.008 312.17 124.538 311.58C148.078 311 167.528 309.89 186.528 308.17C187.158 309.14 187.828 309.98 188.518 310.66C189.588 311.73 190.188 313.52 203.348 313.52C220.828 313.52 223.028 310.48 224.658 308.86C226.108 307.41 227.428 305.55 228.618 303.35C243.848 300.99 256.778 296.65 257.928 284.26C259.098 271.5 259.608 263.3 257.918 251.4Z" fill="white"/>
<path d="M23.9081 248.22C19.7581 252.43 16.9981 265.45 17.1981 279.88C17.4481 297.78 22.1781 312.89 27.5281 312.89C28.4381 312.89 29.3381 312.44 30.2181 311.55C34.3681 307.34 37.1281 294.32 36.9281 279.89C36.8081 271.39 35.7081 263.31 33.8281 257.12C33.7481 256.86 33.8981 256.58 34.1581 256.5C34.4281 256.42 34.6981 256.57 34.7781 256.83C36.6881 263.1 37.7981 271.29 37.9181 279.88C38.1281 294.79 35.3081 307.8 30.9181 312.25C29.8481 313.34 28.6981 313.89 27.5081 313.89C21.4181 313.89 16.4381 298.96 16.1781 279.89C15.9681 264.98 18.7881 251.97 23.1781 247.52C24.2481 246.43 25.3981 245.88 26.5781 245.88C28.8681 245.88 31.0481 247.96 32.9081 251.89C33.0281 252.14 32.9181 252.44 32.6681 252.56C32.4181 252.68 32.1181 252.57 31.9981 252.32C29.5381 247.04 26.5981 245.5 23.9081 248.22ZM260.208 247.95C259.968 246.28 258.588 244.97 257.358 244.46C257.338 238.92 255.228 234.34 251.478 231.75C250.618 229.82 246.708 225.86 227.608 214.98C227.558 214.95 227.508 214.95 227.458 214.93C212.228 202.45 186.148 192 177.928 188.88C177.808 188.83 177.708 188.8 177.628 188.77L145.768 156.77C133.018 143.96 104.038 137.27 57.1881 136.31C27.9981 135.71 1.98807 136.73 -24.6419 139.52C-31.8319 140.27 -42.4619 146.59 -51.7219 155.62C-52.1219 156.01 -52.1219 156.64 -51.7419 157.03C-51.3519 157.43 -50.7219 157.43 -50.3319 157.05C-41.3719 148.31 -31.2119 142.21 -24.4419 141.5C2.10807 138.73 28.0381 137.71 57.1381 138.31C103.448 139.26 131.968 145.76 144.338 158.18L176.348 190.32C176.438 190.41 176.548 190.48 176.658 190.53C176.708 190.55 176.888 190.62 177.198 190.74C186.128 194.13 216.358 206.25 230.158 220.05C234.468 224.36 236.818 228.52 237.328 232.77C237.388 233.28 237.818 233.65 238.318 233.65C238.358 233.65 238.398 233.65 238.438 233.64C238.988 233.57 239.378 233.07 239.308 232.53C238.828 228.54 236.918 224.67 233.528 220.76C247.178 228.94 249.398 231.79 249.668 232.69C249.738 232.92 249.878 233.11 250.078 233.24C253.578 235.52 255.488 239.88 255.318 245.19C255.308 245.4 255.398 245.59 255.518 245.76C254.518 247.57 250.818 252.42 239.478 253.99C239.678 242.97 243.468 239.58 246.818 236.59C247.158 236.28 247.498 235.98 247.818 235.68C248.018 235.49 248.028 235.18 247.848 234.97C247.658 234.77 247.348 234.76 247.138 234.94C246.818 235.24 246.488 235.54 246.148 235.84C242.758 238.87 238.548 242.63 238.468 254.55C238.468 254.69 238.528 254.83 238.638 254.93C238.728 255.01 238.848 255.06 238.968 255.06C238.988 255.06 239.008 255.06 239.028 255.06C251.288 253.52 255.268 248.34 256.398 246.25C256.848 246.37 258.038 247.12 258.198 248.23C259.898 260.19 259.328 268.53 258.188 280.85C257.478 288.52 252.958 296.12 224.898 299.72C189.628 304.26 161.838 306.37 125.778 307.26C102.308 307.84 85.9281 307.56 70.7781 304.76L70.7681 304.75C70.7381 304.74 70.7181 304.75 70.6881 304.74C62.0781 303.14 53.8481 300.73 44.9381 297.2C44.8281 297.16 44.7081 297.14 44.5981 297.14C47.5181 271.34 42.9881 244.37 34.0581 234.39C31.9081 231.99 29.6381 230.77 27.2881 230.77H27.2781C17.7281 230.79 9.60807 250.95 9.17807 275.71C9.17807 275.99 9.38807 276.21 9.66807 276.22C9.98807 276.24 10.1681 276.01 10.1781 275.73C10.5881 251.92 18.4281 231.79 27.2781 231.78H27.2881C29.3381 231.78 31.3581 232.88 33.3081 235.06C40.7581 243.39 46.8981 267.96 43.5981 297.08C43.5781 297.26 43.3181 298.72 44.1981 299.07C52.8281 302.5 60.8081 304.87 69.0981 306.49C67.2881 311.51 64.9481 315.56 62.2781 318.23L62.0381 318.48C60.3181 320.24 57.4381 323.18 39.0381 323.18C36.1181 323.18 33.1781 323.04 30.2581 322.76C33.9481 321.04 37.2381 315.74 39.5281 307.65C39.6081 307.38 39.4481 307.11 39.1881 307.03C38.9181 306.95 38.6481 307.11 38.5681 307.37C35.8681 316.89 31.8781 322.35 27.6081 322.36H27.5981C27.3181 322.36 27.0381 322.32 26.7681 322.27C18.9381 320.01 12.8281 301.29 11.9381 284.34C11.9381 284.29 11.9081 284.25 11.8981 284.2C11.8781 284.13 11.8681 284.05 11.8381 283.98C11.8081 283.92 11.7581 283.86 11.7181 283.81C11.6881 283.76 11.6581 283.72 11.6181 283.68C11.5281 283.59 11.4281 283.53 11.3081 283.48C11.3081 283.48 11.3081 283.48 11.2981 283.48C11.2781 283.47 11.2581 283.46 11.2381 283.45L-51.1919 258.36C-51.7119 258.15 -52.2919 258.4 -52.4919 258.91C-52.7019 259.42 -52.4519 260.01 -51.9419 260.21L10.0181 285.09C11.1281 303.63 17.8881 323.26 27.4581 324.45C31.2881 324.92 35.1981 325.17 39.0781 325.17C58.3181 325.17 61.5681 321.85 63.5081 319.87L63.7381 319.64C66.6681 316.71 69.2081 312.3 71.1281 306.86C82.1181 308.83 93.7781 309.52 108.278 309.52C113.708 309.52 119.528 309.43 125.868 309.27C162.008 308.38 189.858 306.26 225.198 301.71C242.608 299.47 258.898 295.42 260.218 281.04C261.358 268.56 261.928 260.12 260.208 247.95ZM226.398 303.56C226.028 304.02 225.638 304.44 225.248 304.83L225.028 305.05C223.608 306.5 220.968 309.2 204.648 309.2C201.708 309.2 199.208 309.11 197.208 308.92C196.668 308.87 196.168 309.27 196.118 309.83C196.068 310.38 196.468 310.87 197.028 310.92C199.078 311.11 201.648 311.2 204.648 311.2C221.818 311.2 224.718 308.23 226.458 306.45L226.658 306.25C227.088 305.82 227.528 305.34 227.938 304.83C228.288 304.4 228.228 303.77 227.798 303.42C227.378 303.07 226.748 303.14 226.398 303.56ZM38.7281 203.88C38.4581 203.8 38.1881 203.95 38.1081 204.21C38.0281 204.47 38.1781 204.75 38.4381 204.83C59.2981 211.16 84.0681 223.45 92.3881 236.65C92.4781 236.8 92.6481 236.88 92.8081 236.88C92.8981 236.88 92.9881 236.86 93.0781 236.8C93.3081 236.65 93.3781 236.34 93.2381 236.11C84.7781 222.71 59.7681 210.26 38.7281 203.88ZM-19.0119 145.21L-22.4619 144.59C-24.3819 144.25 -26.2919 144.44 -27.9719 145.14C-28.4119 145.33 -28.8619 145.52 -29.3019 145.71C-30.4319 146.21 -31.5619 146.77 -32.6519 147.35C-39.7819 151.13 -46.2619 156.53 -51.4119 162.96C-51.5819 163.18 -51.5519 163.49 -51.3319 163.66C-51.2419 163.73 -51.1319 163.77 -51.0219 163.77C-50.8719 163.77 -50.7319 163.71 -50.6319 163.58C-45.5719 157.26 -39.1919 151.95 -32.1819 148.23C-31.1019 147.66 -29.9919 147.12 -28.8919 146.62C-28.4619 146.43 -28.0219 146.24 -27.5919 146.06C-26.0819 145.43 -24.3719 145.26 -22.6419 145.57L-19.1919 146.19C-18.9219 146.24 -18.6619 146.06 -18.6119 145.79C-18.5619 145.52 -18.7419 145.26 -19.0119 145.21ZM82.2681 293.65C91.4081 294.72 101.268 295.09 112.398 295.09C117.838 295.09 123.598 295 129.718 294.86C165.828 294.03 193.668 292.08 228.988 287.89C236.558 286.99 241.968 286.01 246.518 284.71C246.788 284.63 246.938 284.36 246.858 284.09C246.778 283.82 246.508 283.67 246.238 283.75C241.738 285.04 236.378 286.01 228.868 286.9C193.578 291.09 165.768 293.04 129.688 293.86C111.098 294.29 95.9381 294.24 82.3781 292.65C82.0981 292.62 81.8581 292.81 81.8181 293.09C81.7981 293.37 81.9881 293.62 82.2681 293.65ZM171.098 260.81C171.278 260.81 171.458 260.81 171.638 260.8C173.028 260.75 205.938 259.63 234.178 255.83C234.448 255.79 234.648 255.54 234.608 255.27C234.568 255 234.308 254.79 234.048 254.84C205.858 258.63 172.988 259.75 171.608 259.8C166.788 259.97 164.408 257.83 162.128 255.77C161.328 255.05 160.578 254.37 159.748 253.82C159.518 253.67 159.208 253.73 159.058 253.96C158.908 254.19 158.968 254.5 159.198 254.65C159.968 255.16 160.698 255.82 161.468 256.51C163.688 258.54 166.208 260.81 171.098 260.81ZM48.3381 254.32C61.1381 258.09 72.9381 260.22 86.5981 261.23C86.6081 261.23 86.6281 261.23 86.6381 261.23C86.8981 261.23 87.1181 261.03 87.1381 260.77C87.1581 260.49 86.9481 260.25 86.6781 260.23C73.0981 259.23 61.3581 257.11 48.6281 253.36C48.3581 253.28 48.0881 253.43 48.0081 253.7C47.9281 253.97 48.0781 254.24 48.3381 254.32ZM18.1381 150.15C37.9181 150.52 87.8181 151.35 123.928 151.04C124.208 151.04 124.428 150.81 124.428 150.54C124.428 150.27 124.198 150.04 123.928 150.04C87.8381 150.36 37.9381 149.53 18.1681 149.15C16.4581 149.14 15.3681 149.47 14.7681 150.27C14.1781 151.06 14.1281 152.23 14.6181 153.85L26.8681 194.09C27.6881 196.79 30.1381 198.71 32.9581 198.87C41.5981 199.35 54.8281 199.6 69.9381 199.6C83.7881 199.6 99.2381 199.4 114.188 198.98C135.168 198.4 170.818 196.98 173.918 193.97C174.118 193.78 174.118 193.46 173.928 193.26C173.738 193.06 173.418 193.06 173.218 193.25C168.618 197.73 67.5381 199.8 33.0181 197.87C30.6181 197.74 28.5281 196.1 27.8281 193.8L15.5781 153.56C15.1881 152.28 15.1881 151.38 15.5681 150.87C15.9381 150.36 16.7781 150.13 18.1381 150.15ZM236.098 236.8C234.918 238.05 232.268 238.28 228.248 238.64C200.678 241.08 178.148 242.46 152.888 243.24C152.608 243.25 152.398 243.48 152.408 243.76C152.418 244.03 152.638 244.24 152.908 244.24C152.908 244.24 152.918 244.24 152.928 244.24C178.208 243.46 200.758 242.08 228.348 239.64C232.598 239.26 235.408 239.02 236.838 237.49C237.028 237.29 237.018 236.97 236.818 236.78C236.618 236.59 236.288 236.6 236.098 236.8ZM92.1581 250.33C92.1581 247.42 93.2681 244.83 95.2781 243.04C98.8581 239.85 104.938 240.72 109.828 241.42C110.348 241.5 110.868 241.57 111.368 241.64L143.378 245.95C145.938 246.29 148.258 247.34 150.088 248.97C151.168 249.94 152.108 251.01 152.878 252.15C154.288 254.24 155.128 256.56 155.378 259.05C155.438 259.59 155.258 260.14 154.898 260.56C154.538 260.98 154.018 261.22 153.468 261.24C151.508 261.31 149.618 261.37 147.768 261.42L144.048 261.53C129.408 261.94 118.628 262.02 112.158 262.02C106.148 262.01 92.1581 260.88 92.1581 250.33ZM93.1581 250.33C93.1581 254.32 95.6281 261.01 112.168 261.01C118.628 261.01 129.408 260.92 144.028 260.52L147.738 260.41C149.578 260.35 151.478 260.29 153.428 260.23C153.698 260.22 153.958 260.1 154.138 259.89C154.318 259.68 154.408 259.41 154.378 259.14C154.138 256.81 153.358 254.65 152.048 252.7C151.328 251.63 150.448 250.62 149.428 249.71C147.748 248.21 145.618 247.25 143.248 246.93L111.238 242.62C110.738 242.55 110.218 242.48 109.688 242.4C107.538 242.09 105.138 241.75 102.858 241.75C100.188 241.75 97.6881 242.22 95.9381 243.78C94.1481 245.39 93.1581 247.72 93.1581 250.33ZM-0.361932 148.55L-14.6219 146.19C-14.8019 146.16 -14.9919 146.24 -15.1019 146.39C-15.1819 146.49 -22.6419 156.74 -25.6419 171.79C-25.6919 172.06 -25.5219 172.32 -25.2519 172.38C-24.9819 172.43 -24.7219 172.26 -24.6619 171.99C-21.9719 158.45 -15.6119 148.87 -14.4719 147.24L-0.521929 149.55C3.72807 150.31 7.14807 153.35 8.39807 157.48L20.4981 197.35L-8.44193 189.36C-8.70193 189.29 -8.98193 189.44 -9.06193 189.71C-9.14193 189.98 -8.98193 190.25 -8.71193 190.33L21.1081 198.56C21.1481 198.57 21.1981 198.58 21.2381 198.58C21.3681 198.58 21.4981 198.53 21.5981 198.43C21.7281 198.3 21.7681 198.11 21.7181 197.94L9.35807 157.2C7.98807 152.69 4.26807 149.38 -0.361932 148.55Z" fill="black"/>
</g>
<defs>
<linearGradient id="paint0_linear_5050_16739" x1="-23.9592" y1="352" x2="304.041" y2="24" gradientUnits="userSpaceOnUse">
<stop offset="0.00107473" stop-color="#4096FF"/>
<stop offset="1" stop-color="#527EFF"/>
</linearGradient>
<linearGradient id="paint1_linear_5050_16739" x1="57.7816" y1="132.072" x2="234.694" y2="132.072" gradientUnits="userSpaceOnUse">
<stop offset="0.199305" stop-color="#98F8FF" stop-opacity="0"/>
<stop offset="0.571224" stop-color="#98F8FF" stop-opacity="0.53"/>
<stop offset="0.805819" stop-color="#98F8FF"/>
</linearGradient>
<clipPath id="clip0_5050_16739">
<rect width="280" height="376" fill="white" transform="translate(0.0380859)"/>
</clipPath>
</defs>
</svg>
