<svg width="279" height="376" viewBox="0 0 279 376" fill="none" xmlns="http://www.w3.org/2000/svg">
<g clip-path="url(#clip0_5344_17032)">
<rect width="278.769" height="376" fill="#86DAFD"/>
<path d="M-5.09366 180.736C-5.09366 180.736 77.4413 108.009 81.8975 103.932C89.6672 106.352 92.214 99.3462 92.214 96.5468C102.786 86.4829 142.525 51.5854 149.657 44.9613C156.792 38.3373 165.707 37.0653 171.438 43.052C177.169 49.0357 258.814 135.774 264.29 141.761C269.765 147.747 269.895 154.498 262.889 160.74C255.883 166.979 205.954 211.688 201.88 216.782C195.767 211.941 190.162 219.073 192.201 224.933C181.629 233.722 18.0862 380.45 18.0862 380.45H-5.86035L-5.09366 180.736Z" fill="white"/>
<path d="M199.352 207.488L90.6909 88.0814L161.726 23.9792L272.387 141.062L199.352 207.488Z" fill="url(#paint0_linear_5344_17032)"/>
<path d="M5.2876 173.703C5.2876 173.703 77.9408 107.709 82.8376 103.597C89.6908 105.75 92.4344 99.6781 91.8469 95.9592C117.303 73.4374 143.938 48.5656 150.988 43.0842C158.038 37.5999 165.675 37.0124 172.922 44.2592C180.166 51.5031 261.828 137.672 266.138 143.741C270.447 149.812 267.703 157.45 261.828 161.759C255.953 166.066 201.903 216.003 201.903 216.003" stroke="black" stroke-width="3" stroke-linecap="round" stroke-linejoin="round"/>
<path d="M197.01 214.828C190.741 216.2 191.328 223.837 191.916 224.622C192.503 225.403 15.2324 381.051 15.2324 381.051" stroke="black" stroke-width="3" stroke-linecap="round" stroke-linejoin="round"/>
<path d="M98.5269 110.227C97.9864 110.682 186.837 209.2 186.866 209.506" stroke="black" stroke-width="5" stroke-linecap="round" stroke-linejoin="round" stroke-dasharray="1 20"/>
<path d="M40.561 312.859C44.7 289.112 48.1721 263.926 50.2842 241.266" stroke="black" stroke-width="1.5" stroke-linecap="round" stroke-linejoin="round"/>
<path d="M51.0771 231.584C51.3738 220.483 51.694 206.421 51.694 206.421C81.9767 216.206 114.571 221.314 145.362 222.833C137.243 228.966 115.861 248.28 115.887 247.778" stroke="black" stroke-width="1.5" stroke-linecap="round" stroke-linejoin="round"/>
<path d="M47.5786 308.021L95.78 264.017C95.78 264.017 75.2557 243.337 64.3723 227.322C90.3369 244.115 109.152 247.223 109.152 247.223" stroke="black" stroke-width="1.5" stroke-linecap="round" stroke-linejoin="round"/>
<path d="M51.1713 206.124L31.4695 184.24C26.2907 188.223 25.806 192.544 24.2374 201.451C22.3956 211.923 16.0094 209.126 16.7056 222.254C20.2424 216.479 23.5647 216.42 31.1875 210.228C35.5115 206.712 33.3906 202.226 38.5401 199.541" stroke="black" stroke-width="1.5" stroke-linecap="round" stroke-linejoin="round"/>
<path d="M44.2944 165.082L87.5638 126.721" stroke="black" stroke-width="1.5" stroke-linecap="round" stroke-linejoin="round"/>
<path d="M95.5542 138.365L70.2095 161.084" stroke="black" stroke-width="1.5" stroke-linecap="round" stroke-linejoin="round"/>
<path d="M177.181 162.426L176.782 74.7712" stroke="black" stroke-width="1.5" stroke-linecap="round" stroke-linejoin="round"/>
<path d="M134.47 116.666C138.55 129.782 157.435 133.313 159.85 120.314C162.405 106.552 138.033 93.8737 133.142 109.883" stroke="black" stroke-width="1.5" stroke-linecap="round" stroke-linejoin="round"/>
<path d="M196.143 121.098C200.931 132.185 216.147 136.015 220.862 126.968C226.434 116.275 214.852 106.487 205.669 106.355C197.708 106.241 192.721 113.176 196.143 121.098Z" stroke="black" stroke-width="1.5" stroke-linecap="round" stroke-linejoin="round"/>
</g>
<defs>
<linearGradient id="paint0_linear_5344_17032" x1="262.987" y1="220.559" x2="73.2388" y2="14.1534" gradientUnits="userSpaceOnUse">
<stop stop-color="#FF9080"/>
<stop offset="1" stop-color="#FF9080" stop-opacity="0"/>
<stop offset="1" stop-color="#FF9080" stop-opacity="0.654941"/>
</linearGradient>
<clipPath id="clip0_5344_17032">
<rect width="278.769" height="376" fill="white"/>
</clipPath>
</defs>
</svg>
