<svg width="280" height="376" viewBox="0 0 280 376" fill="none" xmlns="http://www.w3.org/2000/svg">
<path d="M280 0H0V376H280V0Z" fill="#8E93FC"/>
<path d="M210.62 76.14L244.37 81.8C245.99 154.24 244.84 199.19 238.78 266.59L199.96 276.05L57.46 262.99C66.58 223.47 71.85 182.86 73.15 141.95L69.35 142.03C69.89 125.19 69.76 108.33 68.95 91.45C68.81 88.63 70.94 86.22 73.75 86.01L210.62 76.14Z" fill="white"/>
<path d="M127.53 89.8099C127.32 79.3499 120.87 72.2799 113.78 72.2799C107.32 72.2799 100.36 78.2799 100.36 91.4699C100.36 102.66 103.97 108.94 111.08 110.15C113.35 110.67 114.17 113.01 114.17 115.02C114.17 119.73 110.67 120.11 109.65 119.96C97.6798 118.22 91.3398 108.67 91.3398 92.1999C91.3398 72.6199 102.81 63.6899 113.46 63.6899C125.26 63.6899 134.78 73.9899 135.41 89.3699L127.53 89.8099Z" fill="white"/>
<path d="M188.62 81.77C187.19 73.31 181.45 67.83 175.21 67.83C168.75 67.83 161.79 73.83 161.79 87.02C161.79 92.96 162.69 104.03 172.51 105.7C174.78 106.22 175.6 108.56 175.6 110.57C175.6 115.93 171.23 115.54 170.8 115.47C159.02 113.62 152.78 104.09 152.78 87.75C152.78 68.17 164.25 59.24 174.9 59.24C185.9 59.24 194.92 68.19 196.61 81.87L188.62 81.77Z" fill="white"/>
<path d="M196 181.57C195.2 194.99 194.11 208.45 192.73 221.89L155.13 220.08C153.63 234.81 152.12 244.7 150.19 258.3L69.6301 251.64L75.4701 216.28L109.63 217.99C110.33 212.45 112.11 198.8 113.59 180.22L196 181.57Z" fill="url(#paint0_linear_4812_16083)"/>
<path d="M72.91 279.38C97.01 279.38 121.11 284.94 121.11 293.42V305.63C121.11 314.1 97.01 319.67 72.91 319.67C48.81 319.67 24.71 314.11 24.71 305.63V293.42C24.71 284.95 48.81 279.38 72.91 279.38Z" fill="white"/>
<path d="M72.91 278.61C77.83 278.6 82.75 278.81 87.66 279.24C92.57 279.66 97.47 280.3 102.31 281.31C107.15 282.34 111.98 283.66 116.48 286.1C117.59 286.74 118.68 287.46 119.67 288.38C120.64 289.29 121.56 290.44 121.97 291.9L122.11 292.45L122.16 293.02C122.2 293.43 122.19 293.7 122.19 294.02V295.86V299.53V303.2V305.04C122.19 305.35 122.2 305.62 122.16 306.04L122.11 306.61L121.97 307.16C121.56 308.62 120.65 309.77 119.67 310.68C118.68 311.6 117.6 312.32 116.49 312.97C112 315.44 107.17 316.77 102.34 317.86C92.65 319.94 82.77 320.73 72.91 320.77C63.05 320.73 53.18 319.94 43.48 317.86C38.65 316.77 33.82 315.45 29.33 312.97C28.22 312.32 27.14 311.6 26.15 310.68C25.18 309.77 24.26 308.62 23.85 307.16L23.71 306.61L23.66 306.04C23.62 305.63 23.63 305.36 23.63 305.04V303.2V299.53V295.86V294.02C23.63 293.71 23.62 293.44 23.66 293.02L23.71 292.45L23.85 291.9C24.26 290.44 25.17 289.29 26.15 288.38C27.14 287.46 28.23 286.74 29.34 286.1C33.84 283.65 38.67 282.34 43.51 281.31C48.36 280.3 53.25 279.65 58.16 279.23C63.06 278.81 67.99 278.59 72.91 278.61ZM72.91 280.16C63.17 280.21 53.39 281.08 43.93 283.22C39.23 284.33 34.51 285.67 30.41 287.97C29.41 288.56 28.46 289.22 27.65 289.97C26.84 290.72 26.21 291.59 25.96 292.5C25.72 293.28 25.84 294.67 25.81 295.86V299.53V303.2C25.84 304.39 25.72 305.78 25.96 306.56C26.21 307.47 26.85 308.34 27.65 309.09C28.46 309.84 29.41 310.49 30.42 311.08C34.53 313.35 39.25 314.68 43.96 315.73C53.43 317.77 63.2 318.55 72.92 318.59C82.64 318.55 92.41 317.77 101.88 315.73C106.58 314.68 111.31 313.35 115.42 311.08C116.43 310.49 117.38 309.84 118.19 309.09C119 308.34 119.63 307.47 119.88 306.56C120.12 305.78 120 304.39 120.03 303.2V299.53V295.86C120 294.67 120.12 293.28 119.88 292.5C119.63 291.59 118.99 290.72 118.19 289.97C117.38 289.22 116.43 288.57 115.42 287.98C111.32 285.68 106.59 284.35 101.9 283.24C92.43 281.08 82.65 280.21 72.91 280.16Z" fill="black"/>
<path d="M30.07 291.34C29.83 292.32 30.15 293.14 30.75 293.9C31.35 294.66 32.17 295.34 33.07 295.91C34.87 297.07 36.94 297.91 39.01 298.65C43.21 300.07 47.59 300.99 52.01 301.66C56.43 302.35 60.89 302.77 65.36 303C69.8299 303.25 74.3199 303.3 78.7999 303.2C79.0499 303.19 79.2599 303.39 79.2699 303.65C79.2799 303.9 79.0799 304.11 78.8399 304.12C69.84 304.56 60.77 304.35 51.8 303.08C47.32 302.43 42.87 301.51 38.53 300.07C36.37 299.32 34.23 298.47 32.24 297.2C31.26 296.56 30.27 295.83 29.54 294.77C29.16 294.26 28.91 293.61 28.81 292.93C28.72 292.24 28.9 291.54 29.22 290.99C29.35 290.77 29.63 290.7 29.85 290.83C30.04 290.93 30.12 291.14 30.07 291.34Z" fill="black"/>
<path d="M93.69 259.58C69.59 259.58 45.49 265.14 45.49 273.62V285.83C45.49 294.3 69.59 299.87 93.69 299.87C117.79 299.87 141.89 294.31 141.89 285.83V273.62C141.88 265.14 117.79 259.58 93.69 259.58Z" fill="white"/>
<path d="M93.6901 260.36C83.9501 260.41 74.1701 261.29 64.7101 263.43C60.0101 264.54 55.2901 265.87 51.1901 268.17C50.1901 268.76 49.23 269.42 48.42 270.16C47.61 270.91 46.98 271.78 46.73 272.69C46.49 273.47 46.61 274.86 46.58 276.05V279.72V283.39C46.61 284.58 46.49 285.97 46.73 286.75C46.98 287.66 47.62 288.53 48.42 289.28C49.23 290.03 50.1801 290.68 51.1901 291.27C55.3001 293.54 60.02 294.87 64.73 295.92C74.2001 297.96 83.9701 298.74 93.6901 298.78C103.41 298.74 113.18 297.96 122.65 295.92C127.35 294.87 132.08 293.54 136.19 291.27C137.2 290.68 138.15 290.03 138.96 289.28C139.77 288.53 140.4 287.66 140.65 286.75C140.89 285.97 140.77 284.58 140.8 283.39V279.72V276.05C140.77 274.86 140.89 273.47 140.65 272.69C140.4 271.78 139.76 270.91 138.96 270.16C138.15 269.41 137.2 268.75 136.2 268.16C132.1 265.86 127.37 264.52 122.68 263.41C113.21 261.28 103.43 260.41 93.6901 260.36ZM93.6901 258.8C98.6101 258.79 103.53 259 108.44 259.43C113.35 259.85 118.24 260.5 123.09 261.51C127.93 262.54 132.76 263.85 137.26 266.3C138.37 266.94 139.46 267.66 140.45 268.58C141.42 269.49 142.34 270.64 142.75 272.1L142.89 272.65L142.94 273.22C142.98 273.63 142.97 273.9 142.97 274.22V276.06V279.73V283.4V285.24C142.97 285.55 142.98 285.82 142.94 286.24L142.89 286.81L142.75 287.36C142.34 288.82 141.43 289.97 140.45 290.88C139.46 291.8 138.38 292.52 137.27 293.17C132.78 295.64 127.95 296.97 123.12 298.06C113.43 300.14 103.55 300.93 93.6901 300.97C83.8301 300.93 73.9601 300.14 64.2601 298.06C59.4301 296.97 54.6 295.65 50.11 293.17C49 292.52 47.92 291.8 46.93 290.88C45.96 289.97 45.04 288.82 44.63 287.36L44.4901 286.81L44.4401 286.24C44.4001 285.83 44.41 285.56 44.41 285.24V283.4V279.73V276.06V274.22C44.41 273.91 44.4001 273.64 44.4401 273.22L44.4901 272.65L44.63 272.1C45.04 270.64 45.95 269.49 46.93 268.58C47.92 267.66 49 266.94 50.12 266.3C54.62 263.86 59.4501 262.53 64.2901 261.51C69.1401 260.5 74.0301 259.86 78.9401 259.44C83.8401 259 88.7601 258.79 93.6901 258.8Z" fill="black"/>
<path d="M137.37 271.18C137.72 271.79 137.8 272.56 137.71 273.3C137.54 274.01 137.24 274.69 136.81 275.22C135.97 276.32 134.89 277.08 133.79 277.75C131.57 279.05 129.19 279.89 126.81 280.65C122.03 282.11 117.12 282.96 112.2 283.57C107.28 284.17 102.32 284.47 97.3701 284.55C92.4201 284.63 87.4701 284.41 82.5401 284.05C82.2901 284.03 82.1001 283.81 82.1201 283.56C82.1401 283.31 82.3601 283.12 82.6001 283.14C87.5101 283.4 92.4301 283.48 97.3501 283.34C102.26 283.22 107.17 282.88 112.03 282.25C116.89 281.61 121.73 280.73 126.38 279.28C128.69 278.53 130.99 277.69 133.02 276.47C134.04 275.88 135.01 275.2 135.72 274.37C136.45 273.55 136.85 272.58 136.51 271.54C136.43 271.3 136.57 271.04 136.81 270.96C137.02 270.89 137.24 270.98 137.35 271.17L137.37 271.18Z" fill="black"/>
<path d="M76.5301 239.1C52.4301 239.1 28.3301 244.66 28.3301 253.14V265.35C28.3301 273.82 52.4301 279.39 76.5301 279.39C100.63 279.39 124.73 273.83 124.73 265.35V253.14C124.73 244.66 100.63 239.1 76.5301 239.1Z" fill="white"/>
<path d="M76.5301 239.87C66.7901 239.92 57.0101 240.8 47.5501 242.94C42.8501 244.05 38.1301 245.38 34.0301 247.68C33.0301 248.27 32.0701 248.93 31.2601 249.67C30.4501 250.42 29.8201 251.29 29.5701 252.2C29.3301 252.98 29.4501 254.37 29.4201 255.56V259.23V262.9C29.4501 264.09 29.3301 265.48 29.5701 266.26C29.8201 267.17 30.4601 268.04 31.2601 268.79C32.0701 269.54 33.0201 270.19 34.0301 270.78C38.1401 273.05 42.8601 274.38 47.5701 275.43C57.0401 277.47 66.8101 278.25 76.5301 278.29C86.2501 278.25 96.0202 277.47 105.49 275.43C110.19 274.38 114.92 273.05 119.03 270.78C120.04 270.19 120.99 269.54 121.8 268.79C122.61 268.04 123.24 267.17 123.49 266.26C123.73 265.48 123.61 264.09 123.64 262.9V259.23V255.56C123.61 254.37 123.73 252.98 123.49 252.2C123.24 251.29 122.6 250.42 121.8 249.67C120.99 248.92 120.04 248.26 119.04 247.67C114.94 245.37 110.21 244.03 105.52 242.92C96.0501 240.79 86.2701 239.92 76.5301 239.87ZM76.5301 238.32C81.4501 238.31 86.3701 238.52 91.2801 238.95C96.1901 239.37 101.08 240.02 105.93 241.03C110.77 242.06 115.6 243.37 120.1 245.82C121.21 246.46 122.3 247.18 123.29 248.1C124.26 249.01 125.18 250.16 125.59 251.62L125.73 252.17L125.78 252.74C125.82 253.15 125.81 253.42 125.81 253.74V255.58V259.25V262.92V264.76C125.81 265.07 125.82 265.34 125.78 265.76L125.73 266.33L125.59 266.88C125.18 268.34 124.27 269.49 123.29 270.4C122.3 271.32 121.22 272.04 120.11 272.69C115.62 275.16 110.79 276.49 105.96 277.58C96.2701 279.66 86.3901 280.45 76.5301 280.49C66.6701 280.45 56.8001 279.66 47.1001 277.58C42.2701 276.49 37.4401 275.17 32.9501 272.69C31.8401 272.04 30.7601 271.32 29.7701 270.4C28.8001 269.49 27.8801 268.34 27.4701 266.88L27.3301 266.33L27.2801 265.76C27.2401 265.35 27.2501 265.08 27.2501 264.76V262.92V259.25V255.58V253.74C27.2501 253.43 27.2401 253.16 27.2801 252.74L27.3301 252.17L27.4701 251.62C27.8801 250.16 28.7901 249.01 29.7701 248.1C30.7601 247.18 31.8401 246.46 32.9601 245.82C37.4601 243.38 42.2901 242.05 47.1301 241.03C51.9801 240.02 56.8701 239.38 61.7801 238.96C66.6801 238.52 71.6101 238.31 76.5301 238.32Z" fill="black"/>
<path d="M120.21 250.7C120.69 251.7 120.54 252.98 120.01 253.91C119.48 254.85 118.72 255.57 117.92 256.19C116.3 257.4 114.51 258.25 112.69 258.98C109.04 260.43 105.24 261.36 101.41 262.07C93.7501 263.46 85.9801 264.02 78.2301 264.1C74.3501 264.13 70.4701 264.05 66.6001 263.81C62.7301 263.59 58.8601 263.21 55.0101 262.64C51.1701 262.07 47.3401 261.28 43.6101 260.12C41.7401 259.56 39.9101 258.85 38.1301 258L36.8201 257.31C36.4001 257.05 35.9801 256.76 35.5701 256.49C35.1501 256.22 34.7901 255.85 34.4001 255.53C34.0201 255.2 33.7101 254.76 33.3701 254.38C33.2001 254.19 33.2201 253.9 33.4101 253.74C33.6001 253.57 33.8901 253.59 34.0501 253.78C34.0601 253.79 34.0601 253.79 34.0601 253.8L34.1101 253.86C35.2301 255.26 36.9101 256.23 38.6101 257.03C40.3301 257.82 42.1201 258.48 43.9601 259.01C47.6301 260.09 51.4101 260.8 55.2001 261.38C59.0001 261.95 62.8301 262.33 66.6701 262.54C70.5101 262.78 74.3601 262.85 78.2101 262.82C85.9101 262.74 93.6101 262.19 101.17 260.81C104.93 260.09 108.69 259.22 112.25 257.88C114.02 257.2 115.76 256.4 117.26 255.31C117.99 254.76 118.67 254.14 119.12 253.4C119.54 252.66 119.68 251.83 119.35 251.04C119.25 250.81 119.36 250.54 119.6 250.44C119.83 250.35 120.08 250.45 120.19 250.66L120.21 250.7Z" fill="black"/>
<path d="M209.94 144.81L209.83 152.56L209.61 160.31L209.34 168.06L208.97 175.81C208.43 186.14 207.76 196.45 206.94 206.76C206.12 217.07 205.16 227.36 204.05 237.64L203.18 245.35L202.22 253.04L201.2 260.73L200.07 268.4C200.03 268.69 199.75 268.9 199.46 268.85C199.17 268.81 198.97 268.54 199.01 268.25L200.85 252.87L202.56 237.48C203.67 227.21 204.63 216.93 205.45 206.64C206.27 196.35 206.94 186.04 207.48 175.73L208.23 160.26L208.87 144.78C208.88 144.48 209.13 144.25 209.42 144.26C209.71 144.27 209.94 144.52 209.94 144.81ZM221.98 151.55C221.71 160.4 221.34 169.26 220.86 178.1L220.11 191.37L219.26 204.63C219.25 204.82 219.39 204.99 219.58 205.01C219.78 205.03 219.95 204.88 219.97 204.69C220.37 200.27 220.71 195.85 221.02 191.43C221.33 187.01 221.62 182.58 221.85 178.16C222.33 169.31 222.7 160.45 222.97 151.58C223.24 142.71 223.41 133.85 223.47 124.99C223.51 120.56 223.49 116.12 223.45 111.69C223.41 107.26 223.34 102.82 223.21 98.39C223.2 98.2 223.05 98.04 222.85 98.04C222.65 98.04 222.49 98.2 222.49 98.4L222.52 111.69L222.46 124.98C222.42 133.84 222.25 142.7 221.98 151.55ZM245.45 81.78C245.44 81.27 245.07 80.82 244.54 80.73L210.78 75.16H210.77C210.7 75.15 210.62 75.14 210.54 75.15L188.94 76.78L167.35 78.49C166.93 78.52 166.61 78.89 166.64 79.31C166.67 79.74 167.04 80.06 167.47 80.03L189.08 78.62L210.57 77.14L243.3 82.71C243.96 113.22 244.27 143.75 243.41 174.24C242.99 189.64 242.27 205.02 241.28 220.4C240.32 235.51 239.11 250.62 237.76 265.7L219.11 270.25L199.88 275L173.16 272.64L146.26 270.34C145.84 270.3 145.46 270.61 145.42 271.04C145.38 271.47 145.69 271.85 146.12 271.89L172.99 274.52L199.87 277.07C199.98 277.08 200.09 277.07 200.2 277.05H200.21L219.63 272.37L239.04 267.64C239.48 267.53 239.82 267.16 239.87 266.68C241.25 251.32 242.48 235.94 243.46 220.54C244.45 205.14 245.17 189.73 245.59 174.3C246.45 143.47 246.13 112.61 245.45 81.78ZM105.93 82.92C105.51 82.95 105.19 83.32 105.22 83.75C105.25 84.18 105.62 84.5 106.05 84.47L152.31 81.44C151.98 83.9 151.87 86.38 151.89 88.84C151.96 92.59 152.35 96.36 153.35 100.03C154.35 103.68 155.99 107.27 158.64 110.13C161.21 113.06 164.81 114.96 168.51 115.92L169.92 116.21L170.63 116.35C170.96 116.4 171.21 116.4 171.49 116.39C172.56 116.36 173.69 116.04 174.6 115.3C175.53 114.58 176.05 113.48 176.29 112.46C176.39 111.94 176.47 111.42 176.47 110.92C176.51 110.41 176.47 109.89 176.4 109.37C176.24 108.35 175.9 107.3 175.2 106.4C174.85 105.95 174.4 105.56 173.89 105.28C173.64 105.13 173.37 105.02 173.09 104.93L172.66 104.81L172.34 104.73C170.59 104.43 169.06 103.67 167.74 102.61C165.1 100.44 163.77 96.95 163.17 93.46C162.59 89.93 162.54 86.23 162.97 82.68C163.47 79.15 164.64 75.67 166.84 72.96C169 70.24 172.35 68.55 175.76 68.71C179.18 68.87 182.38 70.86 184.59 73.62V73.63C184.8 73.89 185.18 73.95 185.45 73.75C185.74 73.55 185.8 73.15 185.6 72.86C184.49 71.3 183.12 69.87 181.44 68.83C179.78 67.78 177.85 67.09 175.85 66.97C173.85 66.87 171.82 67.25 170.03 68.12C168.23 68.98 166.67 70.28 165.43 71.8C162.94 74.87 161.69 78.66 161.16 82.42C160.71 86.21 160.75 89.98 161.37 93.75C161.7 95.63 162.21 97.5 163.03 99.27C163.85 101.04 165.01 102.7 166.56 103.98C168.1 105.24 170 106.15 171.91 106.47L172.27 106.56L172.51 106.63C172.66 106.68 172.83 106.74 172.97 106.83C173.27 107 173.53 107.22 173.75 107.5C174.19 108.06 174.46 108.82 174.58 109.62C174.77 111.2 174.54 113.07 173.43 113.89C172.9 114.33 172.16 114.56 171.4 114.58C171.22 114.59 171 114.58 170.87 114.56L170.22 114.43L168.91 114.16C165.49 113.27 162.26 111.57 159.93 108.91C157.53 106.32 156 103 155.05 99.54C154.1 96.07 153.71 92.43 153.65 88.8C153.62 85.17 153.87 81.53 154.73 78.03C155.61 74.55 157.02 71.18 159.17 68.33C161.3 65.49 164.11 63.16 167.34 61.72C170.59 60.34 174.2 59.8 177.69 60.35C181.18 60.89 184.47 62.45 187.19 64.74C189.92 67.02 192.03 70.01 193.61 73.25L193.62 73.26C193.77 73.56 194.12 73.7 194.43 73.57C194.76 73.44 194.91 73.07 194.78 72.74C193.36 69.25 191.25 65.93 188.32 63.42C185.43 60.88 181.8 59.14 177.97 58.57C174.14 57.97 170.17 58.56 166.62 60.07C163.09 61.65 160.03 64.19 157.73 67.26C155.41 70.33 153.92 73.93 152.99 77.6C152.86 78.14 152.74 78.69 152.64 79.23L105.93 82.92ZM72.82 87.52C73.44 87.3 74.12 87.15 74.84 87.1L77.2 86.92L81.94 86.56L90.88 85.88C90.52 88.48 90.45 91.12 90.48 93.72C90.58 97.48 91.01 101.27 92.06 104.94C92.56 106.78 93.31 108.56 94.18 110.28C94.69 111.1 95.11 111.98 95.72 112.73C96.01 113.12 96.29 113.52 96.59 113.9L97.58 114.98C97.89 115.35 98.27 115.67 98.63 115.99C99 116.3 99.35 116.65 99.75 116.93C100.55 117.48 101.33 118.07 102.21 118.49C103.91 119.45 105.77 120.05 107.64 120.5L109.06 120.77C109.3 120.81 109.5 120.87 109.85 120.89C110.15 120.9 110.43 120.89 110.71 120.84C111.82 120.7 112.9 120.16 113.68 119.3C114.44 118.43 114.83 117.34 114.97 116.31C115.11 115.28 115.1 114.24 114.86 113.21C114.63 112.19 114.15 111.14 113.29 110.34C112.87 109.94 112.35 109.63 111.81 109.43C111.16 109.22 110.83 109.18 110.38 109.07C108.69 108.66 107.14 107.89 105.9 106.72C103.39 104.37 102.21 100.83 101.67 97.3C101.42 95.52 101.28 93.7 101.28 91.88C101.27 90.97 101.33 90.07 101.35 89.17C101.46 88.28 101.5 87.37 101.67 86.49C101.93 84.71 102.44 82.99 103.1 81.35C103.78 79.72 104.72 78.21 105.89 76.92C108.19 74.34 111.65 72.81 115.06 73.24C118.48 73.65 121.55 75.83 123.64 78.71L123.65 78.72C123.85 78.99 124.22 79.06 124.51 78.88C124.8 78.69 124.89 78.3 124.7 78C123.66 76.39 122.37 74.88 120.76 73.75C119.16 72.61 117.29 71.79 115.29 71.52C113.3 71.24 111.24 71.53 109.39 72.29C107.54 73.05 105.9 74.26 104.57 75.72C103.25 77.18 102.2 78.87 101.46 80.66C100.74 82.46 100.19 84.32 99.91 86.21C99.73 87.15 99.69 88.11 99.57 89.06C99.55 90.01 99.48 90.96 99.5 91.91C99.51 93.8 99.65 95.69 99.91 97.58C100.19 99.47 100.66 101.35 101.4 103.15C102.15 104.95 103.22 106.67 104.69 108.05C106.15 109.44 108.04 110.37 109.95 110.83C110.4 110.93 110.98 111.05 111.22 111.13C111.55 111.25 111.84 111.43 112.09 111.67C112.6 112.14 112.95 112.85 113.13 113.63C113.47 115.17 113.28 117.07 112.36 118.11C111.89 118.63 111.22 118.97 110.49 119.07C110.31 119.1 110.13 119.1 109.96 119.1C109.85 119.1 109.59 119.05 109.38 119.01L108.06 118.76C106.33 118.35 104.63 117.8 103.09 116.92C101.52 116.12 100.12 115 98.9 113.74L98 112.76C97.73 112.41 97.47 112.05 97.21 111.7C96.65 111.01 96.27 110.2 95.79 109.45C94.99 107.86 94.29 106.2 93.81 104.46C92.81 100.99 92.39 97.35 92.3 93.7C92.25 90.06 92.42 86.39 93.3 82.88C94.14 79.37 95.54 75.99 97.61 73.08C99.7 70.18 102.5 67.84 105.71 66.33C107.34 65.64 109.03 65.05 110.79 64.84C111.66 64.66 112.55 64.69 113.43 64.62C114.32 64.64 115.2 64.68 116.08 64.81C119.59 65.3 122.92 66.82 125.66 69.08C128.42 71.34 130.57 74.32 132.17 77.57L132.18 77.58C132.33 77.88 132.68 78.01 132.99 77.88C133.31 77.75 133.47 77.37 133.33 77.05C131.89 73.55 129.73 70.25 126.77 67.75C123.84 65.24 120.17 63.54 116.32 63.02C115.36 62.88 114.39 62.83 113.42 62.82C112.45 62.89 111.47 62.87 110.52 63.06C108.59 63.3 106.74 63.94 104.96 64.7C101.45 66.34 98.4 68.91 96.14 72.03C93.9 75.17 92.42 78.77 91.54 82.47C91.44 82.88 91.35 83.29 91.27 83.7L81.8 84.35L77.06 84.67L74.67 84.84C73.81 84.91 72.92 85.08 72.05 85.4C71.18 85.72 70.32 86.23 69.64 86.95C68.95 87.67 68.48 88.57 68.22 89.47C67.96 90.37 67.88 91.27 67.88 92.15C67.89 93.04 67.94 93.76 67.97 94.57C68.11 97.73 68.23 100.89 68.32 104.06C68.51 110.39 68.6 116.72 68.59 123.05L68.43 142V142.06V142.11C68.46 142.6 68.87 142.97 69.36 142.94L72.32 142.78L70.87 165.31C70.31 173.1 69.61 180.87 68.77 188.63C67.96 196.39 67.01 204.14 65.91 211.87C64.81 219.6 63.6 227.31 62.45 235.04C62.39 235.44 62.65 235.83 63.05 235.91C63.47 236 63.88 235.73 63.97 235.32C65.63 227.66 66.94 219.94 68.08 212.19C69.22 204.44 70.21 196.67 71.06 188.88C71.87 181.09 72.54 173.28 73.06 165.47C73.59 157.66 73.93 149.83 73.92 141.99C73.92 141.77 73.82 141.58 73.68 141.44C73.63 141.39 73.58 141.36 73.52 141.32C73.51 141.31 73.49 141.3 73.48 141.29C73.37 141.23 73.26 141.19 73.13 141.19L70.3 141.15C70.64 135.12 70.74 129.07 70.76 123.03C70.78 116.68 70.71 110.33 70.53 103.98C70.45 100.8 70.33 97.63 70.2 94.46C70.17 93.69 70.12 92.82 70.11 92.13C70.11 91.42 70.18 90.73 70.36 90.11C70.73 88.83 71.58 87.96 72.82 87.52ZM114.46 122.7C113.66 123.23 112.76 123.6 111.81 123.77C110.85 123.94 109.86 123.83 108.91 123.58C107.94 123.34 107.06 122.82 106.19 122.25L106.16 122.23C106.05 122.16 105.89 122.17 105.79 122.27C105.68 122.38 105.68 122.57 105.79 122.69C106.57 123.47 107.47 124.21 108.55 124.62C109.62 125.02 110.8 125.26 111.98 125.1C113.14 124.96 114.3 124.59 115.28 123.93C116.24 123.25 117.09 122.4 117.7 121.4C118.93 119.39 119.24 117 119.04 114.77C118.82 112.54 117.85 110.26 116.06 108.85C115.95 108.77 115.79 108.77 115.69 108.86C115.57 108.97 115.55 109.15 115.66 109.28C116.98 110.88 117.59 112.87 117.71 114.88C117.75 116.89 117.46 118.95 116.42 120.61C115.93 121.44 115.24 122.13 114.46 122.7ZM171.8 119.48C171.66 119.48 171.53 119.57 171.5 119.71C171.46 119.87 171.56 120.03 171.72 120.06C172.89 120.32 174.17 120.21 175.32 119.75C176.47 119.29 177.49 118.51 178.25 117.54C179.83 115.6 180.39 113.09 180.42 110.72C180.41 108.34 179.88 105.85 178.37 103.86C177.63 102.87 176.63 102.05 175.47 101.58C174.32 101.11 173.04 101.02 171.88 101.27C171.74 101.3 171.64 101.42 171.64 101.57C171.64 101.73 171.78 101.86 171.94 101.86C174.16 101.8 176.12 102.91 177.28 104.65C178.45 106.39 178.92 108.56 178.92 110.71C178.9 112.86 178.4 115.02 177.18 116.73C175.98 118.42 174 119.54 171.8 119.48ZM145.58 219.62C145.59 219.49 145.5 219.38 145.37 219.36C143.07 219.15 140.77 218.99 138.47 218.83C136.17 218.66 133.87 218.5 131.57 218.37C126.97 218.08 122.36 217.85 117.76 217.62C115.38 217.5 113 217.39 110.62 217.28C110.75 216.34 110.88 215.39 110.99 214.45C111.87 207.42 112.65 200.38 113.33 193.33C113.71 189.13 114.04 184.93 114.34 180.72L131.18 181.05L155.97 181.39C156.58 181.4 157.19 181.4 157.8 181.41L155.79 210.62C155.78 210.74 155.87 210.85 156 210.87C156.13 210.89 156.25 210.8 156.26 210.67C156.6 208.16 156.88 205.64 157.15 203.12C157.42 200.6 157.69 198.08 157.91 195.55C158.34 190.85 158.69 186.14 159 181.43C162.12 181.47 165.25 181.49 168.37 181.5C172.5 181.52 176.64 181.55 180.77 181.52C180.89 181.52 181 181.42 181 181.29C181.01 181.16 180.9 181.05 180.77 181.05C176.64 180.88 172.51 180.77 168.38 180.65C165.28 180.56 162.17 180.48 159.07 180.41C159.07 180.4 159.07 180.39 159.07 180.38C159.39 175.32 159.67 170.26 159.86 165.19C159.97 162.66 160.03 160.12 160.08 157.59C160.13 155.06 160.18 152.52 160.16 149.98C160.16 149.86 160.06 149.75 159.94 149.74C159.81 149.73 159.7 149.83 159.69 149.96L157.87 180.3L157.86 180.38C157.23 180.37 156.61 180.35 155.98 180.34L131.19 179.85L114.4 179.62C114.58 177.13 114.76 174.63 114.91 172.14C115.14 168.61 115.29 165.07 115.43 161.53C115.56 157.99 115.67 154.45 115.71 150.91C115.71 150.79 115.61 150.68 115.49 150.67C115.36 150.66 115.25 150.76 115.24 150.89L114.58 161.48L113.86 172.07C113.69 174.58 113.49 177.09 113.29 179.6L106.39 179.51C102.26 179.44 98.12 179.42 93.99 179.4C89.86 179.38 85.72 179.35 81.59 179.38C81.47 179.38 81.36 179.48 81.36 179.61C81.35 179.74 81.46 179.85 81.59 179.85C85.72 180.01 89.85 180.13 93.98 180.24C98.11 180.36 102.24 180.48 106.38 180.55L113.22 180.69C112.89 184.87 112.53 189.04 112.12 193.21C111.49 200.25 110.76 207.29 109.93 214.31L109.58 217.22C107.69 217.13 105.81 217.05 103.92 216.98C101.62 216.88 99.31 216.81 97.01 216.75C94.71 216.68 92.4 216.61 90.09 216.59C89.97 216.59 89.86 216.68 89.85 216.8C89.84 216.93 89.93 217.04 90.06 217.06C92.36 217.27 94.66 217.43 96.96 217.59C99.26 217.75 101.56 217.92 103.86 218.05C105.72 218.17 107.58 218.27 109.44 218.37L108.67 224.84L107.35 235.37C107.33 235.49 107.42 235.61 107.54 235.63C107.67 235.65 107.79 235.57 107.81 235.44C108.43 231.95 108.98 228.46 109.5 224.95C109.83 222.78 110.14 220.6 110.43 218.42C112.84 218.55 115.25 218.67 117.66 218.8C122.26 219.03 126.87 219.25 131.48 219.43C133.78 219.53 136.09 219.6 138.39 219.66C140.69 219.73 143 219.8 145.31 219.82C145.46 219.84 145.57 219.74 145.58 219.62ZM130.59 141.71L184.61 140.74L198.11 140.46L204.86 140.32L208.24 140.25L209.93 140.22C210.15 140.22 210.66 140.21 211.04 140.08C211.44 139.96 211.81 139.74 212.13 139.46C212.76 138.92 213.14 138.04 213.13 137.25L213.16 135.56L213.21 132.18L213.25 125.42C213.25 120.91 213.21 116.4 213.11 111.9C212.95 102.88 212.54 93.87 211.93 84.88C211.9 84.36 211.91 83.88 212.05 83.49C212.19 83.11 212.41 82.83 212.78 82.67C213.15 82.51 213.63 82.45 214.13 82.47C214.62 82.49 215.17 82.59 215.74 82.66L222.44 83.56L235.84 85.29C236.05 85.32 236.24 85.17 236.28 84.96C236.31 84.75 236.17 84.54 235.95 84.51L222.61 82.4L215.94 81.38C214.87 81.24 213.6 80.88 212.24 81.43C211.56 81.69 210.98 82.35 210.75 83.02C210.51 83.69 210.5 84.37 210.53 84.96C210.97 93.94 211.2 102.94 211.33 111.93C211.38 116.43 211.39 120.92 211.36 125.42L211.27 132.16L211.21 135.53L211.18 137.22C211.18 137.56 211.06 137.8 210.84 138C210.73 138.09 210.61 138.17 210.47 138.21C210.32 138.25 210.25 138.26 209.91 138.26L208.22 138.29L204.84 138.36L198.09 138.49L184.59 138.75L130.58 139.93L103.58 140.66C94.58 140.91 85.58 141.17 76.58 141.51C76.37 141.52 76.2 141.69 76.2 141.9C76.2 142.12 76.38 142.29 76.59 142.29C85.6 142.27 94.6 142.17 103.6 142.06L130.59 141.71Z" fill="black"/>
<path d="M234.33 148.65C234.31 153 234.24 157.34 234.13 161.68C234.04 166.02 233.91 170.37 233.74 174.71C233.41 183.39 233 192.08 232.49 200.75C231.99 209.43 231.4 218.1 230.72 226.76C230.4 231.09 230 235.42 229.6 239.75C229.2 244.08 228.76 248.4 228.28 252.72C228.26 252.92 228.08 253.06 227.89 253.04C227.7 253.02 227.56 252.85 227.57 252.65L228.68 239.67L229.72 226.69C230.4 218.03 230.99 209.37 231.49 200.7C231.99 192.03 232.41 183.36 232.74 174.68L233.21 161.66L233.62 148.64C233.63 148.44 233.79 148.29 233.99 148.29C234.18 148.3 234.33 148.46 234.33 148.65Z" fill="black"/>
<defs>
<linearGradient id="paint0_linear_4812_16083" x1="106.619" y1="186.698" x2="160.559" y2="248.275" gradientUnits="userSpaceOnUse">
<stop stop-color="#FF9BA3" stop-opacity="0.2"/>
<stop offset="1" stop-color="#FF9BA3" stop-opacity="0.8"/>
</linearGradient>
</defs>
</svg>
