<svg width="280" height="376" viewBox="0 0 280 376" fill="none" xmlns="http://www.w3.org/2000/svg">
<g clip-path="url(#clip0_4695_14417)">
<path d="M280 0H0V376H280V0Z" fill="#A6DB7B"/>
<path d="M166.51 351.9C166.44 351.9 166.39 351.84 166.4 351.78L166.46 351.66L166.47 351.48L166.45 350.31L150.11 349.73L128.09 348.9L124.73 350.37C124.69 350.39 124.64 350.4 124.59 350.4L35.5499 346.66C35.3499 346.65 35.1799 346.48 35.1799 346.28L34.4599 236.07L33.8499 236.14C30.7999 236.48 27.7399 236.82 24.6799 237.13C24.6799 237.13 24.6799 237.13 24.6699 237.13C24.5699 237.13 24.5099 237.1 24.4599 237.05L17.1499 229.15C17.0299 229.03 17.0299 228.84 17.1399 228.71C21.9399 223.24 26.8599 217.74 31.6299 212.42C34.2999 209.44 36.9699 206.46 39.6199 203.47L84.6399 153.09L95.9599 140.56C99.9799 136.09 103.71 132.01 107.34 128.09L107.45 128.05L107.56 128.04C112.38 128.59 117.25 129.32 121.78 130.03L136.08 132.25L150.36 134.57C152.48 134.91 154.61 135.27 156.73 135.64L157.38 135.75V135.09C157.4 131.44 157.45 127.7 157.54 123.68L157.6 123.59L165 123.16L172.33 122.84C173.82 123.13 175.24 123.41 176.66 123.68C179.5 124.23 182.34 124.79 185.17 125.38C185.35 125.42 185.48 125.58 185.48 125.76V145.58L241.32 201.23L261.44 221.4C261.59 221.55 261.59 221.79 261.44 221.94L254.83 228.8C254.75 228.88 254.67 228.91 254.61 228.91L245.78 230.26L245.79 230.75C245.93 236.93 247.26 322.84 247.26 322.84C247.26 322.99 247.18 323.12 247.05 323.19C247.05 323.19 200.46 348.02 190.87 353.03C190.82 353.06 190.77 353.07 190.72 353.07L166.51 351.9Z" fill="white"/>
<path d="M203.18 230.49C203.73 229.85 204.3 229.23 204.88 228.63L159.1 181.74L136.02 158.09C128.36 150.17 120.66 142.29 113.05 134.33C112.89 134.16 112.89 133.89 113.06 133.72C113.23 133.56 113.5 133.56 113.66 133.73C121.44 141.53 129.13 149.42 136.86 157.26L159.95 180.9L205.91 227.98L229.74 224.94L241.81 223.43L253.88 221.96C254.11 221.93 254.33 222.1 254.36 222.33C254.39 222.56 254.22 222.77 253.99 222.81L241.94 224.45L229.88 226.05L205.96 229.18C205.31 229.88 204.63 230.57 203.93 231.23C203.18 231.95 202.42 232.64 201.58 233.27C201.47 233.35 201.32 233.33 201.25 233.22C201.19 233.14 201.19 233.03 201.24 232.94C201.84 232.08 202.5 231.28 203.18 230.49ZM261.72 220.86L186.71 145.68C186.46 145.43 186.1 145.39 185.8 145.52V125.53C185.8 125.18 185.56 124.87 185.2 124.8L172.44 122.18C172.38 122.17 172.32 122.16 172.26 122.17L157.58 122.69C157.18 122.7 156.85 123.04 156.86 123.44L156.94 135.23C156.85 135.15 156.74 135.08 156.61 135.06C148.44 133.65 140.26 132.31 132.08 130.97L119.81 128.96L107.53 127C107.22 126.95 106.89 127.06 106.67 127.31L61.65 177.69L39.14 202.88C31.62 211.26 24.18 219.72 16.72 228.15L16.71 228.16C16.43 228.47 16.43 228.95 16.72 229.27C19.15 231.9 21.58 234.54 24.03 237.16L24.05 237.18C24.2 237.34 24.42 237.43 24.66 237.4L30.79 236.73C31.15 236.69 31.42 236.37 31.39 236C31.36 235.63 31.03 235.35 30.66 235.38L24.89 235.87C22.76 233.47 20.6 231.09 18.45 228.71C25.83 220.53 33.23 212.38 40.55 204.15L63.06 178.96L107.74 128.97L119.51 130.82L131.8 132.71C139.99 133.97 148.18 135.23 156.39 136.42C156.6 136.45 156.8 136.37 156.94 136.24C156.96 140.03 157 143.82 157.07 147.61C157.08 147.9 157.31 148.13 157.6 148.14C157.9 148.15 158.14 147.91 158.15 147.61C158.23 143.59 158.27 139.56 158.29 135.54L158.36 124.2L172.23 123.71L184.3 126.19V162.91C180.4 162.57 176.51 162.26 172.61 161.96L166.78 156.07C164.78 154.03 162.74 152.04 160.73 150.03C160.53 149.83 160.19 149.82 159.98 150.02C159.77 150.22 159.76 150.56 159.96 150.78C161.93 152.85 163.87 154.93 165.86 156.98L171.79 163.14C171.9 163.26 172.05 163.33 172.22 163.35H172.23C176.48 163.75 180.73 164.13 184.98 164.48H185.04C185.45 164.48 185.79 164.14 185.79 163.73V147.11L259.93 221.51L254.05 227.5L197.92 236.4L107.94 143.91L107.91 143.88C107.66 143.66 107.28 143.68 107.06 143.93L28.36 231.84C28.2 232.02 28.22 232.29 28.39 232.44C28.57 232.6 28.84 232.58 29 232.41L107.53 145.21L197.22 237.55C197.24 237.57 197.26 237.57 197.27 237.59C197.3 237.61 197.33 237.63 197.36 237.65C197.4 237.67 197.44 237.7 197.49 237.71C197.52 237.72 197.56 237.73 197.59 237.73C197.64 237.74 197.68 237.74 197.73 237.74C197.75 237.74 197.76 237.74 197.78 237.74L254.63 229.3C254.82 229.27 255.02 229.18 255.16 229.03L261.71 222.1L261.72 222.09C262.05 221.7 262.04 221.18 261.72 220.86ZM103.04 178.9L113.13 178.77L120.26 186.22L120.44 195.69C120.49 198.94 120.57 202.19 120.68 205.44C120.69 205.71 120.91 205.92 121.17 205.92C121.45 205.92 121.67 205.7 121.68 205.43C121.72 202.18 121.72 198.93 121.7 195.68L121.66 185.93C121.66 185.76 121.6 185.59 121.47 185.46L113.94 177.59C113.81 177.46 113.63 177.37 113.43 177.37L102.73 177.51C102.54 177.51 102.36 177.59 102.22 177.74L94.93 185.75C94.82 185.88 94.75 186.05 94.75 186.23L94.97 205.8V205.81C94.97 206.19 95.29 206.5 95.67 206.5L105.53 206.38C108.81 206.34 112.1 206.29 115.38 206.19C115.65 206.18 115.86 205.97 115.87 205.7C115.87 205.42 115.65 205.2 115.38 205.19C112.09 205.13 108.81 205.11 105.52 205.11L96.36 205.1L96.15 186.5L103.04 178.9ZM172.28 154.08C172.48 154.09 172.65 153.94 172.66 153.74C172.88 149.69 172.79 145.64 172.83 141.59L172.8 135.51C172.79 133.48 172.77 131.46 172.65 129.43C172.64 129.25 172.5 129.1 172.31 129.09C172.11 129.08 171.94 129.23 171.93 129.43C171.81 131.46 171.79 133.48 171.78 135.51L171.75 141.59C171.8 145.64 171.71 149.69 171.92 153.74C171.95 153.92 172.09 154.07 172.28 154.08ZM67.36 257.06C64.01 257.04 60.67 257.04 57.32 257.08C57.17 257.08 57.04 257.14 56.95 257.24C56.85 257.34 56.78 257.47 56.78 257.62C56.71 262 56.74 266.38 56.75 270.75C56.74 275.13 56.8 279.5 56.84 283.88L57.11 310.14C57.11 310.54 57.43 310.87 57.84 310.88L77.93 311.5L87.98 311.74C91.33 311.82 94.68 311.89 98.03 311.91C98.31 311.91 98.55 311.69 98.57 311.4C98.59 311.1 98.36 310.85 98.06 310.84C94.71 310.66 91.37 310.51 88.02 310.39L77.98 310.01L58.61 309.41L58.35 283.87C58.31 279.49 58.27 275.12 58.17 270.74C58.09 266.55 58.02 262.36 57.88 258.17C58.88 258.21 59.89 258.24 60.89 258.27C60.95 266.12 61.09 273.96 61.2 281.8L61.44 293.86C61.52 297.88 61.61 301.9 61.75 305.92C61.75 306.04 61.86 306.15 61.98 306.15C62.11 306.15 62.22 306.05 62.22 305.92C62.27 301.9 62.28 297.88 62.28 293.86L62.27 281.8C62.22 273.97 62.2 266.14 62.1 258.31C63.86 258.36 65.61 258.4 67.37 258.43C70.72 258.49 74.06 258.6 77.41 258.63L96.75 258.88L97.01 282.76C97.05 286.86 97.09 290.97 97.19 295.07C97.27 299.17 97.34 303.27 97.49 307.38C97.5 307.66 97.73 307.89 98.02 307.9C98.32 307.9 98.56 307.67 98.56 307.37C98.62 303.27 98.6 299.16 98.59 295.06C98.6 290.96 98.55 286.85 98.5 282.75L98.23 258.13C98.23 257.72 97.9 257.39 97.49 257.39L77.42 257.13C74.05 257.06 70.71 257.08 67.36 257.06ZM189.32 292.58L189.68 320.55L189.91 334.54C189.99 339.2 190.08 343.86 190.21 348.53C190.22 348.76 190.41 348.95 190.64 348.95C190.88 348.95 191.07 348.76 191.07 348.52C191.09 343.86 191.05 339.19 191.02 334.53L190.89 320.54L190.53 292.57L190.17 264.6L189.94 250.61C189.86 245.95 189.77 241.29 189.64 236.62C189.63 236.39 189.44 236.2 189.21 236.2C188.97 236.2 188.78 236.39 188.78 236.63C188.77 241.29 188.8 245.96 188.84 250.62L188.97 264.61L189.32 292.58ZM246.78 256.06C246.64 248.66 246.5 241.27 246.27 233.87C246.26 233.51 245.96 233.21 245.59 233.21C245.21 233.21 244.91 233.51 244.91 233.89C244.89 241.29 244.96 248.68 245.02 256.08C245.07 263.48 245.14 270.87 245.25 278.27L245.86 322.07L218.3 336.75L204.26 344.23L190.46 351.65L178.6 351.22C174.73 351.07 170.86 350.98 167 350.87C166.99 343.84 166.95 336.8 166.88 329.77L166.7 308.02L166.18 264.51C166.17 264.1 165.85 263.77 165.44 263.77L123.58 263.24H123.56C123.15 263.24 122.81 263.58 122.82 264L123.31 306.9L123.63 328.35C123.72 335.19 123.85 342.02 123.99 348.86C109.35 348.16 94.71 347.6 80.07 346.96L36.45 345.12L35.66 288.59L34.79 231.16C34.79 230.92 34.59 230.72 34.34 230.72C34.09 230.72 33.89 230.92 33.9 231.17L34.2 288.6L34.57 346.03C34.58 346.53 34.97 346.95 35.48 346.97L79.99 348.85C94.83 349.46 109.66 350.15 124.51 350.69H124.52C124.62 350.69 124.72 350.68 124.83 350.65L129.17 349.22L145.49 349.83L161.98 350.39C162.35 350.4 162.66 350.12 162.68 349.75C162.7 349.38 162.41 349.06 162.04 349.04L145.56 348.21L129.57 347.46L129.05 321.14C129.05 320.97 128.9 320.83 128.73 320.83C128.55 320.83 128.41 320.97 128.41 321.15L128.49 347.57L125.08 348.67C125.07 341.89 125.04 335.11 124.98 328.33L124.82 306.88L124.34 264.75L164.7 265.26L165.22 308.04L165.56 329.79C165.66 336.91 165.79 344.04 165.95 351.16C165.88 351.26 165.83 351.37 165.82 351.5C165.8 351.87 166.09 352.19 166.46 352.21C170.49 352.42 174.52 352.67 178.56 352.85L190.66 353.43C190.81 353.44 190.96 353.41 191.11 353.33H191.12L205.19 345.91L219.23 338.43L247.3 323.47C247.6 323.31 247.81 322.99 247.8 322.62L247.18 278.24C247.08 270.86 246.94 263.46 246.78 256.06ZM81.72 268.8C81.7 266.86 81.67 264.92 81.6 262.98C81.59 262.76 81.41 262.58 81.19 262.57C80.95 262.56 80.75 262.75 80.74 262.98C80.67 264.92 80.64 266.86 80.62 268.8C80.59 270.74 80.56 272.68 80.57 274.62V286.26V297.9C80.56 299.84 80.58 301.78 80.62 303.72C80.64 305.66 80.67 307.6 80.74 309.54C80.75 309.76 80.93 309.94 81.15 309.95C81.39 309.96 81.59 309.78 81.6 309.54C81.68 307.6 81.7 305.66 81.72 303.72C81.75 301.78 81.78 299.84 81.77 297.9V286.26V279.82C83.62 279.86 85.47 279.88 87.31 279.87C89.36 279.86 91.42 279.83 93.47 279.69C93.58 279.68 93.68 279.59 93.69 279.48C93.7 279.35 93.61 279.23 93.48 279.22C91.43 279 89.38 278.89 87.33 278.8C85.48 278.72 83.62 278.65 81.76 278.63V274.63C81.78 272.68 81.75 270.74 81.72 268.8ZM134.37 304.26L134.41 304.25C134.49 304.22 134.56 304.15 134.57 304.06C134.59 303.93 134.5 303.81 134.37 303.79C133.74 303.7 133.18 304.13 132.86 304.57C132.54 305.03 132.35 305.56 132.27 306.1C132.16 307.16 132.21 308.04 132.19 309.02C132.21 310 132.17 310.88 132.27 311.94C132.34 312.48 132.53 313.01 132.86 313.47C133.17 313.92 133.74 314.35 134.37 314.25C134.46 314.24 134.53 314.18 134.56 314.09C134.6 313.97 134.53 313.83 134.41 313.79L134.37 313.78C133.66 313.56 133.39 312.63 133.36 311.83C133.38 310.98 133.4 309.95 133.4 309.02C133.4 308.09 133.38 307.05 133.36 306.21C133.4 305.41 133.67 304.49 134.37 304.26Z" fill="black"/>
<path fill-rule="evenodd" clip-rule="evenodd" d="M170.795 105.71L170.709 60.817L258.483 -36.0073L290.768 -2.78484L179.196 105.71H170.795Z" fill="url(#paint0_linear_4695_14417)"/>
<path fill-rule="evenodd" clip-rule="evenodd" d="M162.596 105.71L104.03 44.9725L127.861 20.4496L170.709 60.817L170.795 105.71H162.596Z" fill="url(#paint1_linear_4695_14417)"/>
</g>
<defs>
<linearGradient id="paint0_linear_4695_14417" x1="160.148" y1="95.0693" x2="345.276" y2="-90.0586" gradientUnits="userSpaceOnUse">
<stop offset="0.139026" stop-color="#E4FFAC"/>
<stop offset="0.710545" stop-color="#E4FFAC" stop-opacity="0"/>
</linearGradient>
<linearGradient id="paint1_linear_4695_14417" x1="121.365" y1="37.9749" x2="165.568" y2="82.1786" gradientUnits="userSpaceOnUse">
<stop offset="0.0665932" stop-color="#E4FFAC" stop-opacity="0"/>
<stop offset="0.2008" stop-color="#E4FFAC" stop-opacity="0.1437"/>
<stop offset="0.802723" stop-color="#E4FFAC"/>
</linearGradient>
<clipPath id="clip0_4695_14417">
<rect width="280" height="376" fill="white"/>
</clipPath>
</defs>
</svg>
