<svg width="280" height="376" viewBox="0 0 280 376" fill="none" xmlns="http://www.w3.org/2000/svg">
<g clip-path="url(#clip0_2615_14588)">
<rect width="280" height="376" fill="#3BB5F5"/>
<path d="M280 262.06L159.69 312.66L182.4 323.88L181.33 326.03C171.87 322.58 131.08 306.68 126.63 304.85C116.76 300.8 108.51 300.78 98.64 304.84C66.54 318.04 33.62 330.15 0 341.17V375.99H280V262.06Z" fill="url(#paint0_linear_2615_14588)"/>
<path fill-rule="evenodd" clip-rule="evenodd" d="M313.773 80.7104C313.85 61.1557 313.915 45.6968 313.902 41.4597C313.889 34.0641 310.268 27.4774 303.977 23.3687C299.611 20.5312 294.206 19.0161 288.325 19.0161C286.695 19.0161 285.026 19.1317 283.344 19.3628C278.837 19.9791 264.482 21.8151 244.606 24.3574C214.947 28.1451 174.335 33.3451 140.477 37.8261C105.964 42.3842 85.3954 45.2859 79.3222 46.4543C72.4916 47.764 67.5226 50.4089 64.1073 54.5176C60.769 58.5492 59.0356 63.9162 58.8173 70.9137C58.5606 79.2852 58.5606 119.794 58.8173 157.607C59.0356 188.717 59.3695 209.787 59.729 215.411C60.2169 223.063 62.3226 228.725 66.1359 232.705C70.0006 236.737 75.573 239.023 83.1869 239.652C86.4225 239.921 97.1564 240.063 115.081 240.063C115.376 240.063 115.684 240.063 115.979 240.063V383.545H130.051V240.05C134.186 240.037 138.461 240.024 142.878 239.998C178.945 239.819 222.42 239.382 251.078 239.061L252.362 383.558H266.434L265.15 238.907C275.499 238.791 281.867 238.702 282.085 238.702C290.418 238.599 298.546 235.363 304.388 229.829C310.448 224.09 313.696 216.271 313.529 207.797C313.427 202.25 313.401 185.469 313.478 157.902C313.555 133.083 313.671 103.834 313.773 80.7104Z" fill="white"/>
<path fill-rule="evenodd" clip-rule="evenodd" d="M57.7004 70.5928C57.4307 79.4136 57.4436 121.104 57.7004 157.851C57.893 185.109 58.2011 209.633 58.6248 216.053C59.1256 223.872 61.3083 229.778 65.2757 233.925C69.256 238.085 75.0595 240.486 82.9174 241.154C88.2586 241.603 112.808 241.642 143.045 241.488C198.23 241.205 272.378 240.32 283.125 240.178C291.792 240.063 300.061 236.737 306.07 231.049C311.963 225.477 315.686 217.632 315.507 208.323C315.391 202.083 315.391 182.182 315.455 158.133C315.571 111.872 315.879 50.2549 315.866 40.9718C315.853 33.0755 311.95 26.3218 305.543 22.1361C300.035 18.541 292.652 16.8462 284.281 17.9889C272.905 19.5425 197.177 29.0824 140.529 36.5678C110.561 40.5224 85.9218 43.9121 78.9499 45.2603C71.7854 46.6341 66.6496 49.4717 63.2086 53.6317C59.6777 57.8944 57.9315 63.5695 57.7004 70.5928ZM59.9602 70.657C60.1656 64.2115 61.6935 58.973 64.9419 55.0569C68.0876 51.2564 72.8126 48.7141 79.3736 47.443C86.3327 46.0948 110.908 42.7052 140.811 38.7249C197.459 31.2009 273.175 21.6226 284.55 20.0433C292.357 18.9648 299.265 20.5055 304.4 23.8566C310.23 27.6572 313.786 33.7817 313.799 40.959C313.825 50.2292 313.529 111.846 313.427 158.108C313.375 182.182 313.375 202.096 313.504 208.336C313.671 217.041 310.191 224.36 304.696 229.573C299.033 234.927 291.253 238.047 283.1 238.15C272.366 238.278 198.204 239.151 143.032 239.395C112.898 239.536 88.4255 239.485 83.0971 239.036C75.8556 238.419 70.4758 236.275 66.8165 232.449C63.1572 228.623 61.2313 223.114 60.7691 215.899C60.3582 209.504 60.0629 185.019 59.896 157.825C59.6648 121.129 59.6777 79.4778 59.9602 70.657Z" fill="black"/>
<path fill-rule="evenodd" clip-rule="evenodd" d="M71.7728 74.6886C71.3876 81.1982 71.4518 103.141 71.6957 127.434C72.0424 160.47 72.7357 197.82 73.1851 206.5C73.5318 213.061 74.5846 217.773 76.9214 220.739C78.8987 223.243 81.7876 224.54 85.9862 224.604C93.2662 224.719 126.033 224.18 162.549 223.474C211.775 222.511 267.82 221.253 277.347 220.906C284.191 220.662 289.198 218.402 292.408 214.306C295.361 210.532 296.774 205.165 296.619 198.27C296.517 193.635 296.427 182.785 296.363 168.957C296.144 128.384 296.016 62.1443 295.798 51.6415C295.656 44.8879 294.09 40.5738 291.047 38.0187C287.953 35.4122 283.292 34.6162 276.885 35.0014C269.348 35.4636 237.082 39.1614 201.144 43.4883C153.458 49.2276 99.3008 56.0712 87.7452 57.9072C82.6479 58.7161 78.7832 60.1541 76.1254 62.8505C73.5446 65.4312 72.0938 69.1675 71.7728 74.6886ZM72.8898 74.7528C73.198 69.5784 74.5076 66.0475 76.8957 63.6337C79.4123 61.0914 83.0716 59.7818 87.8993 59.0114C99.442 57.1625 153.587 50.2933 201.247 44.5412C237.159 40.2014 269.4 36.4908 276.924 36.0285C282.984 35.6562 287.413 36.3367 290.354 38.8019C293.217 41.2029 294.604 45.2987 294.745 51.6543C294.963 62.17 295.104 128.397 295.335 168.957C295.413 182.798 295.502 193.66 295.605 198.295C295.746 204.908 294.437 210.069 291.612 213.69C288.582 217.58 283.806 219.673 277.309 219.904C267.782 220.251 211.75 221.497 162.523 222.447C126.02 223.14 93.2662 223.679 85.999 223.551C82.1985 223.487 79.5535 222.357 77.756 220.084C75.5219 217.259 74.5846 212.727 74.2636 206.449C73.8142 197.769 73.1337 160.444 72.8128 127.421C72.556 103.167 72.5175 81.2496 72.8898 74.7528Z" fill="black"/>
<path fill-rule="evenodd" clip-rule="evenodd" d="M114.927 241.051L115.71 383.545H116.788L117.186 241.038C117.186 240.422 116.673 239.908 116.056 239.921C115.427 239.921 114.927 240.422 114.927 241.051Z" fill="black"/>
<path fill-rule="evenodd" clip-rule="evenodd" d="M250.923 240.525L251.707 383.545H252.785L253.183 240.512C253.183 239.896 252.669 239.395 252.053 239.395C251.411 239.395 250.91 239.909 250.923 240.525Z" fill="black"/>
<path fill-rule="evenodd" clip-rule="evenodd" d="M128.678 241.051L129.461 383.545H130.539L130.937 241.038C130.937 240.422 130.424 239.921 129.807 239.921C129.178 239.921 128.678 240.422 128.678 241.051Z" fill="black"/>
<path fill-rule="evenodd" clip-rule="evenodd" d="M264.675 240.538L265.406 383.545H266.485L266.934 240.512C266.921 239.896 266.421 239.395 265.792 239.395C265.162 239.395 264.662 239.909 264.675 240.538Z" fill="black"/>
<path fill-rule="evenodd" clip-rule="evenodd" d="M120.088 134.213C119.986 134.791 120.345 135.356 120.91 135.497L130.54 138.065C131.118 138.219 131.734 137.885 131.901 137.307C131.901 137.307 132.658 134.804 134.392 132.942C135.38 131.876 136.716 131.016 138.462 131.093C141.633 131.234 143.482 133.327 143.713 136.19C143.906 138.643 142.981 141.596 140.863 144.446C139.271 146.59 136.664 149.621 133.929 152.664C128.639 158.57 122.862 164.566 122.862 164.566C122.631 164.81 122.528 165.144 122.579 165.477L123.837 173.181C123.927 173.708 124.402 174.093 124.929 174.067L156.489 172.449C156.771 172.437 157.028 172.308 157.208 172.103C157.388 171.897 157.49 171.628 157.465 171.345L156.746 159.905C156.72 159.623 156.591 159.353 156.373 159.16C156.142 158.981 155.86 158.891 155.577 158.929L140.426 160.932C142.07 159.302 144.394 156.965 146.641 154.525C148.618 152.381 150.531 150.16 151.879 148.285C154.357 144.831 156.681 137.654 155.526 131.157C154.55 125.713 151.224 120.731 143.611 118.728C137.204 117.034 132.081 118.253 128.229 120.911C123.735 124.057 121 129.218 120.088 134.213ZM122.515 133.609C123.478 129.488 125.802 125.341 129.5 122.76C132.877 120.398 137.409 119.383 143.058 120.86C149.632 122.58 152.56 126.856 153.407 131.555C154.46 137.423 152.393 143.933 150.146 147.065C148.849 148.889 146.987 151.033 145.074 153.113C141.017 157.53 136.69 161.638 136.69 161.638C136.356 161.947 136.266 162.447 136.459 162.858C136.651 163.269 137.101 163.513 137.55 163.449L154.743 161.163L155.32 170.434L125.751 171.923L124.736 165.67C126.097 164.258 130.976 159.148 135.496 154.114C138.282 151.007 140.94 147.939 142.583 145.756C145.742 141.532 146.525 137.076 145.447 133.866C144.496 131.016 142.134 129.051 138.539 128.885C136.574 128.795 134.957 129.514 133.673 130.566C131.811 132.094 130.668 134.354 130.116 135.651L122.515 133.609Z" fill="black"/>
<path fill-rule="evenodd" clip-rule="evenodd" d="M177.16 117.958C171.626 118.536 167.543 121.322 164.706 125.354C160.867 130.798 159.352 138.578 159.66 146.102C159.917 152.522 162.202 158.274 165.797 162.422C169.79 167.031 175.427 169.689 181.769 169.098C186.931 168.636 191.027 165.876 193.929 161.754C197.626 156.503 199.36 148.979 198.846 141.262C198.422 134.765 196.419 128.974 193.12 124.802C189.358 120.012 183.927 117.303 177.16 117.958ZM177.391 120.192C183.323 119.576 188.125 121.925 191.463 126.098C194.558 129.963 196.419 135.343 196.856 141.378C197.369 148.619 195.829 155.694 192.375 160.65C189.82 164.322 186.186 166.8 181.59 167.224C175.876 167.737 170.805 165.336 167.222 161.163C163.91 157.311 161.843 151.957 161.637 146C161.393 138.938 162.806 131.645 166.452 126.573C168.956 123.081 172.551 120.667 177.391 120.192Z" fill="black"/>
<path fill-rule="evenodd" clip-rule="evenodd" d="M177.892 128.705C174.888 128.987 172.641 130.926 171.152 133.635C169.213 137.166 168.571 141.968 169.059 145.383C169.534 148.786 170.946 152.895 173.309 155.668C175.093 157.748 177.404 159.096 180.268 158.981C182.938 158.878 185.314 157.106 187.008 154.281C188.819 151.277 189.872 147.091 189.666 142.713C189.474 138.296 188.087 134.174 185.609 131.581C183.696 129.591 181.115 128.461 177.892 128.705ZM178.072 130.952C181.205 130.656 183.567 132.082 185.147 134.406C186.662 136.627 187.496 139.644 187.689 142.828C187.907 146.783 187.034 150.609 185.403 153.331C184.081 155.552 182.284 157.042 180.191 157.132C177.931 157.209 176.133 156.104 174.747 154.448C172.628 151.932 171.434 148.195 171.023 145.114C170.625 142.071 171.241 137.795 173.013 134.675C174.169 132.659 175.812 131.131 178.072 130.952Z" fill="black"/>
<path fill-rule="evenodd" clip-rule="evenodd" d="M204.984 161.715C204.791 161.972 204.702 162.293 204.766 162.601C204.817 162.909 205.01 163.192 205.267 163.359L212.354 167.814C212.816 168.097 213.407 168.02 213.779 167.622C213.779 167.622 223.345 157.157 233.475 145.525C237.879 140.466 242.386 135.202 246.251 130.464C251.374 124.198 254.609 118.035 256.022 112.116C257.755 104.823 256.753 97.8897 253.094 91.5855C249.859 86.0002 244.825 81.7632 238.752 79.0797C233.193 76.6402 226.76 75.4974 220.032 75.8184C211.892 76.2165 199.822 77.1794 187.458 78.2708C166.478 80.1325 144.663 82.3666 139.746 82.8674V75.1893C139.746 74.8169 139.515 74.4703 139.168 74.329C138.821 74.1878 138.423 74.2777 138.154 74.5473L116.955 96.4517C116.763 96.6571 116.66 96.9396 116.699 97.222C116.737 97.5045 116.904 97.7613 117.148 97.9025L140.696 111.795C140.991 111.962 141.351 111.975 141.646 111.808C141.941 111.641 142.121 111.333 142.121 110.986L142.16 100.201C146.666 99.79 168.032 97.864 187.933 96.2462C200.362 95.2319 212.213 94.346 219.031 94.0121C227.877 93.5756 233.886 97.5687 236.634 103.257C239.497 109.214 238.829 116.969 234.258 123.351C231.909 126.638 227.441 132.557 222.677 138.771C214.28 149.775 204.984 161.715 204.984 161.715ZM207.526 162.113C209.902 159.032 217.464 149.248 224.423 140.106C229.187 133.853 233.668 127.909 236.005 124.609C241.051 117.521 241.705 108.932 238.521 102.358C235.44 96.0151 228.802 91.4699 218.928 91.9706C212.097 92.3173 200.221 93.2418 187.766 94.2689C165.361 96.1307 141.107 98.3776 141.107 98.3776C140.619 98.429 140.234 98.827 140.234 99.3277L140.208 109.343L119.087 96.9011L137.871 77.4747V83.8945C137.871 84.1513 137.987 84.4081 138.179 84.5879C138.372 84.7676 138.629 84.8447 138.898 84.819C138.898 84.819 163.794 82.2382 187.599 80.1582C199.938 79.0797 211.969 78.1424 220.096 77.7572C226.503 77.4619 232.641 78.5404 237.918 80.8772C243.593 83.3938 248.292 87.3484 251.309 92.5741C254.686 98.429 255.598 104.849 253.98 111.615C252.619 117.265 249.499 123.132 244.582 129.103C240.717 133.802 236.21 139.053 231.806 144.074C223.216 153.896 215.012 162.884 212.726 165.387L207.526 162.113Z" fill="black"/>
<path fill-rule="evenodd" clip-rule="evenodd" d="M241.088 147.412C234.643 148.426 232.088 153.858 232.717 158.891C233.115 162.062 234.784 165.041 237.519 166.62C239.175 167.583 241.217 168.033 243.618 167.673C245.967 167.326 247.778 166.338 249.1 164.977C251.283 162.755 252.143 159.507 251.796 156.413C251.244 151.238 247.405 146.539 241.088 147.412ZM241.422 149.646C246.352 148.876 249.331 152.599 249.832 156.644C250.153 159.173 249.524 161.844 247.765 163.68C246.712 164.784 245.248 165.567 243.348 165.85C238.238 166.582 235.157 162.781 234.707 158.672C234.271 154.666 236.299 150.352 241.422 149.646Z" fill="black"/>
<path fill-rule="evenodd" clip-rule="evenodd" d="M214.138 114.863C207.693 115.878 205.138 121.309 205.767 126.342C206.165 129.514 207.834 132.492 210.569 134.072C212.225 135.035 214.267 135.484 216.668 135.125C219.017 134.778 220.828 133.789 222.15 132.428C224.333 130.207 225.193 126.958 224.847 123.864C224.295 118.69 220.455 113.99 214.138 114.863ZM214.472 117.098C219.403 116.327 222.381 120.064 222.882 124.095C223.203 126.625 222.574 129.295 220.815 131.131C219.762 132.236 218.298 133.019 216.398 133.301C211.288 134.033 208.206 130.233 207.757 126.124C207.308 122.118 209.349 117.804 214.472 117.098Z" fill="black"/>
</g>
<defs>
<linearGradient id="paint0_linear_2615_14588" x1="140" y1="391.523" x2="140" y2="284.16" gradientUnits="userSpaceOnUse">
<stop offset="0.0905619" stop-color="#59FFFF" stop-opacity="0"/>
<stop offset="0.8854" stop-color="#59E1FF"/>
</linearGradient>
<clipPath id="clip0_2615_14588">
<rect width="280" height="376" fill="white"/>
</clipPath>
</defs>
</svg>
