<svg xmlns="http://www.w3.org/2000/svg" viewBox="0 0 24 24" fill="none">  <path d="M11.8787 4.332C12.4483 4.332 13.0051 4.50091 13.4787 4.81737C13.9523 5.13383 14.3215 5.58362 14.5394 6.10987C14.7574 6.63613 14.8145 7.2152 14.7033 7.77386C14.5922 8.33253 14.3179 8.8457 13.9151 9.24847C13.5124 9.65125 12.9992 9.92554 12.4405 10.0367C11.8819 10.1478 11.3028 10.0908 10.7765 9.87278C10.2503 9.6548 9.8005 9.28566 9.48404 8.81204C9.16758 8.33843 8.99867 7.78161 8.99867 7.212C8.99867 6.44818 9.3021 5.71564 9.84221 5.17554C10.3823 4.63543 11.1149 4.332 11.8787 4.332ZM11.8787 2.604C10.9692 2.604 10.0801 2.8737 9.32394 3.37897C8.56774 3.88425 7.97835 4.60242 7.63031 5.44267C7.28227 6.28292 7.1912 7.2075 7.36863 8.09951C7.54606 8.99151 7.98402 9.81086 8.62712 10.454C9.27021 11.0971 10.0896 11.535 10.9816 11.7124C11.8736 11.8899 12.7982 11.7988 13.6384 11.4508C14.4787 11.1027 15.1968 10.5133 15.7021 9.75714C16.2074 9.00093 16.4771 8.11188 16.4771 7.2024C16.4771 5.98283 15.9926 4.81321 15.1302 3.95084C14.2679 3.08848 13.0982 2.604 11.8787 2.604Z" fill="#66727F"/>  <path d="M11.88 11.8437C16.0944 11.8437 19.032 13.9053 19.032 15.7557C19.032 17.6061 16.0944 19.6677 11.88 19.6677C7.6656 19.6677 4.728 17.6061 4.728 15.7557C4.728 13.9053 7.6656 11.8437 11.88 11.8437ZM11.88 10.1157C6.9768 10.1157 3 12.6405 3 15.7557C3 18.8709 6.9768 21.3957 11.88 21.3957C16.7832 21.3957 20.76 18.8709 20.76 15.7557C20.76 12.6405 16.7832 10.1157 11.88 10.1157Z" fill="#66727F"/></svg>