<svg viewBox="0 0 24 24" fill="none" xmlns="http://www.w3.org/2000/svg"><path fill-rule="evenodd" clip-rule="evenodd" d="M20.3675 7.11385V5.28136C20.3675 4.55689 20.0692 3.91765 19.5578 3.49148C19.0038 3.06532 18.2794 2.89486 17.4697 3.06532L4.55697 4.55689C2.42616 4.81258 2 5.79275 2 6.60246V19.4299C2 20.6658 3.02279 21.6886 4.25865 21.6886H20.1971C21.433 21.6886 22.4557 20.6658 22.4557 19.4299V9.37251C22.4131 8.17926 21.5182 7.2417 20.3675 7.11385ZM20.7085 15.9354C20.6659 15.9354 20.6232 15.9354 20.538 15.9354H16.5321C15.5945 15.9354 14.8275 15.1683 14.8275 14.2307C14.8275 13.2932 15.5945 12.5261 16.5321 12.5261H20.538C20.5806 12.5261 20.6232 12.5261 20.7085 12.5261V15.9354ZM4.72743 6.30415L17.7254 4.81258C17.768 4.81258 17.768 4.81258 17.8106 4.81258C18.1089 4.72735 18.3646 4.76997 18.4924 4.89782C18.6203 4.98305 18.6629 5.15351 18.6629 5.36659V7.15647H4.21604H4.17342H4.13081C3.87511 7.15647 3.78988 7.07124 3.66203 6.85816V6.73031C3.66203 6.55984 3.87511 6.38938 4.72743 6.30415ZM20.1545 20.0692H4.21604C3.91773 20.0692 3.66203 19.8135 3.66203 19.5151V8.77588C3.87511 8.8185 4.04557 8.8185 4.25865 8.8185H20.1545C20.4528 8.8185 20.7085 9.0742 20.7085 9.37251V10.8641C20.6659 10.8641 20.6232 10.8641 20.538 10.8641H16.5321C14.657 10.8641 13.1228 12.3983 13.1228 14.2734C13.1228 16.1485 14.657 17.6827 16.5321 17.6827H20.538C20.5806 17.6827 20.6232 17.6827 20.7085 17.6827V19.5578C20.7085 19.8135 20.4528 20.0692 20.1545 20.0692Z" fill="#66727F"/></svg>