<svg width="384" height="190" viewBox="0 0 384 190" fill="none" xmlns="http://www.w3.org/2000/svg">
<g clip-path="url(#clip0_2934_720)">
<path d="M368 0H16C7.16344 0 0 7.16344 0 16V174C0 182.837 7.16344 190 16 190H368C376.837 190 384 182.837 384 174V16C384 7.16344 376.837 0 368 0Z" fill="url(#paint0_radial_2934_720)"/>
<path d="M368 0H16C7.16344 0 0 7.16344 0 16V174C0 182.837 7.16344 190 16 190H368C376.837 190 384 182.837 384 174V16C384 7.16344 376.837 0 368 0Z" fill="url(#paint1_radial_2934_720)"/>
<path opacity="0.2" d="M229.89 264C233.005 264 236.218 263.655 239.44 262.976C243.125 262.199 246.713 261.002 250.106 259.418C253.485 257.839 256.867 255.697 260.158 253.051C263.368 250.47 266.453 247.391 269.328 243.9C271.937 240.731 274.353 237.236 276.714 233.214C277.865 231.252 278.862 229.425 279.762 227.629C280.259 226.637 280.736 225.638 281.095 224.878C281.149 224.829 281.194 224.767 281.245 224.67C282.353 222.596 283.295 220.858 284.289 219.112C285.899 216.305 287.42 213.916 288.938 211.81C290.502 209.643 292.21 207.62 294.015 205.798C295.376 204.443 296.831 203.163 298.338 201.993C299.802 200.857 301.415 199.77 303.131 198.763C304.833 197.78 306.629 196.889 308.467 196.113C310.279 195.349 312.249 194.665 314.323 194.081C316.705 193.425 319.211 192.914 321.77 192.562C324.207 192.227 326.826 192.033 329.554 191.987C329.852 191.983 330.149 191.981 330.447 191.981C331.906 191.981 333.426 192.025 334.963 192.111C336.882 192.219 338.963 192.403 341.513 192.689C343.779 192.943 352.462 194.089 354.547 194.329C356.91 194.601 359.05 194.795 361.088 194.921C362.677 195.019 364.287 195.069 365.874 195.069C366.435 195.069 367.003 195.063 367.564 195.051C371.108 194.973 374.647 194.595 378.081 193.927C381.42 193.278 384.696 192.314 387.817 191.062C390.887 189.831 393.879 188.246 396.71 186.35C399.459 184.509 402.106 182.268 404.579 179.688C405.87 178.342 407.064 176.935 408.129 175.505C409.157 174.125 410.129 172.598 411.1 170.838C413.158 167.104 414.743 162.823 415.946 157.748C416.097 157.113 416.243 156.454 416.381 155.788C416.79 154.244 417.12 152.622 417.392 150.829C417.636 149.215 417.807 147.531 417.915 145.679C418.004 144.136 418.023 142.536 417.972 140.922C417.754 134.136 416.305 127.833 413.665 122.189C413.557 121.958 413.446 121.728 413.334 121.498C412.662 119.898 411.986 118.444 411.268 117.055C410.068 114.736 408.609 112.404 406.931 110.126C406.09 108.985 405.224 107.91 404.26 106.724C403.271 105.509 397.13 98.2527 395.946 96.8253C394.087 94.5832 392.585 92.6754 391.218 90.8211C389.39 88.3234 387.858 85.9738 386.536 83.6383C385.753 82.2551 385.005 80.8124 384.364 79.5688C383.71 78.2973 383.026 76.9258 382.275 75.376C379.952 70.5825 377.769 65.6258 375.658 60.8323C375.283 59.9788 373.212 55.3 372.627 53.9978C372.111 52.8527 371.583 51.7464 371.056 50.7097C369.991 48.6134 368.812 46.5873 367.553 44.6879C364.992 40.8219 362.044 37.4668 358.792 34.7157C358.248 34.2565 357.688 33.8068 357.126 33.3793C356.915 33.1999 356.703 33.0227 356.488 32.8476C355.369 31.9331 354.1 31.0451 352.718 30.208C351.499 29.4698 350.164 28.7809 348.639 28.102C345.881 26.8742 342.923 25.9901 339.847 25.4739C338.283 25.2117 336.703 25.0559 335.151 25.0114C334.885 25.0039 334.612 25 334.341 25C333.061 25 331.739 25.0814 330.299 25.2487C327.32 25.595 324.265 26.3724 320.96 27.6253C318.147 28.6912 315.273 30.1094 312.171 31.9606C309.657 33.4609 307.009 35.2637 304.077 37.4718C301.639 39.3072 299.102 41.3621 296.32 43.7538C293.723 45.9857 291.137 48.32 288.635 50.5775C282.998 55.6642 277.169 60.9239 270.836 65.3671C269.424 66.3507 268.003 67.2824 266.613 68.1362C265.313 68.9348 263.919 69.7496 262.469 70.5579C259.08 72.4485 256 73.8947 253.053 74.9792C253.065 74.9754 253.077 74.9715 253.089 74.9674C252.6 75.1415 252.112 75.3083 251.637 75.4614C250.679 75.6937 249.639 75.9151 248.454 76.1381C247.13 76.3828 241.605 77.2742 239.964 77.5083C236.852 77.9516 233.73 78.3062 230.686 78.5621C227.046 78.8685 223.432 79.0238 219.945 79.0238C217.336 79.0238 214.734 78.9369 212.21 78.7656L212.197 78.7654C212.189 78.7636 212.18 78.7632 212.171 78.7628C210.242 78.6241 208.272 78.4285 206.317 78.1814C204.344 77.9321 202.388 77.6316 200.569 77.344C199.746 77.2139 198.923 77.0813 198.1 76.9487C195.135 76.4711 192.069 75.9773 189.037 75.6101C185.711 75.2071 182.756 75.0112 180.004 75.0112C179.183 75.0112 178.366 75.0289 177.576 75.0641C175.659 75.1495 173.719 75.366 171.809 75.7077C170.221 75.9923 168.557 76.3977 166.865 76.9127C163.934 77.8039 160.99 79.053 158.116 80.6251C155.377 82.1222 152.734 83.9501 150.26 86.058C147.842 88.1187 145.63 90.4333 143.686 92.9379C142.879 93.9776 142.046 95.1605 141.137 96.5543C140.231 97.9459 139.432 99.3369 138.764 100.689C138.092 102.047 137.56 103.415 137.184 104.755C136.943 105.61 136.791 106.456 136.729 107.271C136.584 107.954 136.458 108.658 136.356 109.362C135.829 112.994 135.887 116.926 136.528 121.048C137.109 124.795 138.212 128.687 139.804 132.617C140.627 134.648 141.489 136.462 142.438 138.163C143.405 139.896 144.544 141.627 145.919 143.453C148.185 146.463 150.922 149.402 154.534 152.703C157.658 155.558 160.997 158.271 164.227 160.894C167.57 163.609 171.027 166.418 174.249 169.387C177.581 172.458 180.288 175.381 182.525 178.323C183.246 179.403 183.926 180.518 184.544 181.638C185.479 183.329 186.34 185.175 187.103 187.123C187.781 188.885 188.392 190.778 188.919 192.749C189.495 194.903 189.915 197.177 190.204 199.702C190.668 203.978 190.674 208.346 190.68 212.57C190.683 214.376 190.686 216.244 190.724 218.079C190.798 221.585 191.011 224.491 191.397 227.227C191.747 229.71 192.295 232.264 193.024 234.817C193.718 237.247 194.598 239.645 195.638 241.944C196.687 244.26 197.934 246.479 199.348 248.539C200.797 250.651 202.437 252.593 204.222 254.312C205.086 255.144 206.034 255.957 207.122 256.796C208.185 257.617 209.357 258.377 210.607 259.055C212.056 259.84 213.68 260.541 215.572 261.196C216.077 261.417 216.599 261.629 217.123 261.825C218.778 262.445 220.589 262.948 222.507 263.321C224.263 263.662 226.14 263.877 228.087 263.961C228.688 263.987 229.295 264 229.89 264ZM416.182 137.619C416.196 137.755 416.231 138.125 416.231 138.125C416.215 137.956 416.182 137.619 416.182 137.619Z" fill="#00C185"/>
<path d="M250.808 132.781C250.808 132.781 252.152 135.228 254.946 134.967C257.779 134.649 258.027 131.364 258.027 131.364C258.027 131.364 257.698 131.474 257.215 131.562C256.308 131.777 254.83 132.147 253.817 132.332C253.045 132.473 252.312 132.556 251.734 132.662C251.194 132.711 250.808 132.781 250.808 132.781Z" fill="white"/>
<rect width="384" height="190" fill="url(#paint2_radial_2934_720)"/>
<path opacity="0.2" d="M362.509 58.0055C359.547 57.8024 356.468 57.9202 353.36 58.3566C349.805 58.8546 346.314 59.7587 342.985 61.0442C339.668 62.3247 336.312 64.1411 333.009 66.442C329.788 68.6874 326.653 71.4142 323.691 74.5471C321.003 77.3901 318.478 80.5565 315.97 84.2271C314.747 86.0183 313.679 87.6904 312.707 89.3395C312.17 90.2509 311.651 91.1699 311.26 91.8692C311.205 91.9126 311.159 91.9688 311.103 92.0568C309.914 93.9568 308.905 95.5491 307.847 97.1443C306.132 99.709 304.53 101.881 302.948 103.785C301.32 105.744 299.563 107.556 297.728 109.172C296.344 110.371 294.878 111.494 293.369 112.508C291.902 113.492 290.297 114.422 288.6 115.268C286.916 116.091 285.151 116.821 283.352 117.439C281.579 118.047 279.661 118.569 277.651 118.989C275.342 119.457 272.926 119.779 270.469 119.947C268.129 120.107 265.626 120.121 263.029 119.987C262.746 119.97 262.463 119.953 262.179 119.933C260.792 119.838 259.349 119.697 257.893 119.515C256.076 119.287 254.108 118.977 251.703 118.538C249.564 118.148 241.38 116.492 239.414 116.127C237.184 115.715 235.162 115.391 233.232 115.138C231.728 114.94 230.199 114.788 228.691 114.685C228.157 114.648 227.616 114.616 227.082 114.591C223.706 114.435 220.317 114.563 217.007 114.973C213.79 115.373 210.611 116.075 207.561 117.063C204.562 118.033 201.612 119.345 198.796 120.964C196.063 122.534 193.399 124.493 190.878 126.785C189.564 127.981 188.335 129.242 187.23 130.532C186.161 131.777 185.138 133.166 184.1 134.777C181.899 138.193 180.112 142.162 178.636 146.909C178.451 147.504 178.269 148.121 178.095 148.745C177.605 150.187 177.185 151.708 176.81 153.395C176.472 154.915 176.2 156.505 175.977 158.258C175.791 159.72 175.668 161.241 175.612 162.779C175.377 169.247 176.343 175.335 178.485 180.876C178.572 181.103 178.663 181.329 178.755 181.554C179.289 183.121 179.837 184.546 180.429 185.915C181.419 188.199 182.654 190.511 184.101 192.787C184.826 193.928 185.58 195.006 186.419 196.197C187.28 197.417 192.647 204.719 193.68 206.154C195.301 208.407 196.605 210.321 197.784 212.172C199.359 214.668 200.662 217.001 201.767 219.309C202.421 220.676 203.039 222.096 203.567 223.321C204.107 224.573 204.667 225.922 205.28 227.445C207.177 232.156 208.929 237.012 210.623 241.709C210.925 242.545 212.588 247.13 213.06 248.406C213.476 249.529 213.906 250.615 214.339 251.635C215.215 253.699 216.203 255.703 217.277 257.592C219.46 261.435 222.045 264.818 224.958 267.647C225.445 268.12 225.949 268.583 226.456 269.027C226.644 269.211 226.834 269.393 227.026 269.574C228.032 270.517 229.18 271.444 230.44 272.33C231.551 273.112 232.776 273.854 234.181 274.6C236.724 275.948 239.479 276.981 242.371 277.672C243.841 278.024 245.333 278.275 246.807 278.42C247.059 278.444 247.318 278.465 247.577 278.483C248.793 278.567 250.057 278.576 251.436 278.51C254.292 278.375 257.248 277.835 260.474 276.859C263.217 276.029 266.044 274.868 269.114 273.31C271.603 272.048 274.239 270.506 277.171 268.597C279.609 267.011 282.156 265.222 284.958 263.129C287.573 261.176 290.185 259.125 292.712 257.142C298.405 252.672 304.291 248.05 310.603 244.238C312.011 243.394 313.423 242.602 314.801 241.88C316.089 241.206 317.468 240.521 318.898 239.848C322.246 238.27 325.27 237.097 328.143 236.257C328.13 236.26 328.119 236.263 328.107 236.267C328.584 236.133 329.059 236.006 329.521 235.891C330.446 235.733 331.451 235.59 332.591 235.455C333.868 235.309 339.18 234.822 340.756 234.706C343.744 234.488 346.735 234.355 349.648 234.31C353.129 234.256 356.576 234.344 359.892 234.571C362.372 234.742 364.841 234.995 367.23 235.323L367.243 235.323C367.251 235.325 367.259 235.327 367.267 235.327C369.093 235.585 370.954 235.9 372.797 236.262C374.656 236.628 376.496 237.042 378.208 237.434C378.983 237.611 379.756 237.791 380.531 237.971C383.319 238.619 386.202 239.289 389.062 239.836C392.199 240.436 394.995 240.816 397.613 240.996C398.393 241.049 399.172 241.085 399.925 241.103C401.753 241.147 403.613 241.068 405.452 240.867C406.98 240.7 408.588 240.423 410.232 240.045C413.078 239.388 415.959 238.392 418.794 237.085C421.497 235.84 424.13 234.274 426.619 232.43C429.054 230.629 431.308 228.572 433.321 226.317C434.156 225.381 435.025 224.31 435.981 223.044C436.933 221.78 437.784 220.509 438.507 219.267C439.235 218.02 439.831 216.753 440.276 215.503C440.56 214.706 440.761 213.91 440.872 213.14C441.055 212.5 441.22 211.838 441.363 211.176C442.102 207.755 442.303 204.013 441.963 200.05C441.655 196.45 440.86 192.675 439.602 188.834C438.953 186.849 438.252 185.068 437.46 183.388C436.653 181.676 435.683 179.956 434.494 178.129C432.536 175.12 430.125 172.146 426.906 168.771C424.121 165.852 421.123 163.054 418.223 160.349C415.221 157.547 412.116 154.651 409.246 151.617C406.277 148.479 403.895 145.523 401.96 142.579C401.344 141.504 400.77 140.399 400.255 139.293C399.476 137.624 398.778 135.813 398.18 133.911C397.651 132.191 397.193 130.35 396.82 128.442C396.413 126.356 396.162 124.165 396.052 121.745C395.89 117.648 396.169 113.494 396.439 109.476C396.554 107.758 396.674 105.982 396.757 104.234C396.916 100.895 396.903 98.1172 396.714 95.4904C396.544 93.1059 396.189 90.6411 395.662 88.1653C395.16 85.8088 394.481 83.4712 393.642 81.2173C392.796 78.9463 391.754 76.7544 390.544 74.7028C389.304 72.6001 387.872 70.646 386.286 68.8942C385.519 68.0466 384.67 67.2116 383.69 66.3424C382.734 65.4931 381.668 64.6939 380.524 63.9675C379.197 63.1258 377.699 62.3536 375.942 61.6068C375.477 61.3639 374.994 61.1285 374.508 60.9072C372.975 60.2101 371.285 59.6132 369.486 59.1334C367.838 58.6945 366.067 58.3671 364.221 58.1602C363.65 58.0965 363.075 58.0445 362.509 58.0055ZM177.099 166.037C177.094 165.907 177.085 165.553 177.085 165.553C177.089 165.714 177.099 166.037 177.099 166.037Z" fill="#DAE3FF"/>
<rect width="384" height="190" rx="16" fill="url(#paint3_radial_2934_720)"/>
<path opacity="0.1" d="M372.578 47.5738C356.951 26.5427 336.942 17.2428 319.895 17.0615C273.917 16.5851 282.221 59.3096 256.903 83.2339C238.005 101.09 221.489 93.6375 188.103 108.461C154.718 123.284 144.034 184.552 203.848 198.214C267.252 212.696 342.814 229.601 387.82 189.757C423.537 158.136 406.6 93.3679 372.578 47.5738Z" fill="white"/>
<path d="M368 0H16C7.16344 0 0 7.16344 0 16V174C0 182.837 7.16344 190 16 190H368C376.837 190 384 182.837 384 174V16C384 7.16344 376.837 0 368 0Z" fill="url(#paint4_radial_2934_720)"/>
<path d="M288 160L289 161.5L290.5 162L300.5 160L308.5 161.5L307.5 162.5V164.5L309.5 165.5L316.5 163L328.5 165L332.5 163L315 156.5L314 155.5L323.5 152L327 153L329.5 151.5L325.5 149L327 141.5H325L320.5 148L293 155.5L289 158L288 160Z" fill="white"/>
<path d="M296.5 150L297 155.5L306 153.5L300 149L296.5 150Z" fill="white"/>
<path fill-rule="evenodd" clip-rule="evenodd" d="M288.654 70.0556C276.71 57.7199 260.255 57.7949 253.184 72.5679C244.567 90.5701 265.121 113.007 287.242 124.444C303.254 114.47 331.824 93.6746 321.926 73.0096C316.233 61.1229 300.254 56.9116 288.654 70.0556Z" fill="url(#paint5_linear_2934_720)"/>
<path fill-rule="evenodd" clip-rule="evenodd" d="M292.141 156.58C292.141 156.58 293.148 156.095 294.435 155.648C295.175 155.391 296.01 155.148 296.796 155.02C297.719 154.868 301.731 153.845 306.18 152.657C309.022 151.897 312.044 151.078 314.547 150.381C317.488 149.563 319.708 148.918 320.084 148.83C320.269 148.786 320.501 148.671 320.75 148.465C321.136 148.147 321.622 147.581 322.128 146.904C323.333 145.29 324.687 143.029 325.106 142.317C325.106 142.317 326.4 142.112 326.4 142.112L325.416 147.463C325.368 147.71 325.529 147.95 325.776 147.998C326.023 148.046 326.262 147.885 326.311 147.638L327.569 141.577C327.601 141.41 327.551 141.237 327.433 141.113C327.315 140.989 327.144 140.931 326.975 140.955L324.682 141.268C324.517 141.292 324.372 141.389 324.287 141.533C324.287 141.533 322.96 143.74 321.647 145.545C321.164 146.209 320.684 146.817 320.277 147.231C320.08 147.433 319.934 147.598 319.806 147.627C319.315 147.74 315.681 148.733 311.424 149.946C307.003 151.205 301.908 152.702 298.93 153.519C297.805 153.828 296.989 154.043 296.635 154.111C295.803 154.271 294.923 154.553 294.144 154.849C292.822 155.352 291.793 155.887 291.793 155.887C291.601 155.983 291.524 156.216 291.62 156.407C291.716 156.599 291.949 156.676 292.141 156.58Z" fill="black"/>
<path fill-rule="evenodd" clip-rule="evenodd" d="M289.141 157.583C288.145 158.415 287.633 159.444 287.639 160.303C287.647 161.36 288.378 162.257 290.073 162.425C290.626 162.474 291.432 162.436 292.359 162.317C293.034 162.23 293.777 162.104 294.532 161.948C297.596 161.317 300.884 160.317 300.884 160.317C301.088 160.264 301.212 160.055 301.159 159.85C301.106 159.645 300.896 159.522 300.691 159.575C300.691 159.575 298.162 160.119 295.486 160.597C294.736 160.731 293.975 160.858 293.257 160.975C291.988 161.182 290.854 161.349 290.154 161.306C289.172 161.262 288.65 160.874 288.608 160.266C288.563 159.617 288.95 158.841 289.658 158.161C289.818 158.018 289.831 157.773 289.688 157.613C289.545 157.454 289.3 157.44 289.141 157.583Z" fill="black"/>
<path fill-rule="evenodd" clip-rule="evenodd" d="M301.285 157.529C300.594 157.673 300.062 157.928 299.738 158.207C299.43 158.473 299.297 158.781 299.304 159.068C299.314 159.494 299.684 159.992 300.673 160.288C301.189 160.441 307.791 161.811 314.449 163.121C316.83 163.589 319.219 164.048 321.336 164.442C324.697 165.068 327.374 165.532 328.24 165.684C328.34 165.702 328.442 165.699 328.54 165.675C329.092 165.539 329.788 165.303 330.476 165.044C331.865 164.521 333.221 163.909 333.221 163.909C333.481 163.794 333.646 163.532 333.637 163.248C333.628 162.963 333.448 162.713 333.181 162.614C333.181 162.614 327.655 160.645 322.837 158.948C319.498 157.772 316.499 156.729 315.92 156.539C315.135 156.281 314.485 155.983 314.283 155.518C314.158 155.233 314.261 154.906 314.59 154.504C314.726 154.342 314.705 154.1 314.544 153.964C314.382 153.827 314.14 153.848 314.003 154.009C313.396 154.705 313.322 155.318 313.526 155.833C313.779 156.471 314.576 157.002 315.627 157.385L331.038 163.289C330.703 163.419 330.341 163.556 329.977 163.686C329.405 163.89 328.828 164.08 328.347 164.2C327.627 164.07 326.089 163.781 324.086 163.422C322.19 163.083 319.878 162.678 317.457 162.262C314.683 161.785 311.765 161.297 309.161 160.861C304.767 160.127 301.272 159.555 300.902 159.46C300.598 159.383 300.373 159.294 300.227 159.182C300.122 159.102 300.077 159.015 300.134 158.922C300.312 158.632 300.79 158.381 301.443 158.215C301.632 158.171 301.75 157.982 301.707 157.793C301.663 157.604 301.474 157.485 301.285 157.529Z" fill="black"/>
<path fill-rule="evenodd" clip-rule="evenodd" d="M303.126 157.611C303.695 157.465 304.417 157.308 305.208 157.129C305.871 156.979 306.584 156.829 307.293 156.657C307.855 156.52 308.413 156.368 308.948 156.223C309.891 155.968 310.751 155.718 311.428 155.563C311.538 155.545 311.613 155.44 311.595 155.33C311.577 155.219 311.473 155.144 311.362 155.162C310.663 155.23 309.762 155.335 308.789 155.503C308.238 155.598 307.665 155.707 307.098 155.842C306.382 156.011 305.676 156.217 305.02 156.414C304.234 156.65 303.527 156.893 302.968 157.093C302.825 157.137 302.745 157.288 302.788 157.431C302.832 157.574 302.984 157.654 303.126 157.611Z" fill="black"/>
<path fill-rule="evenodd" clip-rule="evenodd" d="M315.12 155.47C315.12 155.47 315.966 155.206 317.168 154.793C317.585 154.65 318.043 154.489 318.521 154.31C320.207 153.678 322.157 152.886 323.536 152.378C323.816 152.274 323.958 151.962 323.854 151.682C323.75 151.402 323.438 151.26 323.158 151.364C321.777 151.885 319.801 152.639 318.136 153.343C317.665 153.542 317.222 153.742 316.821 153.927C315.665 154.46 314.873 154.86 314.873 154.86C314.704 154.929 314.623 155.121 314.691 155.289C314.76 155.458 314.952 155.539 315.12 155.47Z" fill="black"/>
<path fill-rule="evenodd" clip-rule="evenodd" d="M324.341 148.515C324.341 148.515 323.486 148.574 322.47 149.115C321.961 149.386 321.423 149.786 320.923 150.35C320.818 150.482 320.781 150.657 320.825 150.82C320.869 150.983 320.989 151.116 321.146 151.177C322.234 151.634 323.49 152.202 324.616 152.636C325.619 153.022 326.519 153.303 327.068 153.429C327.209 153.464 327.357 153.446 327.487 153.38L329.969 151.98C330.134 151.89 330.238 151.718 330.24 151.53C330.243 151.342 330.143 151.167 329.981 151.073L325.903 148.935C325.744 148.843 325.539 148.897 325.447 149.057C325.355 149.216 325.41 149.421 325.569 149.513L328.655 151.464L327.17 152.185L322.238 150.437C322.464 150.208 322.696 150.019 322.923 149.864C323.723 149.316 324.424 149.168 324.424 149.168C324.605 149.145 324.732 148.98 324.709 148.8C324.686 148.62 324.521 148.492 324.341 148.515Z" fill="black"/>
<path fill-rule="evenodd" clip-rule="evenodd" d="M321.483 145.188L319.409 145.419C319.242 145.446 319.106 145.569 319.062 145.732L318.571 147.929C318.523 148.107 318.629 148.29 318.807 148.338C318.985 148.386 319.168 148.281 319.216 148.103L319.813 146.214L321.588 145.838C321.767 145.809 321.889 145.64 321.86 145.46C321.831 145.281 321.662 145.159 321.483 145.188Z" fill="black"/>
<path fill-rule="evenodd" clip-rule="evenodd" d="M302.826 150.572L300.276 148.665C300.192 148.602 300.089 148.575 299.986 148.587C299.48 148.639 298.927 148.762 298.397 148.914C297.45 149.187 296.581 149.548 296.211 149.629C295.987 149.678 295.843 149.896 295.887 150.121C295.948 150.409 296.019 150.844 296.093 151.321C296.288 152.6 296.493 154.184 296.493 154.184C296.512 154.367 296.676 154.5 296.859 154.481C297.042 154.462 297.176 154.298 297.157 154.115C297.157 154.115 297.056 152.829 296.929 151.631C296.879 151.161 296.825 150.704 296.773 150.342C297.308 150.17 298.149 149.859 299 149.627C299.317 149.54 299.634 149.461 299.937 149.412C299.938 149.411 302.45 151.112 302.45 151.112C302.6 151.216 302.805 151.179 302.909 151.03C303.012 150.881 302.975 150.675 302.826 150.572Z" fill="black"/>
<path fill-rule="evenodd" clip-rule="evenodd" d="M308.644 161.185C307.115 161.69 306.752 163.262 307.256 164.47C307.724 165.594 308.96 166.41 310.714 165.874C311.608 165.548 312.479 165.239 313.266 164.93C315.454 164.07 317.033 163.355 317.033 163.355C317.204 163.293 317.292 163.104 317.23 162.933C317.168 162.762 316.979 162.674 316.809 162.736C316.809 162.736 314.816 163.29 312.249 164.061C311.628 164.247 310.979 164.463 310.312 164.67C309.315 165.031 308.578 164.634 308.259 164.007C307.892 163.287 308.017 162.314 308.924 161.908C309.124 161.831 309.223 161.606 309.146 161.406C309.069 161.207 308.844 161.108 308.644 161.185Z" fill="black"/>
<path fill-rule="evenodd" clip-rule="evenodd" d="M310.19 164.426C310.414 164.157 310.527 163.773 310.468 163.409C310.406 163.02 310.163 162.688 309.899 162.526C309.789 162.437 309.627 162.455 309.538 162.566C309.449 162.676 309.467 162.838 309.577 162.927C309.651 163.009 309.671 163.134 309.707 163.262C309.741 163.382 309.755 163.513 309.765 163.643C309.777 163.81 309.804 163.978 309.733 164.121C309.648 164.247 309.683 164.418 309.809 164.502C309.935 164.586 310.106 164.552 310.19 164.426Z" fill="black"/>
<path fill-rule="evenodd" clip-rule="evenodd" d="M329.342 147.141C347.419 140.504 364.226 122.291 368.84 99.4904C372.518 81.3199 368.459 60.2364 351.141 39.7801C331.627 16.7571 303.263 8.33035 276.385 12.0889C249.426 15.8589 223.97 31.8906 210.44 57.7076C197.867 81.7173 199.688 111.931 213.595 135.776C226.368 157.676 249.328 174.198 280.608 175.603C295.869 176.276 309.16 176.5 320.275 176.484C345.873 176.447 359.929 175.141 359.929 175.141C360.043 175.13 360.127 175.03 360.117 174.915C360.106 174.801 360.005 174.717 359.891 174.728C359.891 174.728 345.845 175.966 320.275 175.894C309.169 175.863 295.889 175.587 280.643 174.853C249.691 173.388 227.021 156.99 214.41 135.3C200.701 111.721 198.87 81.8796 211.303 58.1596C224.678 32.6219 249.856 16.7764 276.517 13.0299C303.098 9.2946 331.159 17.5879 350.483 40.3381C367.655 60.5319 371.723 81.3684 368.132 99.3479C363.62 121.933 347.034 140.011 329.155 146.633C329.015 146.685 328.943 146.841 328.995 146.981C329.046 147.121 329.202 147.193 329.342 147.141Z" fill="black"/>
</g>
<defs>
<radialGradient id="paint0_radial_2934_720" cx="0" cy="0" r="1" gradientUnits="userSpaceOnUse" gradientTransform="translate(222.24 171.319) rotate(-136.294) scale(287.51 169.009)">
<stop stop-color="#FFA841"/>
<stop offset="1" stop-color="#FF9211"/>
</radialGradient>
<radialGradient id="paint1_radial_2934_720" cx="0" cy="0" r="1" gradientUnits="userSpaceOnUse" gradientTransform="translate(222.24 171.319) rotate(-136.294) scale(287.51 169.009)">
<stop stop-color="#009A6B"/>
<stop offset="1" stop-color="#006848"/>
</radialGradient>
<radialGradient id="paint2_radial_2934_720" cx="0" cy="0" r="1" gradientUnits="userSpaceOnUse" gradientTransform="translate(222.24 171.319) rotate(-136.294) scale(287.51 169.009)">
<stop stop-color="#68A4EB"/>
<stop offset="1" stop-color="#1A6BC8"/>
</radialGradient>
<radialGradient id="paint3_radial_2934_720" cx="0" cy="0" r="1" gradientUnits="userSpaceOnUse" gradientTransform="translate(235 266.5) rotate(-100.261) scale(407.009 194.517)">
<stop stop-color="#C9A6F5"/>
<stop offset="0.798093" stop-color="#9C51FC"/>
</radialGradient>
<radialGradient id="paint4_radial_2934_720" cx="0" cy="0" r="1" gradientUnits="userSpaceOnUse" gradientTransform="translate(222.24 171.319) rotate(-136.294) scale(287.51 169.009)">
<stop stop-color="#79D8C0"/>
<stop offset="1" stop-color="#58BFAB"/>
</radialGradient>
<linearGradient id="paint5_linear_2934_720" x1="280.485" y1="114.013" x2="302.605" y2="74.8501" gradientUnits="userSpaceOnUse">
<stop stop-color="#DAFFCE"/>
<stop offset="1" stop-color="#E2FFD9"/>
</linearGradient>
<clipPath id="clip0_2934_720">
<rect width="384" height="190" rx="16" fill="white"/>
</clipPath>
</defs>
</svg>
