<svg width="384" height="190" viewBox="0 0 384 190" fill="none" xmlns="http://www.w3.org/2000/svg">
<path d="M368 0H16C7.16344 0 0 7.16344 0 16V174C0 182.837 7.16344 190 16 190H368C376.837 190 384 182.837 384 174V16C384 7.16344 376.837 0 368 0Z" fill="url(#paint0_radial_3198_1231)"/>
<path d="M368 0H16C7.16344 0 0 7.16344 0 16V174C0 182.837 7.16344 190 16 190H368C376.837 190 384 182.837 384 174V16C384 7.16344 376.837 0 368 0Z" fill="url(#paint1_radial_3198_1231)"/>
<path d="M368 0H16C7.16344 0 0 7.16344 0 16V174C0 182.837 7.16344 190 16 190H368C376.837 190 384 182.837 384 174V16C384 7.16344 376.837 0 368 0Z" fill="url(#paint2_radial_3198_1231)"/>
<defs>
<radialGradient id="paint0_radial_3198_1231" cx="0" cy="0" r="1" gradientUnits="userSpaceOnUse" gradientTransform="translate(320 190) rotate(-143.631) scale(320.412 278.851)">
<stop stop-color="#9C51FC"/>
<stop offset="1" stop-color="#4F84FF"/>
</radialGradient>
<radialGradient id="paint1_radial_3198_1231" cx="0" cy="0" r="1" gradientUnits="userSpaceOnUse" gradientTransform="translate(477 282.5) rotate(-149.364) scale(554.378 325.884)">
<stop stop-color="#E97D7C"/>
<stop offset="1" stop-color="#4C6BEC"/>
</radialGradient>
<radialGradient id="paint2_radial_3198_1231" cx="0" cy="0" r="1" gradientUnits="userSpaceOnUse" gradientTransform="translate(365.5 251) rotate(-134.713) scale(353.204 307.389)">
<stop stop-color="#FFEA29"/>
<stop offset="1" stop-color="#FC7A51"/>
</radialGradient>
</defs>
</svg>
