<svg width="384" height="190" viewBox="0 0 384 190" fill="none" xmlns="http://www.w3.org/2000/svg">
<path d="M368 0H16C7.16344 0 0 7.16344 0 16V174C0 182.837 7.16344 190 16 190H368C376.837 190 384 182.837 384 174V16C384 7.16344 376.837 0 368 0Z" fill="url(#paint0_radial_3035_1374)"/>
<g clip-path="url(#clip0_3035_1374)">
<path d="M282.385 148.154H281.154V142.154H282.385L284.154 144.616L285.846 142.154H287.077V148.154H285.846V144L284.462 146H283.769L282.385 144.077V148.154Z" fill="white"/>
<path d="M289.539 148.154H288.462V142.154H289.693V146.077L292.616 142.154H293.693V148.154H292.462V144.231L289.539 148.154Z" fill="white"/>
<path d="M296.385 148.154H295.154V142.154H296.385V144.385H299.077V142.154H300.308V148.154H299.077V145.539H296.385V148.154Z" fill="white"/>
<path d="M301.462 145.154C301.462 144.231 301.77 143.539 302.385 142.924C303.001 142.308 303.693 142 304.616 142C305.539 142 306.232 142.308 306.847 142.924C307.462 143.539 307.77 144.308 307.77 145.154C307.77 146.001 307.462 146.77 306.847 147.385C306.232 148.001 305.539 148.308 304.616 148.308C303.693 148.308 303.001 148.001 302.385 147.385C301.77 146.77 301.462 146.001 301.462 145.154ZM303.232 146.539C303.616 146.924 304.001 147.077 304.539 147.077C305.078 147.077 305.539 146.924 305.847 146.539C306.232 146.154 306.385 145.693 306.385 145.154C306.385 144.616 306.232 144.077 305.847 143.77C305.462 143.385 305.078 143.231 304.539 143.231C304.001 143.231 303.539 143.385 303.232 143.77C302.847 144.154 302.693 144.616 302.693 145.154C302.693 145.693 302.847 146.154 303.232 146.539Z" fill="white"/>
<path d="M311.385 148.154H308.77V142.154H313.155V143.231H310.001V144.231H311.385C312.078 144.231 312.616 144.385 313.078 144.77C313.462 145.154 313.693 145.616 313.693 146.231C313.693 146.847 313.462 147.308 313.078 147.693C312.693 148 312.155 148.154 311.385 148.154ZM310.078 145.231V147.077H311.308C311.693 147.077 311.924 147 312.155 146.847C312.385 146.693 312.462 146.462 312.462 146.154C312.462 145.847 312.385 145.616 312.155 145.462C311.924 145.308 311.693 145.231 311.308 145.231H310.078Z" fill="white"/>
<path d="M316.001 148.154H314.77V142.154H317.385C318.001 142.154 318.539 142.308 318.924 142.693C319.308 143 319.462 143.462 319.462 144C319.462 144.539 319.308 145 318.924 145.308C318.539 145.616 318.001 145.847 317.385 145.847H316.001V148.154ZM316.001 143.231V144.693H317.308C317.616 144.693 317.847 144.616 318.001 144.462C318.154 144.308 318.231 144.154 318.231 143.924C318.231 143.693 318.154 143.462 318.001 143.385C317.847 143.308 317.616 143.154 317.308 143.154H316.001V143.231Z" fill="white"/>
<path d="M321.692 148.154H320.461V142.154H321.692V144.385H324.385V142.154H325.615V148.154H324.385V145.539H321.692V148.154Z" fill="white"/>
<path d="M327.847 148.155H326.539L329.154 142.078H330.308L332.924 148.155H331.616L331.001 146.77H328.462L327.847 148.155ZM329.693 143.616L328.77 145.693H330.539L329.693 143.616Z" fill="white"/>
<path d="M334.693 148.308C334.308 148.308 334.001 148.231 333.77 148.154V147.077C334.001 147.154 334.231 147.231 334.462 147.231C334.693 147.231 334.924 147.154 335.078 147.077C335.231 147 335.385 146.77 335.539 146.385L333.231 142.154H334.616L336.155 145.154L337.462 142.154H338.77L336.539 146.847C336.155 147.77 335.462 148.308 334.693 148.308Z" fill="white"/>
<path d="M340.923 148.154H339.692V142.154H340.923V144.539L343.154 142.154H344.692L342.154 144.924L345.154 148.154H343.538L340.923 145.385V148.154Z" fill="white"/>
<path d="M346.924 148.154H345.924V142.154H347.155V146.077L350.078 142.154H351.155V148.154H349.924V144.231L346.924 148.154Z" fill="white"/>
<path d="M282.385 157.847H281.154V151.847H283.769C284.385 151.847 284.923 152.001 285.308 152.386C285.693 152.693 285.846 153.155 285.846 153.693C285.846 154.232 285.693 154.693 285.308 155.001C284.923 155.309 284.385 155.539 283.769 155.539H282.385V157.847ZM282.385 152.924V154.386H283.693C284 154.386 284.231 154.309 284.385 154.155C284.539 154.001 284.616 153.847 284.616 153.616C284.616 153.386 284.539 153.155 284.385 153.078C284.231 153.001 284 152.924 283.693 152.924H282.385Z" fill="white"/>
<path d="M286.693 154.847C286.693 153.924 287 153.232 287.616 152.616C288.231 152.001 288.924 151.693 289.847 151.693C290.77 151.693 291.462 152.001 292.077 152.616C292.693 153.232 293 154.001 293 154.847C293 155.693 292.693 156.463 292.077 157.078C291.462 157.693 290.77 158.001 289.847 158.001C288.924 158.001 288.231 157.693 287.616 157.078C287 156.463 286.693 155.693 286.693 154.847ZM288.462 156.232C288.847 156.616 289.231 156.77 289.77 156.77C290.308 156.77 290.77 156.616 291.077 156.232C291.462 155.847 291.616 155.386 291.616 154.847C291.616 154.309 291.462 153.77 291.077 153.463C290.693 153.078 290.308 152.924 289.77 152.924C289.231 152.924 288.77 153.078 288.462 153.463C288.077 153.847 287.924 154.309 287.924 154.847C287.924 155.386 288.154 155.847 288.462 156.232Z" fill="white"/>
<path d="M297.154 158.001C296.231 158.001 295.462 157.693 294.846 157.155C294.231 156.54 293.923 155.77 293.923 154.924C293.923 154.001 294.231 153.232 294.846 152.693C295.462 152.078 296.231 151.847 297.154 151.847C297.769 151.847 298.308 152.001 298.769 152.232V153.463C298.308 153.155 297.769 153.001 297.154 153.001C296.615 153.001 296.077 153.155 295.692 153.539C295.308 153.924 295.154 154.386 295.154 154.924C295.154 155.463 295.385 156.001 295.769 156.309C296.154 156.693 296.615 156.847 297.231 156.847C297.923 156.847 298.462 156.693 298.923 156.309V157.54C298.385 157.847 297.846 158.001 297.154 158.001Z" fill="white"/>
<path d="M302.923 158.001C302 158.001 301.231 157.693 300.615 157.155C300 156.54 299.692 155.77 299.692 154.924C299.692 154.001 300 153.232 300.615 152.693C301.231 152.078 302 151.847 302.923 151.847C303.539 151.847 304.077 152.001 304.539 152.232V153.463C304.077 153.155 303.539 153.001 302.923 153.001C302.385 153.001 301.846 153.155 301.462 153.539C301.077 153.924 300.923 154.386 300.923 154.924C300.923 155.463 301.154 156.001 301.539 156.309C301.923 156.693 302.385 156.847 303 156.847C303.692 156.847 304.231 156.693 304.692 156.309V157.54C304.154 157.847 303.615 158.001 302.923 158.001Z" fill="white"/>
<path d="M306.846 157.847H305.77V151.847H307V155.77L309.923 151.847H311V157.847H309.77V153.924L306.846 157.847Z" fill="white"/>
<path d="M313.462 157.847H312.385V151.847H313.616V155.77L316.538 151.847H317.615V157.847H316.384V153.924L313.462 157.847Z" fill="white"/>
<path d="M259.846 150.308C259.846 150.232 259.923 150.155 260 150.155C260.077 150.155 260.077 150.155 260.154 150.155C261.077 150.001 262 149.078 262.077 148.078C262.077 147.539 261.923 147.001 261.615 146.693C261.538 146.616 261.538 146.462 261.692 146.462C261.769 146.462 261.769 146.385 261.769 146.385C264.769 144.385 267.077 140.462 267.308 140.078C267.308 140.078 267.308 140.078 267.385 140.078C268.231 140.77 268.385 142.078 267.615 143.232C267.077 144.001 265.846 144.924 264.461 145.693C264.461 145.847 264.461 146.001 264.461 146.155C267.231 145.539 268.769 143.539 269 143.232H269.077C269.692 144.232 269.385 145.616 268.385 146.232C267.538 146.77 266.077 147.078 264.385 147.308C264.385 147.462 264.308 147.616 264.308 147.77C267 148.155 269 147.078 269.385 146.924H269.462C269.692 148.155 269.077 149.232 267.846 149.462C266.615 149.693 264 149.001 264 149.001C263.923 149.155 263.923 149.308 263.846 149.385C265.615 150.616 268.077 150.462 268.462 150.385C268.462 150.385 268.538 150.385 268.538 150.462C268.615 152.001 267.385 152.385 266.308 152.232C265.385 152.078 264.077 151.308 263.231 150.462C263.154 150.616 263 150.693 262.923 150.77C263.769 152.539 265.846 153.308 266.538 153.385C266.538 153.385 266.615 153.462 266.538 153.462C266.077 154.462 265.077 154.847 263.923 154.078C263.231 153.693 262.461 152.616 262 151.462C261.846 151.539 261.769 151.616 261.615 151.693C261.846 153.847 263.538 155.309 263.846 155.539C263.846 155.539 263.846 155.539 263.846 155.616C263.846 155.616 263.846 155.616 263.846 155.693C263.308 156.539 262 156.539 261.308 155.385C260.923 154.693 260.615 153.385 260.538 152.001C260.385 152.001 260.231 152.001 260.077 152.078C260 152.078 259.923 152.001 259.923 151.924V150.308H259.846Z" fill="white"/>
<path d="M248.693 150.308C248.693 150.232 248.616 150.155 248.539 150.155C248.462 150.155 248.462 150.155 248.385 150.155C247.462 149.924 246.539 149.078 246.462 148.078C246.462 147.539 246.616 147.001 246.923 146.693C247 146.616 247 146.462 246.846 146.462C246.77 146.462 246.77 146.385 246.77 146.385C243.77 144.385 241.462 140.462 241.231 140.078C241.231 140.078 241.231 140.078 241.154 140.078C240.308 140.693 240.154 142.078 240.923 143.232C241.462 144.001 242.693 144.924 244.077 145.693C244.077 145.847 244.077 146.001 244.077 146.155C241.308 145.539 239.77 143.539 239.539 143.232H239.462C238.846 144.232 239.154 145.616 240.154 146.232C241 146.77 242.462 147.078 244.154 147.308C244.154 147.462 244.231 147.616 244.231 147.77C241.539 148.155 239.539 147.078 239.154 146.924H239.077C238.846 148.155 239.462 149.232 240.693 149.462C241.923 149.693 244.539 149.001 244.539 149.001C244.616 149.155 244.616 149.308 244.693 149.385C242.923 150.616 240.462 150.462 240.077 150.385C240.077 150.385 240 150.385 240 150.462C239.923 152.001 241.154 152.385 242.231 152.232C243.154 152.078 244.462 151.308 245.308 150.462C245.385 150.616 245.539 150.693 245.616 150.77C244.77 152.539 242.693 153.308 242 153.385C242 153.385 241.923 153.462 242 153.462C242.462 154.462 243.462 154.847 244.616 154.078C245.308 153.693 246.077 152.616 246.539 151.462C246.693 151.539 246.77 151.616 246.923 151.693C246.693 153.847 245 155.309 244.693 155.539C244.693 155.539 244.693 155.539 244.693 155.616C244.693 155.616 244.693 155.616 244.693 155.693C245.231 156.539 246.539 156.539 247.231 155.385C247.616 154.693 247.923 153.385 248 152.001C248.154 152.001 248.308 152.001 248.462 152.078C248.539 152.078 248.616 152.001 248.616 151.924V150.308H248.693Z" fill="white"/>
<path d="M248.539 140.924H250.539C252.231 140.924 253.077 139.847 253.308 138.924H255.077C255.308 139.847 256.077 140.924 257.846 140.924H259.923C259.923 140.924 260.308 140.462 260.385 140.231C260.693 139.385 260.308 138.924 259.693 138.924L258.923 139.616L258.154 138.924C257.539 138.924 257.154 139.308 257.462 140.231C257.539 140.308 257.616 140.539 257.693 140.616C257 140.539 256 140.001 255.846 138.924C255.846 138.924 256.385 138.077 256.539 137.693C256.923 136.539 256.308 136 255.385 136L254.231 137.385L253 136C252.077 136 251.462 136.539 251.923 137.77C252.077 138.154 252.616 139.001 252.616 139.001C252.385 140.077 251.462 140.539 250.769 140.693C250.846 140.539 251 140.385 251 140.308C251.308 139.462 250.923 139.001 250.308 139.001L249.539 139.693L248.769 139.001C248.154 139.001 247.769 139.385 248.077 140.308C248.154 140.462 248.539 140.924 248.539 140.924Z" fill="white"/>
<path d="M251.846 146.693H253.77C253.846 146.693 253.923 146.616 253.923 146.539C253.539 145.001 252.77 143.77 251.923 143.078C252.539 142.77 253.231 141.924 253.231 141.462C251.154 142.232 247.154 141.078 246.77 142.77C246.693 143.155 246.846 143.693 247.077 143.847C247.077 143.693 247.308 143.309 247.846 143.232C249.693 142.924 251.385 144.77 251.693 146.539C251.77 146.616 251.77 146.693 251.846 146.693Z" fill="white"/>
<path d="M261.693 142.77C261.308 141.001 257.231 142.155 255.231 141.462C255.154 142.001 255.847 142.77 256.539 143.078C255.77 143.77 255 145.001 254.539 146.539C254.539 146.616 254.616 146.693 254.693 146.693H256.616C256.693 146.693 256.77 146.616 256.77 146.616C257.077 144.847 258.77 143.078 260.616 143.309C261.154 143.385 261.385 143.77 261.385 143.924C261.539 143.693 261.693 143.155 261.693 142.77Z" fill="white"/>
<path d="M256.616 149.077C255.539 148.769 254.231 148.769 254.231 148.769C254.231 148.769 252.923 148.769 251.846 149.077C250.693 149.462 249.539 148.846 249.154 148.615C249.077 148.538 249 148.615 249 148.692C249.077 149.231 249.539 150.462 251.385 150.923C253.154 151.308 253.923 153.308 254.154 154.154C254.154 154.231 254.308 154.231 254.385 154.154C254.616 153.308 255.462 151.385 257.154 150.923C259 150.462 259.462 149.231 259.539 148.692C259.539 148.615 259.462 148.538 259.385 148.615C258.923 148.923 257.846 149.462 256.616 149.077Z" fill="white"/>
<path d="M256 152.616C256.077 152.693 256.231 152.77 256.385 152.77C256.769 152.77 257.077 152.463 257.077 152.078C257.077 152.001 257.077 151.924 257 151.847C256.615 152.001 256.231 152.309 256 152.616Z" fill="white"/>
<path d="M257.769 151.54C257.846 151.693 257.923 151.847 257.923 152.078C257.923 152.924 257.231 153.617 256.385 153.617C256.077 153.617 255.769 153.54 255.539 153.309C255.385 153.617 255.231 153.924 255.154 154.155C255.539 154.386 255.923 154.54 256.385 154.54C257.693 154.54 258.769 153.463 258.769 152.155C258.769 151.847 258.693 151.54 258.539 151.232C258.385 151.386 258.077 151.463 257.769 151.54Z" fill="white"/>
<path d="M252.923 153.385C252.692 153.539 252.385 153.616 252.077 153.616C251.231 153.616 250.539 152.924 250.539 152.077C250.539 151.924 250.615 151.693 250.692 151.539C250.385 151.462 250.077 151.308 249.846 151.154C249.692 151.462 249.615 151.77 249.615 152.077C249.615 153.385 250.692 154.462 252 154.462C252.462 154.462 252.846 154.308 253.231 154.077C253.231 153.924 253.077 153.693 252.923 153.385Z" fill="white"/>
<path d="M251.461 151.847C251.461 151.924 251.385 152.001 251.385 152.078C251.385 152.463 251.692 152.77 252.077 152.77C252.231 152.77 252.385 152.693 252.461 152.616C252.231 152.309 251.923 152.001 251.461 151.847Z" fill="white"/>
<path fill-rule="evenodd" clip-rule="evenodd" d="M265.847 138.231C265.924 138.231 265.924 138.231 265.847 138.231C265.001 137.77 265.231 137.231 264.77 136.77C264.231 136.308 263.462 136.308 263.308 136.231C262.385 136.154 262.154 136.308 262.077 136.385C261.924 136.539 261.616 136.847 261.462 137.462C261.308 138.078 261.385 138.308 261.539 138.385H261.616C261.693 138.462 262.077 138.308 262.077 138.308C262.308 138.385 262.693 138.539 262.616 139.385C262.539 140.462 261.001 140.693 260.539 140.77L260.462 140.924C261.154 140.924 263.154 140.693 263.385 139.693C263.693 138.693 263.231 138.308 263.231 138.308C263.077 138.155 262.539 138.155 262.231 138.231C262.231 138.231 262.001 138.001 262.231 137.462C262.539 136.539 262.693 136.539 263.385 136.616C263.462 136.616 263.539 136.616 263.616 136.693C264.077 137.001 264.001 137.616 264.154 138.078C264.462 139.462 265.231 139.462 265.77 139.616C265.847 139.616 265.847 139.539 265.847 139.539C265.462 139.231 265.001 138.77 265.077 138.308C265.077 138.308 265.154 138.231 265.154 138.308C265.154 138.231 265.462 138.385 265.847 138.231Z" fill="white"/>
<path fill-rule="evenodd" clip-rule="evenodd" d="M242.539 138.232C242.462 138.232 242.462 138.232 242.539 138.232C243.308 137.77 243.077 137.309 243.616 136.847C244.154 136.385 244.924 136.385 245.077 136.309C246 136.232 246.231 136.385 246.308 136.462C246.462 136.616 246.77 136.924 246.924 137.539C247.077 138.155 247 138.385 246.847 138.462H246.77C246.693 138.462 246.308 138.309 246.308 138.309C246.077 138.385 245.693 138.539 245.77 139.386C245.924 140.539 247.462 140.77 247.847 140.77L247.924 140.924C247.231 140.924 245.231 140.693 245 139.693C244.693 138.693 245.154 138.309 245.154 138.309C245.308 138.155 245.847 138.155 246.154 138.232C246.154 138.232 246.385 138.001 246.154 137.462C245.924 136.462 245.77 136.539 245.077 136.539C245 136.539 244.924 136.539 244.847 136.616C244.385 136.924 244.462 137.539 244.385 137.924C244.077 139.309 243.308 139.309 242.77 139.462C242.693 139.462 242.693 139.386 242.693 139.386C243.077 139.078 243.539 138.616 243.462 138.155C243.462 138.155 243.385 138.078 243.385 138.155C243.308 138.232 242.924 138.385 242.539 138.232Z" fill="white"/>
<path d="M263.001 158.847L262.077 159.616L261.154 158.924C260.77 159.077 260.539 159.462 260.462 159.847C259.924 159.924 258.462 159.616 258.616 159.385C260.231 157.154 259.001 155.77 257.539 155.847C257.308 156.154 256.77 156.616 256.231 156.924C255.001 157.539 254.462 158.001 254.231 158.154C254.077 158.001 253.462 157.539 252.231 156.924C251.616 156.616 251.154 156.231 250.924 155.847C249.462 155.847 248.308 157.154 249.924 159.385C250.077 159.616 248.539 159.924 247.847 159.847C247.693 159.616 247.385 159.539 247.077 159.539C246.924 159.539 246.847 159.539 246.693 159.616L243.847 156.924V156.847C244 156.539 243.77 156.231 243.616 156.231C243.77 156.001 243.77 155.077 242.77 154.847C242.77 155.001 242.847 155.462 242.847 155.462C242.847 155.462 242.077 155.077 241.693 155.385C241.385 155.77 241.847 156.539 241.847 156.539C241.847 156.539 241.462 156.539 241.231 156.539C241.539 157.539 242.462 157.462 242.693 157.231C242.693 157.385 243 157.616 243.308 157.462L243.462 157.385L246.231 160.001C246.077 160.154 246.077 160.385 246.077 160.693C246.154 161.077 246.462 161.385 246.847 161.462C247.154 161.539 247.385 161.462 247.616 161.308L248.308 162.001C248.385 162.077 248.462 162.077 248.539 162.077C248.693 162.077 248.847 161.924 248.847 161.77C248.847 161.693 248.77 161.616 248.77 161.616L248 160.924C248.616 160.539 249.693 160.231 250.616 160.231C250.77 160.231 250.847 160.077 250.77 159.924C250.385 158.924 251.231 158.154 252.154 158.77C252.385 158.924 252.539 159.077 252.77 159.539C251.924 159.924 250.308 161.539 250.231 161.924C250.539 162.924 251.385 163.308 251.385 163.308C251.154 162.847 251.231 161.847 252.616 161.154C251.77 162.001 251.462 162.77 251.693 163.462C251.924 164.078 252.539 164.385 253.077 164.385C252.693 163.308 252.847 162.308 253.616 161.539C253.308 162.385 252.847 165.001 254.154 165.462C255.385 165.001 255.001 162.385 254.693 161.539C255.385 162.308 255.539 163.308 255.231 164.385C255.693 164.385 256.385 164.078 256.616 163.462C256.847 162.77 256.539 162.001 255.693 161.154C257.077 161.847 257.154 162.847 256.924 163.308C256.924 163.308 257.847 163.001 258.077 161.924C258.001 161.539 256.462 160.001 255.616 159.616C255.847 159.154 256.001 159.001 256.231 158.847C257.154 158.231 258.077 159.001 257.616 160.001C257.539 160.154 257.616 160.308 257.77 160.308C258.847 160.308 260.077 160.693 260.616 161.231C260.924 161.693 261.539 162.001 262.231 162.001C263.001 161.924 263.616 161.308 263.693 160.616C263.847 159.77 263.462 159.154 263.001 158.847Z" fill="white"/>
<path d="M262.693 158.308L262.077 157.616L261.462 158.308L262.077 158.846L262.693 158.308Z" fill="white"/>
</g>
<defs>
<radialGradient id="paint0_radial_3035_1374" cx="0" cy="0" r="1" gradientUnits="userSpaceOnUse" gradientTransform="translate(320 190) rotate(-143.631) scale(320.412 278.851)">
<stop stop-color="#9C51FC"/>
<stop offset="1" stop-color="#4F84FF"/>
</radialGradient>
<clipPath id="clip0_3035_1374">
<rect width="112.308" height="30.0002" fill="white" transform="translate(239 136)"/>
</clipPath>
</defs>
</svg>
