<svg width="384" height="190" viewBox="0 0 384 190" fill="none" xmlns="http://www.w3.org/2000/svg">
<path d="M368 0H16C7.16344 0 0 7.16344 0 16V174C0 182.837 7.16344 190 16 190H368C376.837 190 384 182.837 384 174V16C384 7.16344 376.837 0 368 0Z" fill="url(#paint0_linear_2957_1479)"/>
<rect width="384" height="190" rx="16" fill="url(#paint1_radial_2957_1479)"/>
<path d="M368 0H16C7.16344 0 0 7.16344 0 16V174C0 182.837 7.16344 190 16 190H368C376.837 190 384 182.837 384 174V16C384 7.16344 376.837 0 368 0Z" fill="url(#paint2_radial_2957_1479)"/>
<path d="M368 0H16C7.16344 0 0 7.16344 0 16V174C0 182.837 7.16344 190 16 190H368C376.837 190 384 182.837 384 174V16C384 7.16344 376.837 0 368 0Z" fill="url(#paint3_radial_2957_1479)"/>
<path d="M189.447 152.578V141.403H191.923L195.243 147.546L198.531 141.403H200.942V152.578H198.531V145.493L195.911 150.348H194.473L191.853 145.493V152.578H189.447Z" fill="white"/>
<path d="M203.177 152.578V144.12H205.235V149.659L209.095 144.12H210.993V152.578H208.935V147.039L205.075 152.578H203.177Z" fill="white"/>
<path d="M212.908 152.578V144.12H215.014V147.392H218.623V144.12H220.73V152.578H218.623V149.145H215.014V152.578H212.908Z" fill="white"/>
<path d="M229.509 154.572V152.578H222.644V144.12H224.75V150.824H228.038V144.12H230.145V150.824H231.342V154.572H229.509Z" fill="white"/>
<path d="M232.652 152.578V144.12H234.711V149.659L238.571 144.12H240.469V152.578H238.411V147.039L234.55 152.578H232.652Z" fill="white"/>
<path d="M246.441 155.769V152.77C244.992 152.77 243.891 152.401 243.131 151.658C242.372 150.92 241.993 149.84 241.993 148.429V148.108C241.993 146.755 242.372 145.723 243.126 145.002C243.88 144.285 244.987 143.927 246.446 143.927V141.409H248.553V143.932C249.275 143.932 249.916 144.023 250.467 144.205C251.018 144.387 251.483 144.659 251.857 145.018C252.231 145.381 252.515 145.82 252.712 146.333C252.91 146.851 253.007 147.44 253.007 148.113V148.434C253.007 149.851 252.622 150.926 251.857 151.663C251.092 152.401 249.991 152.775 248.553 152.775V155.775H246.441V155.769ZM246.505 145.713C245.666 145.713 245.056 145.916 244.687 146.317C244.313 146.723 244.131 147.317 244.131 148.103V148.423C244.131 149.284 244.324 149.926 244.703 150.348C245.083 150.77 245.687 150.979 246.505 150.979V145.713ZM248.483 150.984C249.301 150.984 249.906 150.77 250.285 150.337C250.67 149.904 250.857 149.273 250.857 148.429V148.108C250.857 147.311 250.665 146.712 250.285 146.311C249.9 145.91 249.301 145.713 248.483 145.713V150.984Z" fill="white"/>
<path d="M254.52 155.77V144.12H256.466V145.414C256.701 144.997 257.054 144.649 257.53 144.36C258 144.072 258.567 143.927 259.23 143.927C260.379 143.927 261.267 144.28 261.887 144.981C262.507 145.681 262.823 146.723 262.823 148.108V148.429C262.823 149.14 262.737 149.771 262.566 150.322C262.395 150.872 262.154 151.321 261.839 151.68C261.523 152.038 261.149 152.305 260.705 152.492C260.262 152.68 259.77 152.77 259.23 152.77C258.668 152.77 258.161 152.647 257.711 152.396C257.262 152.145 256.904 151.803 256.626 151.37V155.775H254.52V155.77ZM259.486 150.83C259.727 150.717 259.93 150.557 260.107 150.343C260.283 150.129 260.417 149.862 260.513 149.546C260.609 149.226 260.657 148.857 260.657 148.429V148.108C260.657 147.702 260.615 147.354 260.524 147.055C260.433 146.756 260.299 146.504 260.123 146.306C259.946 146.109 259.738 145.954 259.502 145.852C259.262 145.75 259 145.702 258.711 145.702C258.412 145.702 258.139 145.745 257.882 145.836C257.626 145.927 257.407 146.066 257.22 146.253C257.032 146.44 256.888 146.659 256.781 146.916C256.674 147.173 256.621 147.461 256.621 147.793V148.75C256.621 149.103 256.674 149.413 256.781 149.691C256.888 149.969 257.032 150.204 257.22 150.402C257.407 150.6 257.626 150.749 257.882 150.846C258.139 150.947 258.417 150.995 258.711 150.995C258.989 151.001 259.251 150.942 259.486 150.83Z" fill="white"/>
<path d="M264.33 152.578V144.12H266.437V147.007H267.923C269.019 147.007 269.837 147.242 270.383 147.707C270.928 148.178 271.195 148.873 271.195 149.798C271.195 150.215 271.136 150.594 271.013 150.936C270.89 151.284 270.698 151.573 270.431 151.813C270.163 152.054 269.827 152.241 269.415 152.369C269.003 152.503 268.506 152.567 267.923 152.567H264.33V152.578ZM266.437 150.936H267.683C268.207 150.936 268.57 150.84 268.773 150.648C268.982 150.455 269.083 150.177 269.083 149.803C269.083 149.407 268.982 149.124 268.773 148.942C268.565 148.76 268.201 148.67 267.683 148.67H266.437V150.936ZM272.12 152.578V144.12H274.227V152.578H272.12Z" fill="white"/>
<path d="M276.238 152.98L281.954 152.98L281.954 154.404L276.238 154.404L276.238 152.98Z" fill="white"/>
<path d="M183.122 155.839H167.746V142.29H181.299V152.652H183.545V140.045H165.5V158.084H183.122V159.955H185.368V158.084V155.839H183.122Z" fill="white"/>
<path d="M178.112 145.477H170.932V152.652H178.112V145.477Z" fill="white"/>
<g clip-path="url(#clip0_2957_1479)">
<path d="M320.257 141.237H319.001V144.658H320.257V141.237Z" fill="white"/>
<path d="M322.422 141.237H321.166V144.658H322.422V141.237Z" fill="white"/>
<path d="M324.587 141.237H323.331V144.658H324.587V141.237Z" fill="white"/>
<path d="M326.795 141.237H325.54V144.658H326.795V141.237Z" fill="white"/>
<path d="M328.96 141.237H327.618V144.658H328.96V141.237Z" fill="white"/>
<path d="M331.125 141.237H329.783V144.658H331.125V141.237Z" fill="white"/>
<path d="M333.247 141.237H331.991V144.658H333.247V141.237Z" fill="white"/>
<path d="M335.412 141.237H334.156V144.658H335.412V141.237Z" fill="white"/>
<path d="M337.577 141.237H336.321V144.658H337.577V141.237Z" fill="white"/>
<path d="M339.785 141.237H338.53V144.658H339.785V141.237Z" fill="white"/>
<path d="M341.95 141.237H340.608V144.658H341.95V141.237Z" fill="white"/>
<path d="M344.115 141.237H342.773V144.658H344.115V141.237Z" fill="white"/>
<path d="M346.237 141.237H344.981V144.658H346.237V141.237Z" fill="white"/>
<path d="M348.402 141.237H347.146V144.658H348.402V141.237Z" fill="white"/>
<path d="M350.567 141.237H349.311V144.658H350.567V141.237Z" fill="white"/>
<path d="M352.775 141.237H351.52V144.658H352.775V141.237Z" fill="white"/>
<path d="M320.257 145.047H319.001V146.39H320.257V145.047Z" fill="white"/>
<path d="M322.422 145.047H321.166V146.39H322.422V145.047Z" fill="white"/>
<path d="M324.587 145.047H323.331V146.39H324.587V145.047Z" fill="white"/>
<path d="M326.795 145.047H325.539V146.39H326.795V145.047Z" fill="white"/>
<path d="M327.618 145.047H328.96V146.433H327.618V145.047Z" fill="white"/>
<path d="M329.783 145.091L331.125 145.047V146.433H329.783V145.091Z" fill="white"/>
<path d="M333.247 145.047H331.991V146.39H333.247V145.047Z" fill="white"/>
<path d="M335.412 145.047H334.156V146.39H335.412V145.047Z" fill="white"/>
<path d="M337.577 145.047H336.321V146.39H337.577V145.047Z" fill="white"/>
<path d="M339.785 145.047H338.53V146.39H339.785V145.047Z" fill="white"/>
<path d="M340.608 145.047L341.95 145.091V146.433H340.608V145.047Z" fill="white"/>
<path d="M342.773 145.091L344.115 145.047V146.433H342.773V145.091Z" fill="white"/>
<path d="M346.237 145.047H344.981V146.39H346.237V145.047Z" fill="white"/>
<path d="M348.402 145.047H347.146V146.39H348.402V145.047Z" fill="white"/>
<path d="M350.567 145.047H349.311V146.39H350.567V145.047Z" fill="white"/>
<path d="M352.775 145.047H351.52V146.39H352.775V145.047Z" fill="white"/>
<path d="M323.201 138.553H322.076V139.029H323.201V138.553Z" fill="white"/>
<path d="M324.977 138.553H323.721V139.029H324.977V138.553Z" fill="white"/>
<path d="M326.752 138.553H325.496V139.029H326.752V138.553Z" fill="white"/>
<path d="M328.397 138.553H327.271V139.029H328.397V138.553Z" fill="white"/>
<path d="M337.144 138.553H335.888V139.029H337.144V138.553Z" fill="white"/>
<path d="M335.369 138.553H334.113V139.029H335.369V138.553Z" fill="white"/>
<path d="M333.593 138.553H332.468V139.029H333.593V138.553Z" fill="white"/>
<path d="M330.173 138.553H328.917V139.029H330.173V138.553Z" fill="white"/>
<path d="M331.948 138.553H330.692V139.029H331.948V138.553Z" fill="white"/>
<path d="M347.536 138.553H346.28V139.029H347.536V138.553Z" fill="white"/>
<path d="M345.761 138.553H344.505V139.029H345.761V138.553Z" fill="white"/>
<path d="M343.985 138.553H342.859V139.029H343.985V138.553Z" fill="white"/>
<path d="M342.34 138.553H341.084V139.029H342.34V138.553Z" fill="white"/>
<path d="M340.565 138.553H339.309V139.029H340.565V138.553Z" fill="white"/>
<path d="M338.833 138.553H337.664V139.029H338.833V138.553Z" fill="white"/>
<path d="M323.201 136.907H322.075V137.86H323.201V136.907Z" fill="white"/>
<path d="M349.181 138.553H348.056V139.029H349.181V138.553Z" fill="white"/>
<path d="M324.977 136.907H323.721V137.86H324.977V136.907Z" fill="white"/>
<path d="M326.752 136.907H325.496V137.86H326.752V136.907Z" fill="white"/>
<path d="M328.441 136.907H327.271V137.86H328.441V136.907Z" fill="white"/>
<path d="M330.173 136.907H328.917V137.86H330.173V136.907Z" fill="white"/>
<path d="M331.948 136.907H330.692V137.86H331.948V136.907Z" fill="white"/>
<path d="M333.593 136.907H332.468V137.86H333.593V136.907Z" fill="white"/>
<path d="M335.369 136.907H334.113V137.86H335.369V136.907Z" fill="white"/>
<path d="M343.985 136.907H342.86V137.86H343.985V136.907Z" fill="white"/>
<path d="M342.34 136.907H341.084V137.86H342.34V136.907Z" fill="white"/>
<path d="M340.565 136.907H339.309V137.86H340.565V136.907Z" fill="white"/>
<path d="M338.833 136.907H337.664V137.86H338.833V136.907Z" fill="white"/>
<path d="M337.144 136.907H335.888V137.86H337.144V136.907Z" fill="white"/>
<path d="M349.181 136.907H348.056V137.86H349.181V136.907Z" fill="white"/>
<path d="M347.536 136.907H346.28V137.86H347.536V136.907Z" fill="white"/>
<path d="M345.761 136.907H344.505V137.86H345.761V136.907Z" fill="white"/>
<path d="M323.201 135.132H322.075V136.084H323.201V135.132Z" fill="white"/>
<path d="M324.977 135.132H323.721V136.084H324.977V135.132Z" fill="white"/>
<path d="M326.752 135.132H325.496V136.084H326.752V135.132Z" fill="white"/>
<path d="M328.441 135.132H327.271V136.084H328.441V135.132Z" fill="white"/>
<path d="M330.173 135.132H328.917V136.084H330.173V135.132Z" fill="white"/>
<path d="M331.948 135.132H330.692V136.084H331.948V135.132Z" fill="white"/>
<path d="M333.593 135.132H332.468V136.084H333.593V135.132Z" fill="white"/>
<path d="M335.369 135.132H334.113V136.084H335.369V135.132Z" fill="white"/>
<path d="M343.985 135.132H342.86V136.084H343.985V135.132Z" fill="white"/>
<path d="M342.34 135.132H341.084V136.084H342.34V135.132Z" fill="white"/>
<path d="M340.565 135.132H339.309V136.084H340.565V135.132Z" fill="white"/>
<path d="M338.833 135.132H337.664V136.084H338.833V135.132Z" fill="white"/>
<path d="M337.144 135.132H335.888V136.084H337.144V135.132Z" fill="white"/>
<path d="M349.181 135.132H348.056V136.084H349.181V135.132Z" fill="white"/>
<path d="M347.536 135.132H346.28V136.084H347.536V135.132Z" fill="white"/>
<path d="M345.761 135.132H344.505V136.084H345.761V135.132Z" fill="white"/>
<path d="M323.201 133.443H322.075V134.395H323.201V133.443Z" fill="white"/>
<path d="M324.977 133.443H323.721V134.395H324.977V133.443Z" fill="white"/>
<path d="M326.752 133.443H325.496V134.395H326.752V133.443Z" fill="white"/>
<path d="M328.441 133.443H327.271V134.395H328.441V133.443Z" fill="white"/>
<path d="M330.173 133.443H328.917V134.395H330.173V133.443Z" fill="white"/>
<path d="M331.948 133.443H330.692V134.395H331.948V133.443Z" fill="white"/>
<path d="M333.593 133.443H332.468V134.395H333.593V133.443Z" fill="white"/>
<path d="M335.369 133.443H334.113V134.395H335.369V133.443Z" fill="white"/>
<path d="M343.985 133.443H342.86V134.395H343.985V133.443Z" fill="white"/>
<path d="M342.34 133.443H341.084V134.395H342.34V133.443Z" fill="white"/>
<path d="M340.565 133.443H339.309V134.395H340.565V133.443Z" fill="white"/>
<path d="M338.833 133.443H337.664V134.395H338.833V133.443Z" fill="white"/>
<path d="M337.144 133.443H335.888V134.395H337.144V133.443Z" fill="white"/>
<path d="M349.181 133.443H348.056V134.395H349.181V133.443Z" fill="white"/>
<path d="M347.536 133.443H346.28V134.395H347.536V133.443Z" fill="white"/>
<path d="M345.761 133.443H344.505V134.395H345.761V133.443Z" fill="white"/>
<path d="M323.201 131.711H322.075V132.664H323.201V131.711Z" fill="white"/>
<path d="M324.977 131.711H323.721V132.664H324.977V131.711Z" fill="white"/>
<path d="M326.752 131.711H325.496V132.664H326.752V131.711Z" fill="white"/>
<path d="M328.441 131.711H327.271V132.664H328.441V131.711Z" fill="white"/>
<path d="M330.173 131.711H328.917V132.664H330.173V131.711Z" fill="white"/>
<path d="M331.948 131.711H330.692V132.664H331.948V131.711Z" fill="white"/>
<path d="M333.593 131.711H332.468V132.664H333.593V131.711Z" fill="white"/>
<path d="M335.369 131.711H334.113V132.664H335.369V131.711Z" fill="white"/>
<path d="M343.985 131.711H342.86V132.664H343.985V131.711Z" fill="white"/>
<path d="M342.34 131.711H341.084V132.664H342.34V131.711Z" fill="white"/>
<path d="M340.565 131.711H339.309V132.664H340.565V131.711Z" fill="white"/>
<path d="M338.833 131.711H337.664V132.664H338.833V131.711Z" fill="white"/>
<path d="M337.144 131.711H335.888V132.664H337.144V131.711Z" fill="white"/>
<path d="M349.181 131.711H348.056V132.664H349.181V131.711Z" fill="white"/>
<path d="M347.536 131.711H346.28V132.664H347.536V131.711Z" fill="white"/>
<path d="M345.761 131.711H344.505V132.664H345.761V131.711Z" fill="white"/>
<path d="M323.201 129.936H322.075V130.888H323.201V129.936Z" fill="white"/>
<path d="M324.977 129.936H323.721V130.888H324.977V129.936Z" fill="white"/>
<path d="M326.752 129.936H325.496V130.888H326.752V129.936Z" fill="white"/>
<path d="M328.441 129.936H327.271V130.888H328.441V129.936Z" fill="white"/>
<path d="M330.173 129.936H328.917V130.888H330.173V129.936Z" fill="white"/>
<path d="M331.948 129.936H330.692V130.888H331.948V129.936Z" fill="white"/>
<path d="M333.593 129.936H332.468V130.888H333.593V129.936Z" fill="white"/>
<path d="M335.369 129.936H334.113V130.888H335.369V129.936Z" fill="white"/>
<path d="M343.985 129.936H342.86V130.888H343.985V129.936Z" fill="white"/>
<path d="M342.34 129.936H341.084V130.888H342.34V129.936Z" fill="white"/>
<path d="M340.565 129.936H339.309V130.888H340.565V129.936Z" fill="white"/>
<path d="M338.833 129.936H337.664V130.888H338.833V129.936Z" fill="white"/>
<path d="M337.144 129.936H335.888V130.888H337.144V129.936Z" fill="white"/>
<path d="M349.181 129.936H348.056V130.888H349.181V129.936Z" fill="white"/>
<path d="M347.536 129.936H346.28V130.888H347.536V129.936Z" fill="white"/>
<path d="M345.761 129.936H344.505V130.888H345.761V129.936Z" fill="white"/>
<path d="M361.868 146.823V138.596H361.349V138.985H359.703V138.552H357.105V138.985H355.33V138.596H354.94V139.418L353.598 140.241H350.567V129.416H351V126.818H350.567V126.385H344.938V125.952H343.596V126.385H336.321V123.787H335.369V122.012H337.534V120.669H334.936V123.874H334.113V126.472H326.752V126.039H325.41V126.472H320.733L320.3 126.905V129.633H320.733V127.857H321.123V129.2H321.556V127.857H321.989V129.2H322.508V127.857H322.812V129.2H323.331V127.857H323.634V129.2H324.154V127.857H324.587V129.2H325.106V127.857H325.41V129.2H325.929V127.857H326.232V129.2H326.752V127.857H327.185V129.2H327.704V127.857H328.008V129.2H328.527V127.857H328.83V129.2H329.35V127.857H329.783V129.2H330.302V127.857H330.606V129.2H331.125V127.857H331.428V129.2H331.948V127.857H332.381V129.2H332.901V127.857H333.204V129.2H333.723V127.857H334.026V129.2H334.546V127.857H334.979V129.2H335.499V127.857H335.802V129.2H336.321V127.857H336.624V129.2H337.144V127.857H337.534V129.2H338.053V127.857H338.356V129.2H338.876V127.857H339.179V129.2H339.699V127.857H340.132V129.2H340.651V127.857H340.954V129.2H341.474V127.857H341.82V129.2H342.34V127.857H342.773V129.2H343.293V127.857H343.596V129.2H344.115V127.857H344.418V129.2H344.938V127.857H345.328V129.2H345.847V127.857H346.15V129.2H346.627V127.857H346.973V129.2H347.493V127.857H347.926V129.2H348.445V127.857H348.748V129.2H349.268V127.857H349.571V129.2H350.091V127.857H350.524V129.503H350.134V140.414H349.181V139.505H348.056V140.414H347.536V139.505H346.28V140.414H345.761V139.505H344.505V140.414H343.985V139.505H342.86V140.414H342.34V139.505H341.084V140.414H340.565V139.505H339.309V140.414H338.789V139.505H337.664V140.414H337.144V139.505H335.888V140.414H335.369V139.505H334.113V140.414H333.593V139.505H332.468V140.414H331.948V139.505H330.692V140.414H330.173V139.505H328.917V140.414H328.397V139.505H327.271V140.414H326.752V139.505H325.496V140.414H324.977V139.505H323.721V140.414H323.201V139.505H322.075V140.414H321.123V129.546H320.733L320.69 140.414H318.005L316.706 139.072V138.639H316.317V139.029H314.541V138.639H311.943V139.072H310.298V138.682H309.778V146.909H306.747V147.732H363.903V146.909L361.868 146.823ZM321.556 127.468H321.036V126.905H321.556V127.468ZM322.465 127.468H321.946V126.905H322.465V127.468ZM323.331 127.468H322.812V126.905H323.331V127.468ZM324.154 127.468H323.634V126.905H324.154V127.468ZM325.063 127.468H324.544V126.905H325.063V127.468ZM325.929 127.468H325.41V126.905H325.929V127.468ZM326.752 127.468H326.232V126.905H326.752V127.468ZM327.661 127.468H327.142V126.905H327.661V127.468ZM328.008 127.468V126.905H328.527V127.468H328.008ZM329.35 127.468H328.83V126.905H329.35V127.468ZM330.259 127.468H329.74V126.905H330.259V127.468ZM330.606 127.468V126.905H331.125V127.468H330.606ZM331.428 127.468V126.905H331.948V127.468H331.428ZM332.857 127.468H332.338V126.905H332.857V127.468ZM333.68 127.468H333.16V126.905H333.68V127.468ZM334.546 127.468H334.026V126.905H334.546V127.468ZM335.455 127.468H334.936V126.905H335.455V127.468ZM334.546 126.082V125.562H335.802V126.082H334.546ZM336.278 127.468H335.758V126.905H336.278V127.468ZM336.624 127.468V126.905H337.144V127.468H336.624ZM338.053 127.468H337.534V126.905H338.053V127.468ZM338.876 127.468H338.356V126.905H338.876V127.468ZM339.742 127.468H339.222V126.905H339.742V127.468ZM340.651 127.468H340.132V126.905H340.651V127.468ZM341.474 127.468H340.954V126.905H341.474V127.468ZM342.34 127.468H341.82V126.905H342.34V127.468ZM343.249 127.468H342.73V126.905H343.249V127.468ZM344.072 127.468H343.552V126.905H344.072V127.468ZM344.938 127.468H344.418V126.905H344.938V127.468ZM345.847 127.468H345.328V126.905H345.847V127.468ZM346.67 127.468H346.15V126.905H346.67V127.468ZM347.536 127.468H347.016V126.905H347.536V127.468ZM348.445 127.468H347.926V126.905H348.445V127.468ZM349.268 127.468H348.748V126.905H349.268V127.468ZM350.134 127.468H349.614V126.905H350.134V127.468ZM315.537 146.823V140.804H315.104V146.823H314.152V140.284H314.541V139.895H311.943V140.328H312.463V146.866H311.554V140.847H311.121V146.866H310.341V139.505H316.36V146.866L315.537 146.823ZM353.555 146.823H318.135V140.804H353.555V146.823ZM360.526 146.823V140.804H360.006V146.823H359.184V140.284H359.703V139.851H357.105V140.284H357.538V146.823H356.716V140.804H356.153V146.823H355.33V139.462H361.349V146.823H360.526Z" fill="white"/>
<path d="M306.877 152.149H310.558V156.782H309.648V152.928H307.83V156.782H306.877V152.149Z" fill="white"/>
<path d="M311.553 156.825V152.149H313.069C313.632 152.149 314.022 152.192 314.195 152.236C314.455 152.322 314.671 152.452 314.844 152.712C315.017 152.928 315.104 153.231 315.104 153.621C315.104 153.924 315.061 154.141 314.931 154.357C314.801 154.574 314.714 154.704 314.541 154.834C314.368 154.963 314.238 155.007 314.065 155.05C313.848 155.093 313.502 155.137 313.112 155.137H312.506V156.912H311.553V156.825ZM312.463 152.972V154.271H312.982C313.372 154.271 313.589 154.227 313.718 154.184C313.848 154.141 313.935 154.054 314.022 153.968C314.108 153.881 314.108 153.751 314.108 153.621C314.108 153.448 314.065 153.318 313.978 153.188C313.892 153.058 313.762 153.015 313.589 152.972C313.459 152.972 313.242 152.928 312.896 152.928H312.463V152.972Z" fill="white"/>
<path d="M319.477 156.825H318.482L318.049 155.743H316.187L315.797 156.782H314.801L316.62 152.149H317.616L319.477 156.825ZM317.789 154.963L317.139 153.231L316.49 154.963H317.789Z" fill="white"/>
<path d="M319.997 152.149H321.859C322.205 152.149 322.508 152.149 322.682 152.192C322.855 152.236 323.028 152.279 323.158 152.365C323.288 152.452 323.418 152.582 323.504 152.755C323.591 152.928 323.634 153.102 323.634 153.318C323.634 153.535 323.591 153.751 323.461 153.924C323.331 154.097 323.201 154.227 322.985 154.314C323.288 154.401 323.504 154.53 323.634 154.747C323.764 154.963 323.851 155.18 323.851 155.44C323.851 155.656 323.807 155.873 323.721 156.046C323.634 156.262 323.504 156.392 323.331 156.522C323.158 156.652 322.941 156.695 322.682 156.739C322.508 156.739 322.162 156.782 321.556 156.782H319.954V152.149H319.997ZM320.95 152.928V154.011H322.249C322.422 154.011 322.552 153.924 322.638 153.838C322.725 153.751 322.768 153.621 322.768 153.491C322.768 153.361 322.725 153.231 322.638 153.145C322.552 153.058 322.422 153.015 322.292 152.972H320.95V152.928ZM320.95 154.79V156.046H321.816C322.162 156.046 322.379 156.046 322.465 156.003C322.595 155.959 322.725 155.916 322.812 155.829C322.898 155.743 322.941 155.613 322.941 155.44C322.941 155.31 322.898 155.18 322.855 155.093C322.812 155.007 322.682 154.92 322.552 154.877C322.422 154.834 322.162 154.79 321.729 154.79H320.95Z" fill="white"/>
<path d="M324.717 152.149H325.583V155.223L327.488 152.149H328.441V156.782H327.575V153.751L325.713 156.782H324.76V152.149H324.717Z" fill="white"/>
<path d="M330.389 156.825V152.971H329.004V152.192H332.684V152.971H331.298V156.825H330.389Z" fill="white"/>
<path d="M333.333 156.825V152.149H336.798V152.928H334.286V153.968H336.624V154.747H334.286V156.003H336.884V156.782H333.333V156.825Z" fill="white"/>
<path d="M337.967 152.149H341.214V156.782H340.262V152.928H338.876V154.92C338.876 155.483 338.876 155.873 338.833 156.133C338.789 156.349 338.703 156.522 338.573 156.652C338.443 156.782 338.183 156.825 337.88 156.825C337.75 156.825 337.577 156.825 337.274 156.782V156.046H337.49C337.707 156.046 337.837 156.003 337.88 155.959C337.923 155.916 337.967 155.786 337.967 155.57V152.149Z" fill="white"/>
<path d="M342.21 152.149H343.163V154.011H344.418C345.025 154.011 345.458 154.141 345.717 154.444C345.977 154.704 346.107 155.05 346.107 155.44C346.107 155.743 346.02 156.046 345.847 156.262C345.674 156.479 345.501 156.652 345.284 156.695C345.068 156.782 344.765 156.825 344.375 156.825H342.167V152.149H342.21ZM343.163 156.046H344.072C344.375 156.046 344.592 156.046 344.678 156.003C344.808 155.959 344.895 155.916 344.981 155.786C345.068 155.7 345.111 155.57 345.111 155.396C345.111 155.18 345.025 155.007 344.895 154.92C344.721 154.834 344.462 154.79 344.115 154.79H343.163V156.046Z" fill="white"/>
<path d="M349.701 155.093L350.61 155.396C350.48 155.916 350.221 156.262 349.917 156.522C349.571 156.782 349.181 156.912 348.662 156.912C348.056 156.912 347.536 156.695 347.146 156.262C346.757 155.829 346.54 155.266 346.54 154.53C346.54 153.751 346.757 153.145 347.146 152.712C347.536 152.279 348.056 152.062 348.705 152.062C349.268 152.062 349.744 152.235 350.091 152.582C350.307 152.798 350.48 153.058 350.567 153.448L349.658 153.664C349.614 153.404 349.484 153.231 349.311 153.101C349.138 152.971 348.922 152.885 348.662 152.885C348.315 152.885 348.056 153.015 347.839 153.274C347.623 153.534 347.536 153.924 347.536 154.487C347.536 155.093 347.623 155.483 347.839 155.743C348.056 156.002 348.315 156.132 348.662 156.132C348.922 156.132 349.138 156.046 349.311 155.916C349.484 155.699 349.614 155.439 349.701 155.093Z" fill="white"/>
<path d="M352.299 156.825V152.971H350.913V152.192H354.594V152.971H353.208V156.825H352.299Z" fill="white"/>
<path d="M355.2 152.149H357.062C357.408 152.149 357.712 152.149 357.885 152.192C358.058 152.236 358.231 152.279 358.361 152.365C358.491 152.452 358.621 152.582 358.707 152.755C358.794 152.928 358.837 153.102 358.837 153.318C358.837 153.535 358.794 153.751 358.664 153.924C358.534 154.097 358.404 154.227 358.188 154.314C358.491 154.401 358.707 154.53 358.837 154.747C358.967 154.963 359.054 155.18 359.054 155.44C359.054 155.656 359.011 155.873 358.924 156.046C358.837 156.262 358.707 156.392 358.534 156.522C358.361 156.652 358.145 156.695 357.885 156.739C357.712 156.739 357.365 156.782 356.759 156.782H355.157V152.149H355.2ZM356.153 152.928V154.011H357.452C357.625 154.011 357.755 153.924 357.841 153.838C357.928 153.751 357.971 153.621 357.971 153.491C357.971 153.361 357.928 153.231 357.841 153.145C357.755 153.058 357.625 153.015 357.495 152.972H356.153V152.928ZM356.153 154.79V156.046H357.019C357.365 156.046 357.582 156.046 357.668 156.003C357.798 155.959 357.928 155.916 358.015 155.829C358.101 155.743 358.145 155.613 358.145 155.44C358.145 155.31 358.101 155.18 358.058 155.093C358.015 155.007 357.885 154.92 357.755 154.877C357.625 154.834 357.365 154.79 356.932 154.79H356.153Z" fill="white"/>
<path d="M359.573 154.53C359.573 154.054 359.66 153.664 359.79 153.318C359.876 153.101 360.05 152.885 360.223 152.668C360.396 152.495 360.613 152.322 360.829 152.235C361.132 152.105 361.435 152.062 361.825 152.062C362.518 152.062 363.037 152.279 363.47 152.712C363.86 153.145 364.077 153.707 364.077 154.487C364.077 155.223 363.86 155.829 363.47 156.262C363.081 156.695 362.518 156.912 361.825 156.912C361.132 156.912 360.569 156.695 360.18 156.262C359.747 155.829 359.573 155.266 359.573 154.53ZM360.526 154.487C360.526 155.006 360.656 155.396 360.872 155.699C361.132 155.959 361.435 156.089 361.782 156.089C362.171 156.089 362.474 155.959 362.691 155.699C362.951 155.439 363.037 155.006 363.037 154.487C363.037 153.967 362.907 153.578 362.691 153.274C362.474 153.015 362.128 152.885 361.782 152.885C361.392 152.885 361.089 153.015 360.829 153.274C360.656 153.534 360.526 153.967 360.526 154.487Z" fill="white"/>
<path d="M312.203 163.537V158.86H313.719C314.281 158.86 314.671 158.904 314.844 158.947C315.104 159.034 315.321 159.163 315.494 159.423C315.667 159.64 315.754 159.943 315.754 160.333C315.754 160.636 315.71 160.852 315.58 161.069C315.451 161.285 315.364 161.415 315.191 161.545C315.018 161.675 314.888 161.718 314.714 161.761C314.498 161.805 314.152 161.848 313.762 161.848H313.156V163.537H312.203ZM313.156 159.683V160.982H313.675C314.065 160.982 314.281 160.939 314.411 160.895C314.541 160.852 314.628 160.766 314.714 160.679C314.801 160.592 314.801 160.462 314.801 160.333C314.801 160.159 314.758 160.029 314.671 159.9C314.585 159.77 314.455 159.726 314.281 159.683C314.152 159.683 313.935 159.64 313.589 159.64H313.156V159.683Z" fill="white"/>
<path d="M316.36 161.242C316.36 160.766 316.446 160.376 316.576 160.03C316.663 159.813 316.836 159.597 317.009 159.38C317.183 159.207 317.399 159.034 317.616 158.947C317.919 158.817 318.222 158.774 318.611 158.774C319.304 158.774 319.824 158.99 320.257 159.423C320.647 159.856 320.863 160.419 320.863 161.199C320.863 161.935 320.647 162.541 320.257 162.974C319.867 163.407 319.304 163.624 318.611 163.624C317.919 163.624 317.356 163.407 316.966 162.974C316.576 162.541 316.36 161.978 316.36 161.242ZM317.312 161.199C317.312 161.718 317.442 162.108 317.659 162.411C317.919 162.671 318.222 162.801 318.568 162.801C318.958 162.801 319.261 162.671 319.477 162.411C319.737 162.151 319.824 161.718 319.824 161.199C319.824 160.679 319.694 160.289 319.477 159.986C319.261 159.727 318.915 159.597 318.568 159.597C318.178 159.597 317.875 159.727 317.616 159.986C317.442 160.246 317.312 160.679 317.312 161.199Z" fill="white"/>
<path d="M324.673 161.805L325.583 162.108C325.453 162.628 325.193 162.974 324.89 163.234C324.543 163.494 324.154 163.624 323.634 163.624C323.028 163.624 322.508 163.407 322.119 162.974C321.729 162.541 321.512 161.978 321.512 161.242C321.512 160.463 321.729 159.856 322.119 159.423C322.508 158.99 323.028 158.774 323.677 158.774C324.24 158.774 324.717 158.947 325.063 159.294C325.28 159.51 325.453 159.77 325.539 160.16L324.63 160.376C324.587 160.116 324.457 159.943 324.284 159.813C324.11 159.683 323.894 159.597 323.634 159.597C323.288 159.597 323.028 159.727 322.811 159.986C322.595 160.246 322.508 160.636 322.508 161.199C322.508 161.805 322.595 162.195 322.811 162.454C323.028 162.714 323.288 162.844 323.634 162.844C323.894 162.844 324.11 162.758 324.284 162.628C324.457 162.411 324.587 162.151 324.673 161.805Z" fill="white"/>
<path d="M329.437 161.805L330.346 162.108C330.216 162.628 329.956 162.974 329.653 163.234C329.307 163.494 328.917 163.624 328.397 163.624C327.791 163.624 327.272 163.407 326.882 162.974C326.492 162.541 326.276 161.978 326.276 161.242C326.276 160.463 326.492 159.856 326.882 159.423C327.272 158.99 327.791 158.774 328.441 158.774C329.004 158.774 329.48 158.947 329.826 159.294C330.043 159.51 330.216 159.77 330.303 160.16L329.393 160.376C329.35 160.116 329.22 159.943 329.047 159.813C328.874 159.683 328.657 159.597 328.397 159.597C328.051 159.597 327.791 159.727 327.575 159.986C327.358 160.246 327.272 160.636 327.272 161.199C327.272 161.805 327.358 162.195 327.575 162.454C327.791 162.714 328.051 162.844 328.397 162.844C328.657 162.844 328.874 162.758 329.047 162.628C329.263 162.411 329.393 162.151 329.437 161.805Z" fill="white"/>
<path d="M331.298 158.86H332.164V161.935L334.07 158.86H335.022V163.537H334.156V160.506L332.294 163.537H331.342V158.86H331.298Z" fill="white"/>
<path d="M336.061 158.86H336.927V161.934L338.833 158.86H339.785V163.537H338.919V160.506L337.057 163.537H336.105V158.86H336.061ZM338.443 157.734H338.876C338.833 158.037 338.746 158.254 338.573 158.427C338.4 158.6 338.183 158.687 337.88 158.687C337.577 158.687 337.36 158.6 337.187 158.427C337.014 158.254 336.927 158.037 336.884 157.734H337.317C337.317 157.864 337.404 157.994 337.49 158.081C337.577 158.167 337.707 158.211 337.88 158.211C338.053 158.211 338.183 158.167 338.27 158.081C338.4 157.994 338.443 157.864 338.443 157.734Z" fill="white"/>
<path d="M343.769 161.805L344.678 162.108C344.548 162.628 344.288 162.974 343.985 163.234C343.639 163.494 343.249 163.624 342.73 163.624C342.123 163.624 341.604 163.407 341.214 162.974C340.824 162.541 340.608 161.978 340.608 161.242C340.608 160.463 340.824 159.856 341.214 159.423C341.604 158.99 342.123 158.774 342.773 158.774C343.336 158.774 343.812 158.947 344.159 159.294C344.375 159.51 344.548 159.77 344.635 160.16L343.726 160.376C343.682 160.116 343.552 159.943 343.379 159.813C343.206 159.683 342.989 159.597 342.73 159.597C342.383 159.597 342.123 159.727 341.907 159.986C341.69 160.246 341.604 160.636 341.604 161.199C341.604 161.805 341.69 162.195 341.907 162.454C342.123 162.714 342.383 162.844 342.73 162.844C342.989 162.844 343.206 162.758 343.379 162.628C343.552 162.411 343.682 162.151 343.769 161.805Z" fill="white"/>
<path d="M345.587 158.86H346.54V160.852C346.757 160.852 346.886 160.765 346.973 160.679C347.06 160.592 347.146 160.332 347.319 159.943C347.493 159.423 347.709 159.12 347.926 158.99C348.099 158.86 348.445 158.817 348.878 158.817H349.008V159.51H348.878C348.705 159.51 348.532 159.553 348.445 159.596C348.359 159.64 348.272 159.726 348.229 159.813C348.185 159.899 348.099 160.116 347.969 160.419C347.926 160.592 347.839 160.722 347.796 160.809C347.709 160.895 347.623 161.025 347.449 161.112C347.666 161.155 347.839 161.285 347.969 161.458C348.099 161.631 348.272 161.891 348.402 162.238L349.051 163.493H347.926L347.363 162.281C347.363 162.281 347.319 162.238 347.319 162.194C347.319 162.194 347.276 162.108 347.19 161.978C347.06 161.761 346.973 161.588 346.886 161.545C346.8 161.502 346.67 161.458 346.54 161.458V163.537H345.587V158.86Z" fill="white"/>
<path d="M349.441 161.242C349.441 160.766 349.528 160.376 349.658 160.03C349.744 159.813 349.917 159.597 350.091 159.38C350.264 159.207 350.48 159.034 350.697 158.947C351 158.817 351.303 158.774 351.693 158.774C352.386 158.774 352.905 158.99 353.338 159.423C353.728 159.856 353.944 160.419 353.944 161.199C353.944 161.935 353.728 162.541 353.338 162.974C352.948 163.407 352.386 163.624 351.693 163.624C351 163.624 350.437 163.407 350.047 162.974C349.658 162.541 349.441 161.978 349.441 161.242ZM350.437 161.199C350.437 161.718 350.567 162.108 350.783 162.411C351.043 162.671 351.346 162.801 351.693 162.801C352.082 162.801 352.386 162.671 352.602 162.411C352.862 162.151 352.948 161.718 352.948 161.199C352.948 160.679 352.819 160.289 352.602 159.986C352.386 159.727 352.039 159.597 351.693 159.597C351.303 159.597 351 159.727 350.74 159.986C350.567 160.246 350.437 160.679 350.437 161.199Z" fill="white"/>
<path d="M354.81 158.86H355.676V161.934L357.582 158.86H358.534V163.537H357.668V160.506L355.806 163.537H354.854V158.86H354.81ZM357.235 157.734H357.668C357.625 158.037 357.538 158.254 357.365 158.427C357.192 158.6 356.975 158.687 356.672 158.687C356.369 158.687 356.153 158.6 355.98 158.427C355.806 158.254 355.72 158.037 355.676 157.734H356.109C356.109 157.864 356.196 157.994 356.283 158.081C356.369 158.167 356.499 158.211 356.672 158.211C356.846 158.211 356.975 158.167 357.062 158.081C357.149 157.994 357.192 157.864 357.235 157.734Z" fill="white"/>
<path d="M317.529 169.685V170.248H316.62V169.685C315.883 169.642 315.364 169.469 315.061 169.122C314.758 168.776 314.584 168.343 314.584 167.867C314.584 167.347 314.758 166.914 315.061 166.568C315.364 166.221 315.883 166.048 316.62 166.048V165.572H317.529V166.048C318.265 166.091 318.785 166.265 319.088 166.611C319.391 166.957 319.564 167.39 319.564 167.91C319.564 168.43 319.391 168.863 319.088 169.166C318.785 169.469 318.265 169.685 317.529 169.685ZM316.62 168.906V166.827C316.23 166.827 315.927 166.914 315.754 167.087C315.58 167.26 315.494 167.52 315.494 167.867C315.494 168.559 315.84 168.906 316.62 168.906ZM317.529 168.906C317.789 168.906 318.005 168.863 318.178 168.776C318.352 168.689 318.481 168.603 318.568 168.43C318.655 168.3 318.698 168.083 318.698 167.823C318.698 167.131 318.308 166.827 317.572 166.827V168.906H317.529Z" fill="white"/>
<path d="M320.387 170.248V165.615H323.851V166.395H321.339V167.434H323.678V168.213H321.339V169.469H323.937V170.248H320.387Z" fill="white"/>
<path d="M325.193 165.572H328.397V169.425H328.787V171.201H328.008V170.205H325.063V171.201H324.284V169.425H324.674C324.847 169.036 324.977 168.559 325.063 168.04C325.107 167.52 325.15 166.871 325.15 166.048V165.572H325.193ZM326.102 166.351C326.102 167.78 325.973 168.776 325.713 169.425H327.488V166.351H326.102Z" fill="white"/>
<path d="M329.566 170.248V165.615H333.03V166.395H330.519V167.434H332.857V168.213H330.519V169.469H333.117V170.248H329.566Z" fill="white"/>
<path d="M333.983 170.248V165.615H335.499C336.061 165.615 336.451 165.659 336.624 165.702C336.884 165.788 337.101 165.918 337.274 166.178C337.447 166.395 337.534 166.698 337.534 167.087C337.534 167.391 337.49 167.607 337.36 167.824C337.231 168.04 337.144 168.17 336.971 168.3C336.798 168.43 336.668 168.473 336.494 168.516C336.278 168.56 335.932 168.603 335.542 168.603H334.936V170.378H333.983V170.248ZM334.936 166.395V167.694H335.455C335.845 167.694 336.061 167.65 336.191 167.607C336.321 167.564 336.408 167.477 336.494 167.391C336.581 167.304 336.581 167.174 336.581 167.044C336.581 166.871 336.538 166.741 336.451 166.611C336.365 166.481 336.235 166.438 336.061 166.395C335.932 166.395 335.715 166.351 335.369 166.351H334.936V166.395Z" fill="white"/>
<path d="M342.037 170.248H340.998L340.608 169.209H338.746L338.356 170.248H337.36L339.179 165.615H340.175L342.037 170.248ZM340.305 168.386L339.655 166.654L339.006 168.386H340.305Z" fill="white"/>
<path d="M342.643 165.572H343.596V169.425H345.414V165.572H346.367V169.425H346.757V171.201H345.977V170.205H342.686V165.572H342.643Z" fill="white"/>
<path d="M347.493 165.572H348.359V168.646L350.264 165.572H351.216V170.205H350.35V167.174L348.489 170.205H347.493V165.572Z" fill="white"/>
<path d="M352.256 165.572H353.122V168.646L355.027 165.572H355.98V170.205H355.114V167.174L353.252 170.205H352.256V165.572Z" fill="white"/>
</g>
<defs>
<linearGradient id="paint0_linear_2957_1479" x1="430.079" y1="369.976" x2="14.4005" y2="-27.3383" gradientUnits="userSpaceOnUse">
<stop stop-color="#FF9D29"/>
<stop offset="1" stop-color="#5CC1AD"/>
</linearGradient>
<radialGradient id="paint1_radial_2957_1479" cx="0" cy="0" r="1" gradientUnits="userSpaceOnUse" gradientTransform="translate(365 198) rotate(-137.676) scale(424.019 599.727)">
<stop stop-color="#64BFA6"/>
<stop offset="0.770833" stop-color="#9C51FC"/>
</radialGradient>
<radialGradient id="paint2_radial_2957_1479" cx="0" cy="0" r="1" gradientUnits="userSpaceOnUse" gradientTransform="translate(351 207.5) rotate(-138.435) scale(312.749 272.182)">
<stop stop-color="#FF9D29"/>
<stop offset="1" stop-color="#9C51FC"/>
</radialGradient>
<radialGradient id="paint3_radial_2957_1479" cx="0" cy="0" r="1" gradientUnits="userSpaceOnUse" gradientTransform="translate(365.5 251) rotate(-134.713) scale(353.204 307.389)">
<stop stop-color="#297FFF"/>
<stop offset="1" stop-color="#61C6B1"/>
</radialGradient>
<clipPath id="clip0_2957_1479">
<rect width="57.1562" height="50.6612" fill="white" transform="translate(306.747 120.669)"/>
</clipPath>
</defs>
</svg>
