<svg width="384" height="190" viewBox="0 0 384 190" fill="none" xmlns="http://www.w3.org/2000/svg">
<path d="M368 0H16C7.16344 0 0 7.16344 0 16V174C0 182.837 7.16344 190 16 190H368C376.837 190 384 182.837 384 174V16C384 7.16344 376.837 0 368 0Z" fill="url(#paint0_linear_2888_761)"/>
<rect width="384" height="190" rx="16" fill="url(#paint1_radial_2888_761)"/>
<path d="M258.947 157.684V146.509H261.423L264.743 152.652L268.031 146.509H270.442V157.684H268.031V150.599L265.411 155.454H263.973L261.353 150.599V157.684H258.947Z" fill="white"/>
<path d="M272.677 157.684V149.226H274.735V154.765L278.595 149.226H280.493V157.684H278.435V152.145L274.575 157.684H272.677Z" fill="white"/>
<path d="M282.408 157.684V149.226H284.514V152.498H288.123V149.226H290.23V157.684H288.123V154.251H284.514V157.684H282.408Z" fill="white"/>
<path d="M299.009 159.678V157.684H292.144V149.226H294.25V155.93H297.538V149.226H299.645V155.93H300.842V159.678H299.009Z" fill="white"/>
<path d="M302.152 157.684V149.226H304.211V154.765L308.071 149.226H309.969V157.684H307.91V152.145L304.05 157.684H302.152Z" fill="white"/>
<path d="M315.941 160.875V157.876C314.492 157.876 313.391 157.507 312.631 156.764C311.872 156.026 311.493 154.946 311.493 153.535V153.214C311.493 151.861 311.872 150.829 312.626 150.108C313.38 149.391 314.487 149.033 315.946 149.033V146.515H318.053V149.038C318.775 149.038 319.416 149.129 319.967 149.311C320.518 149.493 320.983 149.765 321.357 150.124C321.731 150.487 322.015 150.926 322.212 151.439C322.41 151.957 322.507 152.546 322.507 153.219V153.54C322.507 154.957 322.122 156.031 321.357 156.769C320.592 157.507 319.491 157.881 318.053 157.881V160.881H315.941V160.875ZM316.005 150.819C315.166 150.819 314.556 151.022 314.187 151.423C313.813 151.829 313.631 152.423 313.631 153.208V153.529C313.631 154.39 313.824 155.032 314.203 155.454C314.583 155.876 315.187 156.085 316.005 156.085V150.819ZM317.983 156.09C318.801 156.09 319.406 155.876 319.785 155.443C320.17 155.01 320.357 154.379 320.357 153.535V153.214C320.357 152.417 320.165 151.818 319.785 151.417C319.4 151.016 318.801 150.819 317.983 150.819V156.09Z" fill="white"/>
<path d="M324.02 160.876V149.226H325.966V150.52C326.201 150.103 326.554 149.755 327.03 149.466C327.5 149.178 328.067 149.033 328.73 149.033C329.879 149.033 330.767 149.386 331.387 150.086C332.007 150.787 332.323 151.829 332.323 153.214V153.535C332.323 154.246 332.237 154.877 332.066 155.428C331.895 155.978 331.654 156.427 331.339 156.786C331.023 157.144 330.649 157.411 330.205 157.598C329.762 157.785 329.27 157.876 328.73 157.876C328.168 157.876 327.661 157.753 327.211 157.502C326.762 157.251 326.404 156.909 326.126 156.476V160.881H324.02V160.876ZM328.986 155.936C329.227 155.823 329.43 155.663 329.607 155.449C329.783 155.235 329.917 154.968 330.013 154.652C330.109 154.332 330.157 153.963 330.157 153.535V153.214C330.157 152.808 330.115 152.46 330.024 152.161C329.933 151.862 329.799 151.61 329.623 151.412C329.446 151.215 329.238 151.06 329.002 150.958C328.762 150.856 328.5 150.808 328.211 150.808C327.912 150.808 327.639 150.851 327.382 150.942C327.126 151.033 326.907 151.172 326.72 151.359C326.532 151.546 326.388 151.765 326.281 152.022C326.174 152.279 326.121 152.567 326.121 152.899V153.856C326.121 154.209 326.174 154.519 326.281 154.797C326.388 155.075 326.532 155.31 326.72 155.508C326.907 155.706 327.126 155.855 327.382 155.952C327.639 156.053 327.917 156.101 328.211 156.101C328.489 156.107 328.751 156.048 328.986 155.936Z" fill="white"/>
<path d="M333.83 157.684V149.226H335.937V152.113H337.423C338.519 152.113 339.337 152.348 339.883 152.813C340.428 153.284 340.695 153.979 340.695 154.904C340.695 155.321 340.636 155.7 340.513 156.042C340.39 156.39 340.198 156.679 339.931 156.919C339.663 157.16 339.327 157.347 338.915 157.475C338.503 157.609 338.006 157.673 337.423 157.673H333.83V157.684ZM335.937 156.042H337.183C337.707 156.042 338.07 155.946 338.273 155.754C338.482 155.561 338.583 155.283 338.583 154.909C338.583 154.513 338.482 154.23 338.273 154.048C338.065 153.866 337.701 153.775 337.183 153.775H335.937V156.042ZM341.62 157.684V149.226H343.727V157.684H341.62Z" fill="white"/>
<path d="M345.738 158.086L351.453 158.086L351.453 159.51L345.738 159.51L345.738 158.086Z" fill="white"/>
<path d="M252.622 160.945H237.246V147.396H250.799V157.758H253.045V145.151H235V163.19H252.622V165.061H254.868V163.19V160.945H252.622Z" fill="white"/>
<path d="M247.612 150.583H240.432V157.758H247.612V150.583Z" fill="white"/>
<defs>
<linearGradient id="paint0_linear_2888_761" x1="430.079" y1="369.976" x2="14.4005" y2="-27.3383" gradientUnits="userSpaceOnUse">
<stop stop-color="#FF9D29"/>
<stop offset="1" stop-color="#5CC1AD"/>
</linearGradient>
<radialGradient id="paint1_radial_2888_761" cx="0" cy="0" r="1" gradientUnits="userSpaceOnUse" gradientTransform="translate(365 198) rotate(-137.676) scale(424.019 599.727)">
<stop stop-color="#64BFA6"/>
<stop offset="0.770833" stop-color="#9C51FC"/>
</radialGradient>
</defs>
</svg>
