<svg width="385" height="191" viewBox="0 0 385 191" fill="none" xmlns="http://www.w3.org/2000/svg">
<g clip-path="url(#clip0_4871_16833)">
<path d="M16.5678 0.5L368.568 0.5C377.368 0.5 384.568 7.7 384.568 16.5L384.568 174.5C384.568 183.3 377.368 190.5 368.568 190.5L16.5678 190.5C7.76778 190.5 0.56778 183.3 0.56778 174.5L0.56778 16.5C0.56778 7.7 7.76778 0.5 16.5678 0.5Z" fill="url(#paint0_radial_4871_16833)"/>
<path d="M16.5678 0.5L368.568 0.5C377.368 0.5 384.568 7.7 384.568 16.5L384.568 174.5C384.568 183.3 377.368 190.5 368.568 190.5L16.5678 190.5C7.76778 190.5 0.56778 183.3 0.56778 174.5L0.56778 16.5C0.56778 7.7 7.76778 0.5 16.5678 0.5Z" fill="url(#paint1_linear_4871_16833)"/>
<path d="M231.953 58.2943C231.953 58.2943 249.303 39.2743 251.448 37.0323C252.978 35.4331 254.933 35.2471 256.62 35.2108C259.076 35.1602 262.081 35.4796 264.063 35.4554C265.831 35.4331 266.472 36.634 266.472 38.2311C266.472 41.5265 268.141 131.018 268.298 132.902C268.454 134.785 268.921 135.551 270.645 135.67C272.703 135.812 276.717 135.615 278.956 135.664C280.728 135.704 282.315 135.609 282.268 137.251C282.184 140.231 282.672 144.976 282.738 145.916C282.887 148.057 282.19 148.669 280.47 148.728C276.559 148.863 246.396 149.577 241.183 149.535C239 149.516 238.494 149.159 238.621 143.831C238.788 136.77 238.151 136.299 243.783 135.985C245.977 135.862 246.552 135.985 249.999 135.985C251.721 135.985 252.033 135.043 252.033 133.317C252.033 131.59 250.65 58.2943 250.65 58.2943L242.346 65.0785L240.284 63.7323L231.953 58.2943Z" fill="#FF8501"/>
<path fill-rule="evenodd" clip-rule="evenodd" d="M316.552 43.9021C328.14 42.5566 336.838 52.3854 339.007 61.8482C341.176 71.3131 357.675 131.505 362.381 144.826C367.088 158.146 363.405 163.028 354.496 164.078C346.234 165.05 332.699 165.772 331.388 165.797C331.684 165.979 327.575 168.803 316.004 169.51C311.51 169.785 307.479 170.285 303.509 170.778C296.756 171.616 290.175 172.433 281.772 172.085C274.121 171.767 262.627 170.934 252.893 170.228L252.892 170.228C245.648 169.703 239.378 169.248 236.394 169.13C229.399 168.853 225.624 166.915 224.519 157.776C223.416 148.638 227.412 117.384 228.546 110.346C229.533 104.223 235.272 101.6 237.567 101.126C237.489 100.581 237.545 77.8539 240.033 65.1675C242.522 52.4811 252.165 46.7618 262.43 42.4983C271.215 38.8505 285.138 37.091 285.138 37.091L285.146 37.0386C285.573 34.1404 287.286 22.5354 299.343 22.9488C312.201 23.3897 309.505 40.9385 309.505 40.9385C309.505 40.9385 314.69 42.6023 316.552 43.9021ZM303.995 38.7153C303.995 38.7153 304.702 29.7121 299.69 27.9547C294.68 29.0029 292.618 32.1786 292.649 36.9579C296.892 37.1409 303.995 38.7153 303.995 38.7153ZM350.056 145.999C347.951 139.086 333.949 94.627 333.949 94.627L333.804 157.277C333.804 157.277 337.649 157.059 342.8 156.768C347.951 156.476 352.161 152.912 350.056 145.999Z" fill="white"/>
<path d="M266.472 40.926C266.472 44.2214 268.141 130.87 268.298 132.754C268.454 134.636 268.921 135.403 270.645 135.522C272.703 135.663 276.717 135.467 278.956 135.516C280.728 135.556 282.315 135.461 282.268 137.103C282.184 140.083 282.672 144.828 282.738 145.768C282.887 147.909 282.19 148.521 280.47 148.58C276.559 148.715 246.396 149.429 241.183 149.386C239 149.368 238.494 149.01 238.621 143.683C238.788 136.622 238.151 136.151 243.783 135.837C245.977 135.714 246.552 135.837 249.999 135.837C251.721 135.837 252.033 134.895 252.033 133.169C252.033 131.442 250.65 58.1461 250.65 58.1461L242.346 64.9303L240.327 63.6124C241.72 52.2372 256.477 43.7044 266.472 40.926Z" fill="url(#paint2_linear_4871_16833)"/>
<path d="M327.941 55.2511C322.823 46.0316 309.175 37.097 289.084 37.097C268.994 37.097 243.405 46.8864 240.182 63.8986C237.003 80.6821 237.623 100.492 237.623 100.492" stroke="black" stroke-width="1.3" stroke-linecap="round" stroke-linejoin="round"/>
<path d="M296.774 169.065C298.101 167.073 298.246 164.741 298.431 160.646C298.763 153.334 297.734 124.072 296.554 115.884C295.729 110.165 293.018 105.691 286.391 104.14C279.761 102.588 245.954 101.037 240.209 100.926C234.465 100.816 229.714 104.583 228.609 110.899C227.503 117.213 223.196 151.56 224.631 158.984C226.068 166.407 227.393 168.512 236.564 169.287C245.734 170.063 282.405 172.611 289.041 172.611C300.532 172.611 309.59 170.949 323.399 168.512" stroke="black" stroke-width="1.3" stroke-linecap="round" stroke-linejoin="round"/>
<path d="M326.716 167.846C328.814 167.403 334.227 166.74 333.895 159.758C333.565 152.779 333.895 82.9762 333.895 77.991C333.895 73.0059 333.184 67.4925 330.913 61.0391" stroke="black" stroke-width="1.3" stroke-linecap="round" stroke-linejoin="round"/>
<path d="M320.177 44.0725C327.784 44.0725 336.653 50.9648 339.249 61.6734C345.568 87.7221 352.939 117.762 363.001 146.394C367.38 158.855 363.096 163.2 353.992 163.994C345.919 164.697 338.196 165.284 338.196 165.284" stroke="black" stroke-width="1.3" stroke-linecap="round" stroke-linejoin="round"/>
<path d="M337.962 107.552C341.589 118.818 345.45 132.547 349.077 143.459C352.704 154.372 347.323 156.485 342.408 157.071" stroke="black" stroke-width="1.3" stroke-linecap="round" stroke-linejoin="round"/>
<path d="M309.719 37.8728C309.719 32.3719 309.874 24.7788 300.37 23.2294C290.868 21.68 285.769 29.9698 285.151 37.0992" stroke="black" stroke-width="1.3" stroke-linecap="round" stroke-linejoin="round"/>
<path d="M290.945 29.0402C295.04 25.3986 301.569 27.2267 303.151 31.0555C304.466 34.2313 304.001 38.6486 304.001 38.6486" stroke="black" stroke-width="1.3" stroke-linecap="round" stroke-linejoin="round"/>
<path d="M291.654 142.263C292.991 143.815 292.782 145.198 292.782 146.664C292.782 148.132 289.856 148.844 289.731 146.706C289.605 144.568 289.688 144.455 290.248 143.721" stroke="black" stroke-width="1.3" stroke-linecap="round" stroke-linejoin="round"/>
<path d="M292.875 139.936C292.714 138.865 292.765 137.482 292.765 137.482L289.731 137.443L289.501 141.363" stroke="black" stroke-width="1.3" stroke-linecap="round" stroke-linejoin="round"/>
<path d="M321.467 93.2064C323.14 93.4061 322.902 94.1652 322.862 95.2862C322.823 96.4051 322.582 97.4033 322.582 97.4033C322.582 97.4033 324.057 97.0435 324.057 98.2435C324.057 99.4436 323.659 101.282 323.541 102.32C323.42 103.36 321.346 103.2 321.346 103.2" stroke="black" stroke-width="1.3" stroke-linecap="round" stroke-linejoin="round"/>
<path d="M319.913 94.1256C319.474 94.8452 319.633 97.2036 319.555 97.3638" stroke="black" stroke-width="1.3" stroke-linecap="round" stroke-linejoin="round"/>
<path d="M332.796 53.8972C338.105 61.3468 339.231 76.8388 349.115 110.61C357.271 138.478 360.174 145.549 361.418 151.789C362.341 156.412 360.732 159.348 358.1 159.831" stroke="black" stroke-width="0.7" stroke-linecap="round" stroke-linejoin="round"/>
<path d="M321.508 92.7219C323.082 67.0495 315.797 52.0255 303.211 45.7156C289.883 39.0313 279.043 40.1211 279.043 40.1211" stroke="black" stroke-width="0.7" stroke-linecap="round" stroke-linejoin="round"/>
<path d="M252.752 51.2685C267.546 41.5623 286.625 48.6334 294.366 55.7045C300.764 61.5465 304.507 67.6506 305.774 76.9886" stroke="black" stroke-width="0.7" stroke-linecap="round" stroke-linejoin="round"/>
<path d="M306.533 83.4337C307.245 95.2279 306.255 149.848 305.98 159.831C305.83 165.242 302.247 169.951 302.247 169.951" stroke="black" stroke-width="0.7" stroke-linecap="round" stroke-linejoin="round"/>
<path d="M290.945 137.438C290.945 130.055 290.011 119.761 289.182 115.185C288.352 110.61 286.26 107.97 279.539 107.178C270.725 106.138 241.692 104.162 237.648 104.37" stroke="black" stroke-width="0.7" stroke-linecap="round" stroke-linejoin="round"/>
<path d="M299.536 27.9067C294.36 28.7137 292.917 32.8066 292.627 35.0569" stroke="black" stroke-width="0.7" stroke-linecap="round" stroke-linejoin="round"/>
</g>
<defs>
<radialGradient id="paint0_radial_4871_16833" cx="0" cy="0" r="1" gradientUnits="userSpaceOnUse" gradientTransform="translate(226.537 114.446) rotate(74.9536) scale(192.603 389.261)">
<stop stop-color="#4DCBFF"/>
<stop offset="1" stop-color="#009CDD"/>
</radialGradient>
<linearGradient id="paint1_linear_4871_16833" x1="104.857" y1="24.7778" x2="325.906" y2="151.315" gradientUnits="userSpaceOnUse">
<stop stop-color="#FF9A01"/>
<stop offset="1" stop-color="#FFC601"/>
</linearGradient>
<linearGradient id="paint2_linear_4871_16833" x1="257.355" y1="83.4738" x2="257.355" y2="206.268" gradientUnits="userSpaceOnUse">
<stop stop-color="#FFC0F3"/>
<stop offset="1" stop-color="#FFC0F3" stop-opacity="0"/>
</linearGradient>
<clipPath id="clip0_4871_16833">
<rect width="384" height="190" fill="white" transform="translate(0.56778 0.5)"/>
</clipPath>
</defs>
</svg>
